/* XPM */
static xpm_row_t const dois_pontos_xpm[] = {
"58 68 3 1",
" 	c None",
".	c #000000",
"+	c #FFFFFF",
"                                                          ",
"                                                          ",
"                                                          ",
"                                                          ",
"                                                          ",
"                                                          ",
"                                                          ",
"           ..............................                 ",
"           ..............................                 ",
"           ..............................                 ",
"           ....++++++++++++++++++........                 ",
"           ....++++++++++++++++++.........                ",
"           ....++++++++++++++++++.........                ",
"           ....++++++++++++++++++.........                ",
"           ....++++++++++++++++++.........                ",
"           ....++++++++++++++++++.........                ",
"           ....++++++++++++++++++.........                ",
"           ....++++++++++++++++++.........                ",
"           ....++++++++++++++++++.........                ",
"           ....++++++++++++++++++.........                ",
"           ....++++++++++++++++++.........                ",
"           ....++++++++++++++++++.........                ",
"           ....++++++++++++++++++.........                ",
"           ....++++++++++++++++++.........                ",
"           ....++++++++++++++++++.........                ",
"           ....++++++++++++++++++.........                ",
"           ....++++++++++++++++++.........                ",
"           ...............................                ",
"           ...............................                ",
"           ...............................                ",
"           ...............................                ",
"           ...............................                ",
"               ...........................                ",
"                                                          ",
"                                                          ",
"                                                          ",
"                                                          ",
"                                                          ",
"                                                          ",
"           ..............................                 ",
"           ..............................                 ",
"           ..............................                 ",
"           ....++++++++++++++++++........                 ",
"           ....++++++++++++++++++.........                ",
"           ....++++++++++++++++++.........                ",
"           ....++++++++++++++++++.........                ",
"           ....++++++++++++++++++.........                ",
"           ....++++++++++++++++++.........                ",
"           ....++++++++++++++++++.........                ",
"           ....++++++++++++++++++.........                ",
"           ....++++++++++++++++++.........                ",
"           ....++++++++++++++++++.........                ",
"           ....++++++++++++++++++.........                ",
"           ....++++++++++++++++++.........                ",
"           ....++++++++++++++++++.........                ",
"           ....++++++++++++++++++.........                ",
"           ....++++++++++++++++++.........                ",
"           ....++++++++++++++++++.........                ",
"           ....++++++++++++++++++.........                ",
"           ....++++++++++++++++++.........                ",
"           ...............................                ",
"           ...............................                ",
"           ...............................                ",
"           ...............................                ",
"           ...............................                ",
"                ..........................                ",
"                                                          ",
"                                                          "};
