/* XPM */
static xpm_row_t const number_1_xpm[] = {
"58 68 13 1",
" 	c None",
".	c #000000",
"+	c #CDCDCD",
"@	c #888888",
"#	c #FFFFFF",
"$	c #AAAAAA",
"%	c #F1F1F1",
"&	c #161616",
"*	c #7A7A7A",
"=	c #BEBEBE",
"-	c #3A3A3A",
";	c #383838",
">	c #F9F9F9",
"                                                          ",
"                                                          ",
"                                                          ",
"             ............................                 ",
"             ............................                 ",
"             ............................                 ",
"             ............................                 ",
"             ............................                 ",
"        ...........++++++++++++++++@..........            ",
"        ...........################$...........           ",
"        ...........################$...........           ",
"        ...........################$...........           ",
"        ...........################$...........           ",
"        ...........################$...........           ",
"        .....%#####################$...........           ",
"        .....%#####################$...........           ",
"        .....%#####################$...........           ",
"        .....%#####################$...........           ",
"        .....%#####################$...........           ",
"        .....%#####################$...........           ",
"        .....%#####################$...........           ",
"        .....%#####################$...........           ",
"        .....%#####################$...........           ",
"        .....%#####################$...........           ",
"        .....%#####################$...........           ",
"        ...........################$...........           ",
"        ...........################$...........           ",
"        ...........################$...........           ",
"        ...........################$...........           ",
"        ...........################$...........           ",
"        ...........################$...........           ",
"             ......################$...........           ",
"             ......################$...........           ",
"             ......################$...........           ",
"             ......################$...........           ",
"             ......################$...........           ",
"  .................################$................      ",
"  .................################$................      ",
"  .................################$................      ",
"  .................################$................      ",
"  .................################$................      ",
"  .....&***********################=*****...........      ",
"  .....-#################################...........      ",
"  .....-#################################...........      ",
"  .....-#################################...........      ",
"  .....-#################################...........      ",
"  .....-#################################...........      ",
"  .....-#################################...........      ",
"  .....-#################################...........      ",
"  .....-#################################...........      ",
"  .....-#################################...........      ",
"  .....-#################################...........      ",
"  .....;>>>>>>>>>>>>>>>>>>>>>>>>>>>>>>>>>...........      ",
"  ..................................................      ",
"  ..................................................      ",
"  ..................................................      ",
"  ..................................................      ",
"  ..................................................      ",
"        ............................................      ",
"        ............................................      ",
"        ............................................      ",
"        ............................................      ",
"        ............................................      ",
"        ............................................      ",
"                                                          ",
"                                                          ",
"                                                          ",
"                                                          "};
