/* XPM */
static xpm_row_t const number_9_ingame_xpm[] = {
"30 40 31 1",
" 	c None",
".	c #000000",
"+	c #717171",
"@	c #A0A0A0",
"#	c #696969",
"$	c #B7B7B7",
"%	c #FFFFFF",
"&	c #ABABAB",
"*	c #727272",
"=	c #A6A6A6",
"-	c #D6D6D6",
";	c #D0D0D0",
">	c #6A6A6A",
",	c #B2B2B2",
"'	c #A5A5A5",
")	c #E6E6E6",
"!	c #CACACA",
"~	c #EAEAEA",
"{	c #BBBBBB",
"]	c #C6C6C6",
"^	c #DCDCDC",
"/	c #B1B1B1",
"(	c #E1E1E1",
"_	c #858585",
":	c #C1C1C1",
"<	c #868686",
"[	c #BCBCBC",
"}	c #E5E5E5",
"|	c #848484",
"1	c #ACACAC",
"2	c #6E6E6E",
"                              ",
"                              ",
"                              ",
"                              ",
"                              ",
"     .................        ",
"     .................        ",
"    ...+@@@@@@@@@@@#...       ",
"  .....$%%%%%%%%%%%&.....     ",
"  .....$%%%%%%%%%%%&.....     ",
"  ..*==-%%%%%%%%%%%;==>...    ",
"  ..,%%%%%%%%%%%%%%%%%'.....  ",
"  ..,%%%%%%%%%%%%%%%%%'.....  ",
"  ..,%%%%%)!!!!!~%%%%%'.....  ",
"  ..,%%%%%{.....]%%%%%'.....  ",
"  ..,%%%%%{.....]%%%%%'.....  ",
"  ..,%%%%%^/////(%%%%%'.....  ",
"  ..,%%%%%%%%%%%%%%%%%'.....  ",
"  ..,%%%%%%%%%%%%%%%%%'.....  ",
"  .._::(%%%%%%%%%%%%%%'.....  ",
"  .....$%%%%%%%%%%%%%%'.....  ",
"  .....$%%%%%%%%%%%%%%'.....  ",
"  .....<[[[[[[[[}%%%%%'.....  ",
"     ...........]%%%%%'.....  ",
"     ...........]%%%%%'.....  ",
"       .........]%%%%%'.....  ",
"        ........]%%%%%'.....  ",
"        ........]%%%%%'.....  ",
"             ...]%%%%%'.....  ",
"             ...]%%%%%'.....  ",
"             ...]%%%%%'.....  ",
"             ...|111112.....  ",
"             ...............  ",
"             ...............  ",
"                ............  ",
"                ............  ",
"                ............  ",
"                              ",
"                              ",
"                              "};
