/* XPM */
static xpm_row_t const number_3_ingame_xpm[] = {
"30 40 23 1",
" 	c None",
".	c #000000",
"+	c #898989",
"@	c #BCBCBC",
"#	c #FFFFFF",
"$	c #C8C8C8",
"%	c #6C6C6C",
"&	c #565656",
"*	c #787878",
"=	c #F9F9F9",
"-	c #F8F8F8",
";	c #9C9C9C",
">	c #B7B7B7",
",	c #FBFBFB",
"'	c #DADADA",
")	c #979797",
"!	c #B2B2B2",
"~	c #E4E4E4",
"{	c #C5C5C5",
"]	c #5C5C5C",
"^	c #808080",
"/	c #C6C6C6",
"(	c #626262",
"                              ",
"                              ",
".......................       ",
".......................       ",
".......................       ",
"..+@@@@@@@@@@@@@@@@+......    ",
"..@################@......    ",
"..@################@......    ",
"..@################$%%%....   ",
"..@####################.......",
"..@####################.......",
"..@####################.......",
"..&*************=######.......",
"................-######.......",
"................-######.......",
".........;>>>>>>,######.......",
"  .......'#############.......",
"  .......'#############.......",
"  .......'#############.......",
"      ...'#########@..........",
"      ...'#########@..........",
"      ...'#########@..........",
".........)!!!!!!,##~{{{.......",
"................-######.......",
"................-######.......",
"..]^^^^^^^^^^^^^=######.......",
"..@####################.......",
"..@####################.......",
"..@####################.......",
"..@################/(((.......",
"..@################@..........",
"..@################@..........",
"..+@@@@@@@@@@@@@@@@+..........",
"..............................",
"..............................",
"..............................",
"  ........................    ",
"  ........................    ",
"  ........................    ",
"                              "};
