/* XPM */
static xpm_row_t const number_4_xpm[] = {
"58 68 14 1",
" 	c None",
".	c #000000",
"+	c #171717",
"@	c #7C7C7C",
"#	c #1D1D1D",
"$	c #565656",
"%	c #3B3B3B",
"&	c #FFFFFF",
"*	c #454545",
"=	c #B4B4B4",
"-	c #2E2E2E",
";	c #D1D1D1",
">	c #E7E7E7",
",	c #111111",
"                                                          ",
"                                                          ",
"                                                          ",
"                                                          ",
"   ........................................               ",
"   ........................................               ",
"   ........................................               ",
"   ........................................               ",
"   ........................................               ",
"   .....+@@@@@@@@@@@#.....@@@@@@@@@@@$.....               ",
"   .....%&&&&&&&&&&&*.....&&&&&&&&&&&=.....               ",
"   .....%&&&&&&&&&&&*.....&&&&&&&&&&&=.....               ",
"   .....%&&&&&&&&&&&*.....&&&&&&&&&&&=.....               ",
"   .....%&&&&&&&&&&&*.....&&&&&&&&&&&=.....               ",
"   .....%&&&&&&&&&&&*.....&&&&&&&&&&&=.....               ",
"   .....%&&&&&&&&&&&*.....&&&&&&&&&&&=.....               ",
"   .....%&&&&&&&&&&&*.....&&&&&&&&&&&=.....               ",
"   .....%&&&&&&&&&&&*.....&&&&&&&&&&&=.....               ",
"   .....%&&&&&&&&&&&*.....&&&&&&&&&&&=.....               ",
"   .....%&&&&&&&&&&&*.....&&&&&&&&&&&=.....               ",
"   .....%&&&&&&&&&&&*.....&&&&&&&&&&&=.....               ",
"   .....%&&&&&&&&&&&*.....&&&&&&&&&&&=...........         ",
"   .....%&&&&&&&&&&&*.....&&&&&&&&&&&=...........         ",
"   .....%&&&&&&&&&&&*.....&&&&&&&&&&&=...........         ",
"   .....%&&&&&&&&&&&*.....&&&&&&&&&&&=...........         ",
"   .....%&&&&&&&&&&&*.....&&&&&&&&&&&=...........         ",
"   .....%&&&&&&&&&&&*.....&&&&&&&&&&&=...........         ",
"   .....%&&&&&&&&&&&&&&&&&&&&&&&&&&&&&&&&&&+...........   ",
"   .....%&&&&&&&&&&&&&&&&&&&&&&&&&&&&&&&&&&+...........   ",
"   .....%&&&&&&&&&&&&&&&&&&&&&&&&&&&&&&&&&&+...........   ",
"   .....%&&&&&&&&&&&&&&&&&&&&&&&&&&&&&&&&&&+...........   ",
"   .....%&&&&&&&&&&&&&&&&&&&&&&&&&&&&&&&&&&+...........   ",
"   .....%&&&&&&&&&&&&&&&&&&&&&&&&&&&&&&&&&&+...........   ",
"   .....%&&&&&&&&&&&&&&&&&&&&&&&&&&&&&&&&&&+...........   ",
"   .....%&&&&&&&&&&&&&&&&&&&&&&&&&&&&&&&&&&+...........   ",
"   .....%&&&&&&&&&&&&&&&&&&&&&&&&&&&&&&&&&&+...........   ",
"   .....%&&&&&&&&&&&&&&&&&&&&&&&&&&&&&&&&&&+...........   ",
"   .....%&&&&&&&&&&&&&&&&&&&&&&&&&&&&&&&&&&+...........   ",
"   .....-;;;;;;;;;;;;;;;;;&&&&&&&&&&&>;;;;;,...........   ",
"   .......................&&&&&&&&&&&=.................   ",
"   .......................&&&&&&&&&&&=.................   ",
"   .......................&&&&&&&&&&&=.................   ",
"   .......................&&&&&&&&&&&=.................   ",
"   .......................&&&&&&&&&&&=.................   ",
"         .................&&&&&&&&&&&=.................   ",
"         .................&&&&&&&&&&&=.................   ",
"         .................&&&&&&&&&&&=.................   ",
"         .................&&&&&&&&&&&=.................   ",
"         .................&&&&&&&&&&&=.................   ",
"         .................&&&&&&&&&&&=.................   ",
"               ...........&&&&&&&&&&&=.....               ",
"               ...........&&&&&&&&&&&=.....               ",
"               ...........&&&&&&&&&&&=.....               ",
"               ...........&&&&&&&&&&&=.....               ",
"               ...........&&&&&&&&&&&=.....               ",
"               ...........&&&&&&&&&&&=.....               ",
"               ............................               ",
"               ............................               ",
"               ............................               ",
"               ............................               ",
"               ............................               ",
"               ............................               ",
"                    .......................               ",
"                    .......................               ",
"                    .......................               ",
"                    .......................               ",
"                    .......................               ",
"                                                          "};
