/* XPM */
static xpm_row_t const number_6_ingame_xpm[] = {
"30 40 53 1",
" 	c None",
".	c #000000",
"+	c #323232",
"@	c #353535",
"#	c #131313",
"$	c #010101",
"%	c #979797",
"&	c #9F9F9F",
"*	c #474747",
"=	c #0A0A0A",
"-	c #F3F3F3",
";	c #FFFFFF",
">	c #777777",
",	c #181818",
"'	c #7B7B7B",
")	c #2C2C2C",
"!	c #232323",
"~	c #0F0F0F",
"{	c #A5A5A5",
"]	c #888888",
"^	c #868686",
"/	c #4B4B4B",
"(	c #111111",
"_	c #949494",
":	c #2B2B2B",
"<	c #969696",
"[	c #1C1C1C",
"}	c #0C0C0C",
"|	c #B0B0B0",
"1	c #818181",
"2	c #494949",
"3	c #121212",
"4	c #9C9C9C",
"5	c #313131",
"6	c #FEFEFE",
"7	c #EFEFEF",
"8	c #ECECEC",
"9	c #FAFAFA",
"0	c #DFDFDF",
"a	c #FDFDFD",
"b	c #787878",
"c	c #1E1E1E",
"d	c #0E0E0E",
"e	c #919191",
"f	c #656565",
"g	c #626262",
"h	c #E4E4E4",
"i	c #EAEAEA",
"j	c #F5F5F5",
"k	c #EEEEEE",
"l	c #F9F9F9",
"m	c #999999",
"n	c #303030",
"                              ",
"                              ",
"                              ",
"                              ",
" ............                 ",
" ...+@@@@@#$.                 ",
" ...%&&&&&*=.                 ",
" ...-;;;;;>,....              ",
" ...-;;;;;>,....              ",
" ...-;;;;;>,....              ",
" ...-;;;;;>,....              ",
" ...-;;;;;>,....              ",
" ...-;;;;;>,....              ",
" ...-;;;;;>,..........        ",
" ...-;;;;;')!!!!!!!~$.        ",
" ...-;;;;;{]^^^^^^^/(.        ",
" ...-;;;;;;;;;;;;;;_:....     ",
" ...-;;;;;;;;;;;;;;<@[}$.     ",
" ...-;;;;;;;;;;;;;;|1'23.     ",
" ...-;;;;;;;;;;;;;;;;;45....  ",
" ...-;;;;;666666;;;;;;45....  ",
" ...-;;;;;7888889;;;;;45....  ",
" ...-;;;;;>,....0a;;;;45....  ",
" ...-;;;;;bcdddd0a;;;;45....  ",
" ...-;;;;;efggggha;;;;45....  ",
" ...-;;;;;;;;;;;;;;;;;45....  ",
" ...-6;;;;;;;;;;;;;;;;45....  ",
" ...ijj6;;;;;;;;;;;;;;45....  ",
" ......k6;;;;;;;;;;;;;45....  ",
" ......k6;;;;;;;;;;;;;45....  ",
" ......il9999999999999mn....  ",
"    ........................  ",
"    ........................  ",
"    ........................  ",
"       ..................     ",
"       ..................     ",
"       ..................     ",
"                              ",
"                              ",
"                              "};
