/* XPM */
static xpm_row_t const number_3_xpm[] = {
"58 68 19 1",
" 	c None",
".	c #000000",
"+	c #F9F9F9",
"@	c #FFFFFF",
"#	c #959595",
"$	c #8F8F8F",
"%	c #F4F4F4",
"&	c #282828",
"*	c #292929",
"=	c #A8A8A8",
"-	c #A5A5A5",
";	c #D4D4D4",
">	c #B3B3B3",
",	c #ABABAB",
"'	c #606060",
")	c #636363",
"!	c #B4B4B4",
"~	c #7B7B7B",
"{	c #767676",
"                                                          ",
"                                                          ",
"    .......................................               ",
"    .......................................               ",
"    .......................................               ",
"    .......................................               ",
"    .......................................               ",
"    .......................................               ",
"    .....+@@@@@@@@@@@@@@@@@@@@@@@@@@@...........          ",
"    .....+@@@@@@@@@@@@@@@@@@@@@@@@@@@...........          ",
"    .....+@@@@@@@@@@@@@@@@@@@@@@@@@@@...........          ",
"    .....+@@@@@@@@@@@@@@@@@@@@@@@@@@@...........          ",
"    .....+@@@@@@@@@@@@@@@@@@@@@@@@@@@...........          ",
"    .....+@@@@@@@@@@@@@@@@@@@@@@@@@@@#####$.....          ",
"    .....+@@@@@@@@@@@@@@@@@@@@@@@@@@@@@@@@%...........    ",
"    .....+@@@@@@@@@@@@@@@@@@@@@@@@@@@@@@@@%...........    ",
"    .....+@@@@@@@@@@@@@@@@@@@@@@@@@@@@@@@@%...........    ",
"    .....+@@@@@@@@@@@@@@@@@@@@@@@@@@@@@@@@%...........    ",
"    .....+@@@@@@@@@@@@@@@@@@@@@@@@@@@@@@@@%...........    ",
"    .....&*********************=@@@@@@@@@@%...........    ",
"    ...........................-@@@@@@@@@@%...........    ",
"    ...........................-@@@@@@@@@@%...........    ",
"    ...........................-@@@@@@@@@@%...........    ",
"    ...........................-@@@@@@@@@@%...........    ",
"    ...........................-@@@@@@@@@@%...........    ",
"         ...........;@@@@@@@@@@@@@@@@@@@@@%...........    ",
"         ...........;@@@@@@@@@@@@@@@@@@@@@%...........    ",
"         ...........;@@@@@@@@@@@@@@@@@@@@@%...........    ",
"         ...........;@@@@@@@@@@@@@@@@@@@@@%...........    ",
"         ...........;@@@@@@@@@@@@@@@@@@@@@%...........    ",
"               .....;@@@@@@@@@@@@@@@@>>>>>,...........    ",
"               .....;@@@@@@@@@@@@@@@@.................    ",
"               .....;@@@@@@@@@@@@@@@@.................    ",
"               .....;@@@@@@@@@@@@@@@@.................    ",
"               .....;@@@@@@@@@@@@@@@@.................    ",
"               .....;@@@@@@@@@@@@@@@@.................    ",
"    ...........................-@@@@@@@@@@%...........    ",
"    ...........................-@@@@@@@@@@%...........    ",
"    ...........................-@@@@@@@@@@%...........    ",
"    ...........................-@@@@@@@@@@%...........    ",
"    ...........................-@@@@@@@@@@%...........    ",
"    .....')))))))))))))))))))))!@@@@@@@@@@%...........    ",
"    .....+@@@@@@@@@@@@@@@@@@@@@@@@@@@@@@@@%...........    ",
"    .....+@@@@@@@@@@@@@@@@@@@@@@@@@@@@@@@@%...........    ",
"    .....+@@@@@@@@@@@@@@@@@@@@@@@@@@@@@@@@%...........    ",
"    .....+@@@@@@@@@@@@@@@@@@@@@@@@@@@@@@@@%...........    ",
"    .....+@@@@@@@@@@@@@@@@@@@@@@@@@@@@@@@@%...........    ",
"    .....+@@@@@@@@@@@@@@@@@@@@@@@@@@@~~~~~{...........    ",
"    .....+@@@@@@@@@@@@@@@@@@@@@@@@@@@.................    ",
"    .....+@@@@@@@@@@@@@@@@@@@@@@@@@@@.................    ",
"    .....+@@@@@@@@@@@@@@@@@@@@@@@@@@@.................    ",
"    .....+@@@@@@@@@@@@@@@@@@@@@@@@@@@.................    ",
"    .....+@@@@@@@@@@@@@@@@@@@@@@@@@@@.................    ",
"    ..................................................    ",
"    ..................................................    ",
"    ..................................................    ",
"    ..................................................    ",
"    ..................................................    ",
"    ..................................................    ",
"         .......................................          ",
"         .......................................          ",
"         .......................................          ",
"         .......................................          ",
"         .......................................          ",
"                                                          ",
"                                                          ",
"                                                          ",
"                                                          "};
