/* XPM */
static xpm_row_t const number_2_xpm[] = {
"58 68 15 1",
" 	c None",
".	c #000000",
"+	c #FFFFFF",
"@	c #C1C1C1",
"#	c #797979",
"$	c #D3D3D3",
"%	c #B8B8B8",
"&	c #9B9B9B",
"*	c #D6D6D6",
"=	c #AAAAAA",
"-	c #E8E8E8",
";	c #CBCBCB",
">	c #999999",
",	c #676767",
"'	c #DCDCDC",
"                                                          ",
"                                                          ",
"                                                          ",
"                                                          ",
"          ................................                ",
"          ................................                ",
"          ................................                ",
"          ................................                ",
"          ................................                ",
"          ................................                ",
"    ...........+++++++++++++++++++++@..........           ",
"    ...........+++++++++++++++++++++@..........           ",
"    ...........+++++++++++++++++++++@..........           ",
"    ...........+++++++++++++++++++++@..........           ",
"    ...........+++++++++++++++++++++@..........           ",
"    .....#++++++++++++++++++++++++++++++++...........     ",
"    .....#++++++++++++++++++++++++++++++++...........     ",
"    .....#++++++++++++++++++++++++++++++++...........     ",
"    .....#++++++++++++++++++++++++++++++++...........     ",
"    .....#++++++++++++++++++++++++++++++++...........     ",
"    .....#++++++++++$%%%%%%%%%%+++++++++++...........     ",
"    .....#++++++++++&..........+++++++++++...........     ",
"    .....#++++++++++&..........+++++++++++...........     ",
"    .....#++++++++++&..........+++++++++++...........     ",
"    .....#++++++++++&..........+++++++++++...........     ",
"    .....#++++++++++&..........+++++++++++...........     ",
"    .....#++++++++++&.....++++++++++++++++...........     ",
"    .....#++++++++++&.....++++++++++++++++...........     ",
"    .....#++++++++++&.....++++++++++++++++...........     ",
"    .....#++++++++++&.....++++++++++++++++...........     ",
"    .....#++++++++++&.....++++++++++++++++...........     ",
"    ................*+++++++++++++++@................     ",
"    ................*+++++++++++++++@................     ",
"    ................*+++++++++++++++@................     ",
"    ................*+++++++++++++++@................     ",
"    ................*+++++++++++++++@................     ",
"    ...........=====-++++++++++;;;;;>................     ",
"    ...........++++++++++++++++......................     ",
"    ...........++++++++++++++++......................     ",
"    ...........++++++++++++++++......................     ",
"    ...........++++++++++++++++......................     ",
"    ...........++++++++++++++++......................     ",
"    .....#++++++++++++++++++++++++++++++++...........     ",
"    .....#++++++++++++++++++++++++++++++++...........     ",
"    .....#++++++++++++++++++++++++++++++++...........     ",
"    .....#++++++++++++++++++++++++++++++++...........     ",
"    .....#++++++++++++++++++++++++++++++++...........     ",
"    .....#++++++++++++++++++++++++++++++++...........     ",
"    .....#++++++++++++++++++++++++++++++++...........     ",
"    .....#++++++++++++++++++++++++++++++++...........     ",
"    .....#++++++++++++++++++++++++++++++++...........     ",
"    .....#++++++++++++++++++++++++++++++++...........     ",
"    .....,''''''''''''''''''''''''''''''''...........     ",
"    .................................................     ",
"    .................................................     ",
"    .................................................     ",
"    .................................................     ",
"    .................................................     ",
"          ...........................................     ",
"          ...........................................     ",
"          ...........................................     ",
"          ...........................................     ",
"          ...........................................     ",
"                                                          ",
"                                                          ",
"                                                          ",
"                                                          ",
"                                                          "};
