/* XPM */
static xpm_row_t const number_7_xpm[] = {
"58 68 12 1",
" 	c None",
".	c #000000",
"+	c #FEFEFE",
"@	c #DEDEDE",
"#	c #FFFFFF",
"$	c #DFDFDF",
"%	c #F6F6F6",
"&	c #727272",
"*	c #BABABA",
"=	c #9E9E9E",
"-	c #747474",
";	c #656565",
"                                                          ",
"                                                          ",
"  .............................................           ",
" ..............................................           ",
" ..............................................           ",
" ..............................................           ",
" ..............................................           ",
" ..............................................           ",
" ......++++++++++++++++++++++++++++++++++@...........     ",
" ......##################################$...........     ",
" ......##################################$...........     ",
" ......##################################$...........     ",
" ......##################################$...........     ",
" ......##################################$...........     ",
" ......##################################$...........     ",
" ......##################################$...........     ",
" ......##################################$...........     ",
" ......##################################$...........     ",
" ......##################################$...........     ",
" ......%%%%%%%%%%%%%%%%%%%%%%%###########$...........     ",
" .............................###########$...........     ",
" .............................###########$...........     ",
" .............................###########$...........     ",
" .............................###########$...........     ",
" .............................###########$...........     ",
"  ................&***********###########$...........     ",
"       ...........=######################$...........     ",
"       ...........=######################$...........     ",
"       ...........=######################$...........     ",
"       ...........=######################$...........     ",
"       ...........=######################$...........     ",
"             .....=######################$...........     ",
"             .....=######################$...........     ",
"             .....=######################$...........     ",
"             .....=######################$...........     ",
"             .....=######################$...........     ",
"             .....=######################$...........     ",
"             .................###########$...........     ",
"             .................###########$...........     ",
"             .................###########$...........     ",
"             .................###########$...........     ",
"             .................###########$...........     ",
"             .................###########$...........     ",
"                   ...........###########$...........     ",
"                   ...........###########$...........     ",
"                   ...........###########$...........     ",
"                   ...........###########$...........     ",
"                   ...........###########$...........     ",
"                   ...........###########$...........     ",
"                        ......###########$...........     ",
"                        ......###########$...........     ",
"                        ......###########$...........     ",
"                        ......###########$...........     ",
"                        ......###########$...........     ",
"                        ......-----------;...........     ",
"                        .............................     ",
"                        .............................     ",
"                        .............................     ",
"                        .............................     ",
"                        .............................     ",
"                                    .................     ",
"                                    .................     ",
"                                    .................     ",
"                                    .................     ",
"                                    .................     ",
"                                    .................     ",
"                                                          ",
"                                                          "};
