/* XPM */
static xpm_row_t const number_1_ingame_xpm[] = {
"30 40 16 1",
" 	c None",
".	c #000000",
"+	c #3F3F3F",
"@	c #6C6C6C",
"#	c #5F5F5F",
"$	c #9C9C9C",
"%	c #FFFFFF",
"&	c #E1E1E1",
"*	c #B3B3B3",
"=	c #D1D1D1",
"-	c #F9F9F9",
";	c #FBFBFB",
">	c #D5D5D5",
",	c #868686",
"'	c #A1A1A1",
")	c #707070",
"                              ",
"                              ",
"                              ",
"                              ",
"       .............          ",
"       .............          ",
"       ..+@@@@@@@#...         ",
"    .....$%%%%%%%&.....       ",
"    .....$%%%%%%%&.....       ",
"    ...**=%%%%%%%&.....       ",
"    ...%%%%%%%%%%&.....       ",
"    ...%%%%%%%%%%&.....       ",
"    ...%%%%%%%%%%&.....       ",
"    ...%%%%%%%%%%&.....       ",
"    ...--;%%%%%%%&.....       ",
"    .....$%%%%%%%&.....       ",
"    .....$%%%%%%%&.....       ",
"     ....$%%%%%%%&.....       ",
"       ..$%%%%%%%&.....       ",
"       ..$%%%%%%%&.....       ",
"  .......$%%%%%%%&........    ",
"  .......$%%%%%%%&........    ",
"  .......$%%%%%%%&........    ",
"  ..>%%%%%%%%%%%%%%%*.....    ",
"  ..>%%%%%%%%%%%%%%%*.....    ",
"  ..>%%%%%%%%%%%%%%%*.....    ",
"  ..>%%%%%%%%%%%%%%%*.....    ",
"  ..>%%%%%%%%%%%%%%%*.....    ",
"  ..,''''''''''''''').....    ",
"  ........................    ",
"  ........................    ",
"    ......................    ",
"    ......................    ",
"    ......................    ",
"                              ",
"                              ",
"                              ",
"                              ",
"                              ",
"                              "};
