/* XPM */
static xpm_row_t const number_0_ingame_xpm[] = {
"30 40 18 1",
" 	c None",
".	c #000000",
"+	c #666666",
"@	c #D5D5D5",
"#	c #7C7C7C",
"$	c #FFFFFF",
"%	c #ECECEC",
"&	c #F0F0F0",
"*	c #D6D6D6",
"=	c #E8E8E8",
"-	c #FEFEFE",
";	c #CFCFCF",
">	c #E5E5E5",
",	c #F8F8F8",
"'	c #FBFBFB",
")	c #E7E7E7",
"!	c #6C6C6C",
"~	c #E1E1E1",
"                              ",
"                              ",
"                              ",
"                              ",
"                              ",
"                              ",
"     .................        ",
"     .................        ",
"  .....+@@@@@@@@@@@.....      ",
"  .....#$$$$$$$$$$$......     ",
"  .....#$$$$$$$$$$$......     ",
"  ...%%&$$$$$$$$$$$%%*.....   ",
"  ...$$$$$$$$$$$$$$$$=.....   ",
"  ...$$$$$------$$$$$=.....   ",
"  ...$$$$$;.....>$$$$=.....   ",
"  ...$$$$$;.....>$$$$=.....   ",
"  ...$$$$$;.....>$$$$=.....   ",
"  ...$$$$$;.....>$$$$=.....   ",
"  ...$$$$$;.....>$$$$=.....   ",
"  ...$$$$$;.....>$$$$=.....   ",
"  ...$$$$$;.....>$$$$=.....   ",
"  ...$$$$$;.....>$$$$=.....   ",
"  ...$$$$$;.....>$$$$=.....   ",
"  ...$$$$$;.....>$$$$=.....   ",
"  ...$$$$$;.....>$$$$=.....   ",
"  ...$$$$$,%%%%%'$$$$=.....   ",
"  ...$$$$$$$$$$$$$$$$=.....   ",
"  ...---$$$$$$$$$$$--).....   ",
"  .....#$$$$$$$$$$$........   ",
"  .....#$$$$$$$$$$$........   ",
"  .....!~~~~~~~~~~~........   ",
"     ......................   ",
"     ......................   ",
"     ......................   ",
"        .................     ",
"        .................     ",
"                              ",
"                              ",
"                              ",
"                              "};
