/* XPM */
static xpm_row_t const number_7_ingame_xpm[] = {
"30 40 18 1",
" 	c None",
".	c #000000",
"+	c #F1F1F1",
"@	c #E1E1E1",
"#	c #FFFFFF",
"$	c #EFEFEF",
"%	c #4E4E4E",
"&	c #6F6F6F",
"*	c #555555",
"=	c #393939",
"-	c #F9F9F9",
";	c #FAFAFA",
">	c #3A3A3A",
",	c #060606",
"'	c #565656",
")	c #545454",
"!	c #FBFBFB",
"~	c #EBEBEB",
"                              ",
"                              ",
"                              ",
"                              ",
" ........................     ",
" ........................     ",
" ........................     ",
" ...+++++++++++++++++@......  ",
" ...#################$......  ",
" ...#################$......  ",
" ...#################$......  ",
" ...#################$......  ",
" ...#################$......  ",
" ...%%%%%%%%%%%&#####$......  ",
" ..............*#####$......  ",
" ..............*#####$......  ",
"    .....=-----;#####$......  ",
"    .....>###########$......  ",
"    .....>###########$......  ",
"       ..>###########$......  ",
"       ..>###########$......  ",
"       ..>###########$......  ",
"       ...,,,,,'#####$......  ",
"       ........*#####$......  ",
"       ........*#####$......  ",
"          .....*#####$......  ",
"          .....*#####$......  ",
"          .....*#####$......  ",
"             ..*#####$......  ",
"             ..*#####$......  ",
"             ..)!!!!!~......  ",
"             ...............  ",
"             ...............  ",
"             ...............  ",
"                   .........  ",
"                   .........  ",
"                   .........  ",
"                              ",
"                              ",
"                              "};
