/* XPM */
static xpm_row_t const number_4_ingame_xpm[] = {
"30 40 25 1",
" 	c None",
".	c #000000",
"+	c #222222",
"@	c #3C3C3C",
"#	c #020202",
"$	c #353535",
"%	c #2D2D2D",
"&	c #9F9F9F",
"*	c #FFFFFF",
"=	c #202020",
"-	c #E6E6E6",
";	c #CACACA",
">	c #BABABA",
",	c #B9B9B9",
"'	c #F2F2F2",
")	c #A5A5A5",
"!	c #E3E3E3",
"~	c #989898",
"{	c #F3F3F3",
"]	c #FCFCFC",
"^	c #FAFAFA",
"/	c #D8D8D8",
"(	c #A1A1A1",
"_	c #B4B4B4",
":	c #8D8D8D",
"                              ",
"                              ",
"                              ",
".......................       ",
".......................       ",
"...+@@@@@@#..$@@@@@%...       ",
"...&******=..-*****;...       ",
"...&******=..-*****;...       ",
"...&******=..-*****;...       ",
"...&******=..-*****;...       ",
"...&******=..-*****;...       ",
"...&******=..-*****;...       ",
"...&******=..-*****;......    ",
"...&******=..-*****;......    ",
"...&******=..-*****;......    ",
"...&******>,,'*****-,,)...    ",
"...&******************!...... ",
"...&******************!...... ",
"...&******************!...... ",
"...&******************!...... ",
"...&******************!...... ",
"...~{{{{{{{{{]*****^{{/...... ",
".............-*****;......... ",
".............-*****;......... ",
".............-*****;......... ",
"    .........-*****;......... ",
"    .........-*****;......... ",
"    .........-*****;......... ",
"       ......-*****;...       ",
"       ......-*****;...       ",
"       ......-*****;...       ",
"       ......(_____:...       ",
"       ................       ",
"       ................       ",
"       ................       ",
"          .............       ",
"          .............       ",
"          .............       ",
"                              ",
"                              "};
