/* XPM */
static xpm_row_t const number_2_ingame_xpm[] = {
"30 40 35 1",
" 	c None",
".	c #000000",
"+	c #A3A3A3",
"@	c #2B2B2B",
"#	c #FFFFFF",
"$	c #494949",
"%	c #ADADAD",
"&	c #E8E8E8",
"*	c #EAEAEA",
"=	c #BFBFBF",
"-	c #D3D3D3",
";	c #F2F2F2",
">	c #E1E1E1",
",	c #EEEEEE",
"'	c #C2C2C2",
")	c #ABABAB",
"!	c #D4D4D4",
"~	c #D5D5D5",
"{	c #E7E7E7",
"]	c #FEFEFE",
"^	c #BBBBBB",
"/	c #FBFBFB",
"(	c #C1C1C1",
"_	c #353535",
":	c #CFCFCF",
"<	c #B5B5B5",
"[	c #B8B8B8",
"}	c #DCDCDC",
"|	c #CACACA",
"1	c #B7B7B7",
"2	c #F6F6F6",
"3	c #CBCBCB",
"4	c #6D6D6D",
"5	c #949494",
"6	c #797979",
"                              ",
"                              ",
"                              ",
"                              ",
"                              ",
"     ................         ",
"     ................         ",
"     ...++++++++++@..         ",
"   .....##########$....       ",
"   .....##########$....       ",
"   ..%&&##########*&=.....    ",
"   ..=##############-.....    ",
"   ..=####;>>>>,####-.....    ",
"   ..=####'....)####-.....    ",
"   ..=####'....)####-.....    ",
"   ..=####'..!~{####-.....    ",
"   ..=####'..]######-.....    ",
"   ..^////(__]####//:.....    ",
"   .......<#######$.......    ",
"   .......<#######$.......    ",
"   .....[[}####&==_.......    ",
"   .....#######|..........    ",
"   .....#######|..........    ",
"   ..122#######/22223.....    ",
"   ..=##############-.....    ",
"   ..=##############-.....    ",
"   ..=##############-.....    ",
"   ..=##############-.....    ",
"   ..4555555555555556.....    ",
"   .......................    ",
"   .......................    ",
"     .....................    ",
"     .....................    ",
"                              ",
"                              ",
"                              ",
"                              ",
"                              ",
"                              ",
"                              "};
