/* XPM */
static xpm_row_t const number_6_xpm[] = {
"58 68 12 1",
" 	c None",
".	c #000000",
"+	c #B9B9B9",
"@	c #FFFFFF",
"#	c #A4A4A4",
"$	c #6D6D6D",
"%	c #505050",
"&	c #E4E4E4",
"*	c #C5C5C5",
"=	c #C2C2C2",
"-	c #FCFCFC",
";	c #4F4F4F",
"                                                          ",
"                                                          ",
"  .......................                                 ",
"  .......................                                 ",
"  .......................                                 ",
"  .......................                                 ",
"  .......................                                 ",
"  .......................                                 ",
"  .....+@@@@@@@@@@@#...........                           ",
"  .....+@@@@@@@@@@@#...........                           ",
"  .....+@@@@@@@@@@@#...........                           ",
"  .....+@@@@@@@@@@@#...........                           ",
"  .....+@@@@@@@@@@@#...........                           ",
"  .....+@@@@@@@@@@@#...........                           ",
"  .....+@@@@@@@@@@@#...........                           ",
"  .....+@@@@@@@@@@@#...........                           ",
"  .....+@@@@@@@@@@@#...........                           ",
"  .....+@@@@@@@@@@@#...........                           ",
"  .....+@@@@@@@@@@@#...........                           ",
"  .....+@@@@@@@@@@@#...........                           ",
"  .....+@@@@@@@@@@@#.......................               ",
"  .....+@@@@@@@@@@@#.......................               ",
"  .....+@@@@@@@@@@@#.......................               ",
"  .....+@@@@@@@@@@@#.......................               ",
"  .....+@@@@@@@@@@@#.......................               ",
"  .....+@@@@@@@@@@@#.......................               ",
"  .....+@@@@@@@@@@@@@@@@@@@@@@@@@@@@@$...........         ",
"  .....+@@@@@@@@@@@@@@@@@@@@@@@@@@@@@$...........         ",
"  .....+@@@@@@@@@@@@@@@@@@@@@@@@@@@@@$...........         ",
"  .....+@@@@@@@@@@@@@@@@@@@@@@@@@@@@@$...........         ",
"  .....+@@@@@@@@@@@@@@@@@@@@@@@@@@@@@$...........         ",
"  .....+@@@@@@@@@@@@@@@@@@@@@@@@@@@@@$...........         ",
"  .....+@@@@@@@@@@@@@@@@@@@@@@@@@@@@@@@@@@@%...........   ",
"  .....+@@@@@@@@@@@@@@@@@@@@@@@@@@@@@@@@@@@%...........   ",
"  .....+@@@@@@@@@@@@@@@@@@@@@@@@@@@@@@@@@@@%...........   ",
"  .....+@@@@@@@@@@@@@@@@@@@@@@@@@@@@@@@@@@@%...........   ",
"  .....+@@@@@@@@@@@@@@@@@@@@@@@@@@@@@@@@@@@%...........   ",
"  .....+@@@@@@@@@@@@@@@@@@@@@@@@@@@@@@@@@@@%...........   ",
"  .....+@@@@@@@@@@@#...........&@@@@@@@@@@@%...........   ",
"  .....+@@@@@@@@@@@#...........&@@@@@@@@@@@%...........   ",
"  .....+@@@@@@@@@@@#...........&@@@@@@@@@@@%...........   ",
"  .....+@@@@@@@@@@@#...........&@@@@@@@@@@@%...........   ",
"  .....+@@@@@@@@@@@#...........&@@@@@@@@@@@%...........   ",
"  .....+@@@@@@@@@@@#...........&@@@@@@@@@@@%...........   ",
"  .....+@@@@@@@@@@@@@@@@@@@@@@@@@@@@@@@@@@@%...........   ",
"  .....+@@@@@@@@@@@@@@@@@@@@@@@@@@@@@@@@@@@%...........   ",
"  .....+@@@@@@@@@@@@@@@@@@@@@@@@@@@@@@@@@@@%...........   ",
"  .....+@@@@@@@@@@@@@@@@@@@@@@@@@@@@@@@@@@@%...........   ",
"  .....+@@@@@@@@@@@@@@@@@@@@@@@@@@@@@@@@@@@%...........   ",
"  .....+@@@@@@@@@@@@@@@@@@@@@@@@@@@@@@@@@@@%...........   ",
"  ...........*@@@@@@@@@@@@@@@@@@@@@@@@@@@@@%...........   ",
"  ...........*@@@@@@@@@@@@@@@@@@@@@@@@@@@@@%...........   ",
"  ...........*@@@@@@@@@@@@@@@@@@@@@@@@@@@@@%...........   ",
"  ...........*@@@@@@@@@@@@@@@@@@@@@@@@@@@@@%...........   ",
"  ...........*@@@@@@@@@@@@@@@@@@@@@@@@@@@@@%...........   ",
"  ...........=-----------------------------;...........   ",
"        ...............................................   ",
"        ...............................................   ",
"        ...............................................   ",
"        ...............................................   ",
"        ...............................................   ",
"        ...............................................   ",
"             ....................................         ",
"             ....................................         ",
"             ....................................         ",
"             ....................................         ",
"             ....................................         ",
"              ...................................         "};
