/* XPM */
static xpm_row_t const number_8_xpm[] = {
"58 68 27 1",
" 	c None",
".	c #000000",
"+	c #5C5C5C",
"@	c #E2E2E2",
"#	c #6A6A6A",
"$	c #696969",
"%	c #FFFFFF",
"&	c #797979",
"*	c #ECECEC",
"=	c #E5E5E5",
"-	c #EBEBEB",
";	c #898989",
">	c #7C7C7C",
",	c #757575",
"'	c #939393",
")	c #EFEFEF",
"!	c #EAEAEA",
"~	c #EEEEEE",
"{	c #9C9C9C",
"]	c #E6E6E6",
"^	c #DDDDDD",
"/	c #F5F5F5",
"(	c #F1F1F1",
"_	c #F4F4F4",
":	c #565656",
"<	c #D5D5D5",
"[	c #636363",
"                                                          ",
"                                                          ",
"                                                          ",
"                                                          ",
"        ..................................                ",
"        ..................................                ",
"        ..................................                ",
"        ..................................                ",
"        ..................................                ",
"  ...........+@@@@@@@@@@@@@@@@@@@@@@#...........          ",
"  ...........$%%%%%%%%%%%%%%%%%%%%%%&...........          ",
"  ...........$%%%%%%%%%%%%%%%%%%%%%%&...........          ",
"  ...........$%%%%%%%%%%%%%%%%%%%%%%&...........          ",
"  ...........$%%%%%%%%%%%%%%%%%%%%%%&...........          ",
"  ...........$%%%%%%%%%%%%%%%%%%%%%%&...........          ",
"  ......%%%%%%%%%%%%%%%%%%%%%%%%%%%%%%%%%%...........     ",
"  ......%%%%%%%%%%%%%%%%%%%%%%%%%%%%%%%%%%...........     ",
"  ......%%%%%%%%%%%%%%%%%%%%%%%%%%%%%%%%%%...........     ",
"  ......%%%%%%%%%%%%%%%%%%%%%%%%%%%%%%%%%%...........     ",
"  ......%%%%%%%%%%%%%%%%%%%%%%%%%%%%%%%%%%...........     ",
"  ......%%%%%%%%%%%*==========-%%%%%%%%%%%...........     ",
"  ......%%%%%%%%%%%;..........>%%%%%%%%%%%...........     ",
"  ......%%%%%%%%%%%;..........>%%%%%%%%%%%...........     ",
"  ......%%%%%%%%%%%;..........>%%%%%%%%%%%...........     ",
"  ......%%%%%%%%%%%;..........>%%%%%%%%%%%...........     ",
"  ......%%%%%%%%%%%;..........>%%%%%%%%%%%...........     ",
"  ......,,,,,'%%%%%)!!!!!!!!!!~%%%%%{,,,,,...........     ",
"  ...........$%%%%%%%%%%%%%%%%%%%%%%&................     ",
"  ...........$%%%%%%%%%%%%%%%%%%%%%%&................     ",
"  ...........$%%%%%%%%%%%%%%%%%%%%%%&................     ",
"  ...........$%%%%%%%%%%%%%%%%%%%%%%&................     ",
"  ...........$%%%%%%%%%%%%%%%%%%%%%%&................     ",
"  ......%%%%%%%%%%%%%%%%%%%%%%%%%%%%%%%%%%...........     ",
"  ......%%%%%%%%%%%%%%%%%%%%%%%%%%%%%%%%%%...........     ",
"  ......%%%%%%%%%%%%%%%%%%%%%%%%%%%%%%%%%%...........     ",
"  ......%%%%%%%%%%%%%%%%%%%%%%%%%%%%%%%%%%...........     ",
"  ......%%%%%%%%%%%%%%%%%%%%%%%%%%%%%%%%%%...........     ",
"  ......%%%%%%%%%%%]^^^^^^^^^^=%%%%%%%%%%%...........     ",
"  ......%%%%%%%%%%%;..........>%%%%%%%%%%%...........     ",
"  ......%%%%%%%%%%%;..........>%%%%%%%%%%%...........     ",
"  ......%%%%%%%%%%%;..........>%%%%%%%%%%%...........     ",
"  ......%%%%%%%%%%%;..........>%%%%%%%%%%%...........     ",
"  ......%%%%%%%%%%%;..........>%%%%%%%%%%%...........     ",
"  ......%%%%%%%%%%%/((((((((((_%%%%%%%%%%%...........     ",
"  ......%%%%%%%%%%%%%%%%%%%%%%%%%%%%%%%%%%...........     ",
"  ......%%%%%%%%%%%%%%%%%%%%%%%%%%%%%%%%%%...........     ",
"  ......%%%%%%%%%%%%%%%%%%%%%%%%%%%%%%%%%%...........     ",
"  ......%%%%%%%%%%%%%%%%%%%%%%%%%%%%%%%%%%...........     ",
"  ......%%%%%%%%%%%%%%%%%%%%%%%%%%%%%%%%%%...........     ",
"  ...........$%%%%%%%%%%%%%%%%%%%%%%&................     ",
"  ...........$%%%%%%%%%%%%%%%%%%%%%%&................     ",
"  ...........$%%%%%%%%%%%%%%%%%%%%%%&................     ",
"  ...........$%%%%%%%%%%%%%%%%%%%%%%&................     ",
"  ...........$%%%%%%%%%%%%%%%%%%%%%%&................     ",
"   ..........:<<<<<<<<<<<<<<<<<<<<<<[................     ",
"        .............................................     ",
"        .............................................     ",
"        .............................................     ",
"        .............................................     ",
"        .............................................     ",
"              ..................................          ",
"              ..................................          ",
"              ..................................          ",
"              ..................................          ",
"              ..................................          ",
"              ..................................          ",
"                                                          ",
"                                                          "};
