/* XPM */
static xpm_row_t const number_8_ingame_xpm[] = {
"30 40 43 1",
" 	c None",
".	c #000000",
"+	c #9C9C9C",
"@	c #D7D7D7",
"#	c #313131",
"$	c #BABABA",
"%	c #FFFFFF",
"&	c #3C3C3C",
"*	c #939393",
"=	c #E8E8E8",
"-	c #F4F4F4",
";	c #E9E9E9",
">	c #E5E5E5",
",	c #A2A2A2",
"'	c #FBFBFB",
")	c #ADADAD",
"!	c #474747",
"~	c #ECECEC",
"{	c #A6A6A6",
"]	c #EAEAEA",
"^	c #A1A1A1",
"/	c #FDFDFD",
"(	c #FEFEFE",
"_	c #A8A8A8",
":	c #222222",
"<	c #EBEBEB",
"[	c #FAFAFA",
"}	c #414141",
"|	c #6A6A6A",
"1	c #C6C6C6",
"2	c #777777",
"3	c #696969",
"4	c #DDDDDD",
"5	c #CBCBCB",
"6	c #A0A0A0",
"7	c #F2F2F2",
"8	c #787878",
"9	c #BFBFBF",
"0	c #E1E1E1",
"a	c #C2C2C2",
"b	c #BCBCBC",
"c	c #797979",
"d	c #242424",
"                              ",
"                              ",
"                              ",
"                              ",
"                              ",
"     .................        ",
"     .................        ",
"     .................        ",
"  .....+@@@@@@@@@@@#.....     ",
"  .....$%%%%%%%%%%%&.....     ",
"  .....$%%%%%%%%%%%&.....     ",
"  ..*==-%%%%%%%%%%%;=>......  ",
"  ..,%%%%%%%%%%%%%%%%'......  ",
"  ..,%%%%%%%%%%%%%%%%'......  ",
"  ..,%%%%%)!!!!!~%%%%'......  ",
"  ..,%%%%%{.....]%%%%'......  ",
"  ..^//(%%_:::::<%%//[......  ",
"  .....$%%%%%%%%%%%&........  ",
"  .....$%%%%%%%%%%%&........  ",
"  ..}||1%%%%%%%%%%%2|3......  ",
"  ..,%%%%%%%%%%%%%%%%'......  ",
"  ..,%%%%%%%%%%%%%%%%'......  ",
"  ..,%%%%%<44444[%%%%'......  ",
"  ..,%%%%%{.....]%%%%'......  ",
"  ..,%%%%%{.....]%%%%'......  ",
"  ..,%%%%%5666667%%%%'......  ",
"  ..,%%%%%%%%%%%%%%%%'......  ",
"  ..,%%%%%%%%%%%%%%%%'......  ",
"  ..8990%%%%%%%%%%%a9b......  ",
"  .....$%%%%%%%%%%%&........  ",
"  .....$%%%%%%%%%%%&........  ",
"    ...c___________d........  ",
"     .......................  ",
"     .......................  ",
"       ..................     ",
"        .................     ",
"        .................     ",
"                              ",
"                              ",
"                              "};
