/* XPM */
static xpm_row_t const number_5_ingame_xpm[] = {
"30 40 29 1",
" 	c None",
".	c #000000",
"+	c #808080",
"@	c #9E9E9E",
"#	c #9C9C9C",
"$	c #D1D1D1",
"%	c #FFFFFF",
"&	c #FCFCFC",
"*	c #F8F8F8",
"=	c #EDEDED",
"-	c #EAEAEA",
";	c #C8C8C8",
">	c #CBCBCB",
",	c #3F3F3F",
"'	c #3A3A3A",
")	c #F0F0F0",
"!	c #FBFBFB",
"~	c #F9F9F9",
"{	c #535353",
"]	c #686868",
"^	c #868686",
"/	c #B8B8B8",
"(	c #E2E2E2",
"_	c #E9E9E9",
":	c #F5F5F5",
"<	c #9A9A9A",
"[	c #8E8E8E",
"}	c #AFAFAF",
"|	c #A4A4A4",
"                              ",
"                              ",
"                              ",
"                              ",
" .........................    ",
" .........................    ",
" ...+@@@@@@@@@@@@@@@@@#...    ",
" ...$%%%%%%%%%%%%%%%%%&...... ",
" ...$%%%%%%%%%%%%%%%%%&...... ",
" ...$%%%%%%%%%%%%%%%%%&...... ",
" ...$%%%%%%%%%%%%%%%%%&...... ",
" ...$%%%%%%%%%%%%%%%%%&...... ",
" ...$%%%%%*===========-...... ",
" ...$%%%%%;.................. ",
" ...$%%%%%;.................. ",
" ...$%%%%%>,,,,,,,,'......... ",
" ...$%%%%%%%%%%%%%%)......... ",
" ...$%%%%%%%%%%%%%%)......... ",
" ...$%%%%%%%%%%%%%%)......... ",
" ...$%%%%%%%%%%%%%%%!!~...... ",
" ...$%%%%%%%%%%%%%%%%%&...... ",
" ...$%%%%%%%%%%%%%%%%%&...... ",
" ...{]]]]]]]]]]]@%%%%%&...... ",
" ...............^%%%%%&...... ",
" ...............^%%%%%&...... ",
" .../(((((((((((_%%%%%&...... ",
" ...$%%%%%%%%%%%%%%%%%&...... ",
" ...$%%%%%%%%%%%%%%%%%&...... ",
" ...$%%%%%%%%%%%%%%:##<...... ",
" ...$%%%%%%%%%%%%%%)......... ",
" ...$%%%%%%%%%%%%%%)......... ",
" ...[}}}}}}}}}}}}}}|......... ",
" ............................ ",
" ............................ ",
"  ........................... ",
"    ......................    ",
"    ......................    ",
"     .....................    ",
"                              ",
"                              "};
