/* XPM */
static xpm_row_t const number_9_xpm[] = {
"58 68 16 1",
" 	c None",
".	c #000000",
"+	c #CCCCCC",
"@	c #FFFFFF",
"#	c #555555",
"$	c #DDDDDD",
"%	c #F3F3F3",
"&	c #9D9D9D",
"*	c #B8B8B8",
"=	c #EDEDED",
"-	c #808080",
";	c #2C2C2C",
">	c #8F8F8F",
",	c #323232",
"'	c #6C6C6C",
")	c #5C5C5C",
"                                                          ",
"                                                          ",
"                                                          ",
"                                                          ",
"                                                          ",
"                                                          ",
"         .................................                ",
"         .................................                ",
"         .................................                ",
"         .................................                ",
"         .................................                ",
"   ...........++++++++++++++++++++++...........           ",
"   ...........@@@@@@@@@@@@@@@@@@@@@@...........           ",
"   ...........@@@@@@@@@@@@@@@@@@@@@@...........           ",
"   ...........@@@@@@@@@@@@@@@@@@@@@@...........           ",
"   ...........@@@@@@@@@@@@@@@@@@@@@@...........           ",
"   ...........@@@@@@@@@@@@@@@@@@@@@@...........           ",
"   .....#@@@@@@@@@@@@@@@@@@@@@@@@@@@@@@@@$...........     ",
"   .....#@@@@@@@@@@@@@@@@@@@@@@@@@@@@@@@@$...........     ",
"   .....#@@@@@@@@@@@@@@@@@@@@@@@@@@@@@@@@$...........     ",
"   .....#@@@@@@@@@@@@@@@@@@@@@@@@@@@@@@@@$...........     ",
"   .....#@@@@@@@@@@@@@@@@@@@@@@@@@@@@@@@@$...........     ",
"   .....#@@@@@@@@@@%&&&&&&&&&&*@@@@@@@@@@$...........     ",
"   .....#@@@@@@@@@@=..........-@@@@@@@@@@$...........     ",
"   .....#@@@@@@@@@@=..........-@@@@@@@@@@$...........     ",
"   .....#@@@@@@@@@@=..........-@@@@@@@@@@$...........     ",
"   .....#@@@@@@@@@@=..........-@@@@@@@@@@$...........     ",
"   .....#@@@@@@@@@@=..........-@@@@@@@@@@$...........     ",
"   .....#@@@@@@@@@@@@@@@@@@@@@@@@@@@@@@@@$...........     ",
"   .....#@@@@@@@@@@@@@@@@@@@@@@@@@@@@@@@@$...........     ",
"   .....#@@@@@@@@@@@@@@@@@@@@@@@@@@@@@@@@$...........     ",
"   .....#@@@@@@@@@@@@@@@@@@@@@@@@@@@@@@@@$...........     ",
"   .....#@@@@@@@@@@@@@@@@@@@@@@@@@@@@@@@@$...........     ",
"   .....;>>>>>@@@@@@@@@@@@@@@@@@@@@@@@@@@$...........     ",
"   ...........@@@@@@@@@@@@@@@@@@@@@@@@@@@$...........     ",
"   ...........@@@@@@@@@@@@@@@@@@@@@@@@@@@$...........     ",
"   ...........@@@@@@@@@@@@@@@@@@@@@@@@@@@$...........     ",
"   ...........@@@@@@@@@@@@@@@@@@@@@@@@@@@$...........     ",
"   ...........@@@@@@@@@@@@@@@@@@@@@@@@@@@$...........     ",
"         .....................-@@@@@@@@@@$...........     ",
"         .....................-@@@@@@@@@@$...........     ",
"         .....................-@@@@@@@@@@$...........     ",
"         .....................-@@@@@@@@@@$...........     ",
"         .....................-@@@@@@@@@@$...........     ",
"              ................-@@@@@@@@@@$...........     ",
"              ................-@@@@@@@@@@$...........     ",
"              ................-@@@@@@@@@@$...........     ",
"              ................-@@@@@@@@@@$...........     ",
"              ................-@@@@@@@@@@$...........     ",
"              ................-@@@@@@@@@@$...........     ",
"                         .....-@@@@@@@@@@$...........     ",
"                         .....-@@@@@@@@@@$...........     ",
"                         .....-@@@@@@@@@@$...........     ",
"                         .....-@@@@@@@@@@$...........     ",
"                         .....-@@@@@@@@@@$...........     ",
"                         .....,'''''''''')...........     ",
"                         ............................     ",
"                         ............................     ",
"                         ............................     ",
"                         ............................     ",
"                         ............................     ",
"                               ......................     ",
"                               ......................     ",
"                               ......................     ",
"                               ......................     ",
"                               ......................     ",
"                                                          ",
"                                                          "};
