/* XPM */
static xpm_row_t const time_36_xpm[] = {
"120 68 28 1",
" 	c None",
".	c #000000",
"+	c #B9B9B9",
"@	c #FFFFFF",
"#	c #A4A4A4",
"$	c #F9F9F9",
"%	c #959595",
"&	c #8F8F8F",
"*	c #F4F4F4",
"=	c #282828",
"-	c #292929",
";	c #A8A8A8",
">	c #A5A5A5",
",	c #6D6D6D",
"'	c #D4D4D4",
")	c #505050",
"!	c #B3B3B3",
"~	c #ABABAB",
"{	c #E4E4E4",
"]	c #606060",
"^	c #636363",
"/	c #B4B4B4",
"(	c #7B7B7B",
"_	c #767676",
":	c #C5C5C5",
"<	c #C2C2C2",
"[	c #FCFCFC",
"}	c #4F4F4F",
"                                                                                                                        ",
"                                                        .......................                                         ",
"                                                        .......................                                         ",
"                                                        .......................                                         ",
".......................................                 .......................                                         ",
".......................................                 .......................                                         ",
".......................................                 .......................                                         ",
".......................................                 .....+@@@@@@@@@@@#...........                                   ",
".......................................                 .....+@@@@@@@@@@@#...........                                   ",
".......................................                 .....+@@@@@@@@@@@#...........                                   ",
".....$@@@@@@@@@@@@@@@@@@@@@@@@@@@...........            .....+@@@@@@@@@@@#...........                                   ",
".....$@@@@@@@@@@@@@@@@@@@@@@@@@@@...........            .....+@@@@@@@@@@@#...........                                   ",
".....$@@@@@@@@@@@@@@@@@@@@@@@@@@@...........            .....+@@@@@@@@@@@#...........                                   ",
".....$@@@@@@@@@@@@@@@@@@@@@@@@@@@...........            .....+@@@@@@@@@@@#...........                                   ",
".....$@@@@@@@@@@@@@@@@@@@@@@@@@@@...........            .....+@@@@@@@@@@@#...........                                   ",
".....$@@@@@@@@@@@@@@@@@@@@@@@@@@@%%%%%&.....            .....+@@@@@@@@@@@#...........                                   ",
".....$@@@@@@@@@@@@@@@@@@@@@@@@@@@@@@@@*...........      .....+@@@@@@@@@@@#...........                                   ",
".....$@@@@@@@@@@@@@@@@@@@@@@@@@@@@@@@@*...........      .....+@@@@@@@@@@@#...........                                   ",
".....$@@@@@@@@@@@@@@@@@@@@@@@@@@@@@@@@*...........      .....+@@@@@@@@@@@#...........                                   ",
".....$@@@@@@@@@@@@@@@@@@@@@@@@@@@@@@@@*...........      .....+@@@@@@@@@@@#.......................                       ",
".....$@@@@@@@@@@@@@@@@@@@@@@@@@@@@@@@@*...........      .....+@@@@@@@@@@@#.......................                       ",
".....=---------------------;@@@@@@@@@@*...........      .....+@@@@@@@@@@@#.......................                       ",
"...........................>@@@@@@@@@@*...........      .....+@@@@@@@@@@@#.......................                       ",
"...........................>@@@@@@@@@@*...........      .....+@@@@@@@@@@@#.......................                       ",
"...........................>@@@@@@@@@@*...........      .....+@@@@@@@@@@@#.......................                       ",
"...........................>@@@@@@@@@@*...........      .....+@@@@@@@@@@@@@@@@@@@@@@@@@@@@@,...........                 ",
"...........................>@@@@@@@@@@*...........      .....+@@@@@@@@@@@@@@@@@@@@@@@@@@@@@,...........                 ",
"     ...........'@@@@@@@@@@@@@@@@@@@@@*...........      .....+@@@@@@@@@@@@@@@@@@@@@@@@@@@@@,...........                 ",
"     ...........'@@@@@@@@@@@@@@@@@@@@@*...........      .....+@@@@@@@@@@@@@@@@@@@@@@@@@@@@@,...........                 ",
"     ...........'@@@@@@@@@@@@@@@@@@@@@*...........      .....+@@@@@@@@@@@@@@@@@@@@@@@@@@@@@,...........                 ",
"     ...........'@@@@@@@@@@@@@@@@@@@@@*...........      .....+@@@@@@@@@@@@@@@@@@@@@@@@@@@@@,...........                 ",
"     ...........'@@@@@@@@@@@@@@@@@@@@@*...........      .....+@@@@@@@@@@@@@@@@@@@@@@@@@@@@@@@@@@@)...........           ",
"           .....'@@@@@@@@@@@@@@@@!!!!!~...........      .....+@@@@@@@@@@@@@@@@@@@@@@@@@@@@@@@@@@@)...........           ",
"           .....'@@@@@@@@@@@@@@@@.................      .....+@@@@@@@@@@@@@@@@@@@@@@@@@@@@@@@@@@@)...........           ",
"           .....'@@@@@@@@@@@@@@@@.................      .....+@@@@@@@@@@@@@@@@@@@@@@@@@@@@@@@@@@@)...........           ",
"           .....'@@@@@@@@@@@@@@@@.................      .....+@@@@@@@@@@@@@@@@@@@@@@@@@@@@@@@@@@@)...........           ",
"           .....'@@@@@@@@@@@@@@@@.................      .....+@@@@@@@@@@@@@@@@@@@@@@@@@@@@@@@@@@@)...........           ",
"           .....'@@@@@@@@@@@@@@@@.................      .....+@@@@@@@@@@@#...........{@@@@@@@@@@@)...........           ",
"...........................>@@@@@@@@@@*...........      .....+@@@@@@@@@@@#...........{@@@@@@@@@@@)...........           ",
"...........................>@@@@@@@@@@*...........      .....+@@@@@@@@@@@#...........{@@@@@@@@@@@)...........           ",
"...........................>@@@@@@@@@@*...........      .....+@@@@@@@@@@@#...........{@@@@@@@@@@@)...........           ",
"...........................>@@@@@@@@@@*...........      .....+@@@@@@@@@@@#...........{@@@@@@@@@@@)...........           ",
"...........................>@@@@@@@@@@*...........      .....+@@@@@@@@@@@#...........{@@@@@@@@@@@)...........           ",
".....]^^^^^^^^^^^^^^^^^^^^^/@@@@@@@@@@*...........      .....+@@@@@@@@@@@@@@@@@@@@@@@@@@@@@@@@@@@)...........           ",
".....$@@@@@@@@@@@@@@@@@@@@@@@@@@@@@@@@*...........      .....+@@@@@@@@@@@@@@@@@@@@@@@@@@@@@@@@@@@)...........           ",
".....$@@@@@@@@@@@@@@@@@@@@@@@@@@@@@@@@*...........      .....+@@@@@@@@@@@@@@@@@@@@@@@@@@@@@@@@@@@)...........           ",
".....$@@@@@@@@@@@@@@@@@@@@@@@@@@@@@@@@*...........      .....+@@@@@@@@@@@@@@@@@@@@@@@@@@@@@@@@@@@)...........           ",
".....$@@@@@@@@@@@@@@@@@@@@@@@@@@@@@@@@*...........      .....+@@@@@@@@@@@@@@@@@@@@@@@@@@@@@@@@@@@)...........           ",
".....$@@@@@@@@@@@@@@@@@@@@@@@@@@@@@@@@*...........      .....+@@@@@@@@@@@@@@@@@@@@@@@@@@@@@@@@@@@)...........           ",
".....$@@@@@@@@@@@@@@@@@@@@@@@@@@@(((((_...........      ...........:@@@@@@@@@@@@@@@@@@@@@@@@@@@@@)...........           ",
".....$@@@@@@@@@@@@@@@@@@@@@@@@@@@.................      ...........:@@@@@@@@@@@@@@@@@@@@@@@@@@@@@)...........           ",
".....$@@@@@@@@@@@@@@@@@@@@@@@@@@@.................      ...........:@@@@@@@@@@@@@@@@@@@@@@@@@@@@@)...........           ",
".....$@@@@@@@@@@@@@@@@@@@@@@@@@@@.................      ...........:@@@@@@@@@@@@@@@@@@@@@@@@@@@@@)...........           ",
".....$@@@@@@@@@@@@@@@@@@@@@@@@@@@.................      ...........:@@@@@@@@@@@@@@@@@@@@@@@@@@@@@)...........           ",
".....$@@@@@@@@@@@@@@@@@@@@@@@@@@@.................      ...........<[[[[[[[[[[[[[[[[[[[[[[[[[[[[[}...........           ",
"..................................................            ...............................................           ",
"..................................................            ...............................................           ",
"..................................................            ...............................................           ",
"..................................................            ...............................................           ",
"..................................................            ...............................................           ",
"..................................................            ...............................................           ",
"     .......................................                       ....................................                 ",
"     .......................................                       ....................................                 ",
"     .......................................                       ....................................                 ",
"     .......................................                       ....................................                 ",
"     .......................................                       ....................................                 ",
"                                                                    ...................................                 ",
"                                                                                                                        "};
