/* XPM */
static xpm_row_t const time_27_xpm[] = {
"120 68 24 1",
" 	c None",
".	c #000000",
"+	c #FEFEFE",
"@	c #DEDEDE",
"#	c #FFFFFF",
"$	c #DFDFDF",
"%	c #C1C1C1",
"&	c #797979",
"*	c #F6F6F6",
"=	c #D3D3D3",
"-	c #B8B8B8",
";	c #9B9B9B",
">	c #727272",
",	c #BABABA",
"'	c #9E9E9E",
")	c #D6D6D6",
"!	c #AAAAAA",
"~	c #E8E8E8",
"{	c #CBCBCB",
"]	c #999999",
"^	c #676767",
"/	c #DCDCDC",
"(	c #747474",
"_	c #656565",
"                                                                                                                        ",
"                                                        .............................................                   ",
"                                                       ..............................................                   ",
"                                                       ..............................................                   ",
"                                                       ..............................................                   ",
"      ................................                 ..............................................                   ",
"      ................................                 ..............................................                   ",
"      ................................                 ......++++++++++++++++++++++++++++++++++@...........             ",
"      ................................                 ......##################################$...........             ",
"      ................................                 ......##################################$...........             ",
"      ................................                 ......##################################$...........             ",
"...........#####################%..........            ......##################################$...........             ",
"...........#####################%..........            ......##################################$...........             ",
"...........#####################%..........            ......##################################$...........             ",
"...........#####################%..........            ......##################################$...........             ",
"...........#####################%..........            ......##################################$...........             ",
".....&################################...........      ......##################################$...........             ",
".....&################################...........      ......##################################$...........             ",
".....&################################...........      ......***********************###########$...........             ",
".....&################################...........      .............................###########$...........             ",
".....&################################...........      .............................###########$...........             ",
".....&##########=----------###########...........      .............................###########$...........             ",
".....&##########;..........###########...........      .............................###########$...........             ",
".....&##########;..........###########...........      .............................###########$...........             ",
".....&##########;..........###########...........       ................>,,,,,,,,,,,###########$...........             ",
".....&##########;..........###########...........            ...........'######################$...........             ",
".....&##########;..........###########...........            ...........'######################$...........             ",
".....&##########;.....################...........            ...........'######################$...........             ",
".....&##########;.....################...........            ...........'######################$...........             ",
".....&##########;.....################...........            ...........'######################$...........             ",
".....&##########;.....################...........                  .....'######################$...........             ",
".....&##########;.....################...........                  .....'######################$...........             ",
"................)###############%................                  .....'######################$...........             ",
"................)###############%................                  .....'######################$...........             ",
"................)###############%................                  .....'######################$...........             ",
"................)###############%................                  .....'######################$...........             ",
"................)###############%................                  .................###########$...........             ",
"...........!!!!!~##########{{{{{]................                  .................###########$...........             ",
"...........################......................                  .................###########$...........             ",
"...........################......................                  .................###########$...........             ",
"...........################......................                  .................###########$...........             ",
"...........################......................                  .................###########$...........             ",
"...........################......................                        ...........###########$...........             ",
".....&################################...........                        ...........###########$...........             ",
".....&################################...........                        ...........###########$...........             ",
".....&################################...........                        ...........###########$...........             ",
".....&################################...........                        ...........###########$...........             ",
".....&################################...........                        ...........###########$...........             ",
".....&################################...........                             ......###########$...........             ",
".....&################################...........                             ......###########$...........             ",
".....&################################...........                             ......###########$...........             ",
".....&################################...........                             ......###########$...........             ",
".....&################################...........                             ......###########$...........             ",
".....^////////////////////////////////...........                             ......(((((((((((_...........             ",
".................................................                             .............................             ",
".................................................                             .............................             ",
".................................................                             .............................             ",
".................................................                             .............................             ",
".................................................                             .............................             ",
"      ...........................................                                         .................             ",
"      ...........................................                                         .................             ",
"      ...........................................                                         .................             ",
"      ...........................................                                         .................             ",
"      ...........................................                                         .................             ",
"                                                                                          .................             ",
"                                                                                                                        ",
"                                                                                                                        ",
"                                                                                                                        "};
