/* XPM */
static xpm_row_t const time_57_xpm[] = {
"120 68 23 1",
" 	c None",
".	c #000000",
"+	c #FEFEFE",
"@	c #DEDEDE",
"#	c #B5B5B5",
"$	c #FFFFFF",
"%	c #D7D7D7",
"&	c #DFDFDF",
"*	c #F6F6F6",
"=	c #939393",
"-	c #7B7B7B",
";	c #727272",
">	c #BABABA",
",	c #9E9E9E",
"'	c #4D4D4D",
")	c #404040",
"!	c #A2A2A2",
"~	c #FCFCFC",
"{	c #FAFAFA",
"]	c #7C7C7C",
"^	c #B0B0B0",
"/	c #747474",
"(	c #656565",
"                                                                                                                        ",
"                                                                                                                        ",
"                                                                                                                        ",
"                                                         .............................................                  ",
".............................................           ..............................................                  ",
".............................................           ..............................................                  ",
".............................................           ..............................................                  ",
".............................................           ..............................................                  ",
".............................................           ..............................................                  ",
".............................................           ......++++++++++++++++++++++++++++++++++@...........            ",
".....#$$$$$$$$$$$$$$$$$$$$$$$$$$$$$$$$$%...........     ......$$$$$$$$$$$$$$$$$$$$$$$$$$$$$$$$$$&...........            ",
".....#$$$$$$$$$$$$$$$$$$$$$$$$$$$$$$$$$%...........     ......$$$$$$$$$$$$$$$$$$$$$$$$$$$$$$$$$$&...........            ",
".....#$$$$$$$$$$$$$$$$$$$$$$$$$$$$$$$$$%...........     ......$$$$$$$$$$$$$$$$$$$$$$$$$$$$$$$$$$&...........            ",
".....#$$$$$$$$$$$$$$$$$$$$$$$$$$$$$$$$$%...........     ......$$$$$$$$$$$$$$$$$$$$$$$$$$$$$$$$$$&...........            ",
".....#$$$$$$$$$$$$$$$$$$$$$$$$$$$$$$$$$%...........     ......$$$$$$$$$$$$$$$$$$$$$$$$$$$$$$$$$$&...........            ",
".....#$$$$$$$$$$$$$$$$$$$$$$$$$$$$$$$$$%...........     ......$$$$$$$$$$$$$$$$$$$$$$$$$$$$$$$$$$&...........            ",
".....#$$$$$$$$$$$$$$$$$$$$$$$$$$$$$$$$$%...........     ......$$$$$$$$$$$$$$$$$$$$$$$$$$$$$$$$$$&...........            ",
".....#$$$$$$$$$$$$$$$$$$$$$$$$$$$$$$$$$%...........     ......$$$$$$$$$$$$$$$$$$$$$$$$$$$$$$$$$$&...........            ",
".....#$$$$$$$$$$$$$$$$$$$$$$$$$$$$$$$$$%...........     ......$$$$$$$$$$$$$$$$$$$$$$$$$$$$$$$$$$&...........            ",
".....#$$$$$$$$$$$$$$$$$$$$$$$$$$$$$$$$$%...........     ......$$$$$$$$$$$$$$$$$$$$$$$$$$$$$$$$$$&...........            ",
".....#$$$$$$$$$$$$$$$$$$$$$$$$$$$$$$$$$%...........     ......***********************$$$$$$$$$$$&...........            ",
".....#$$$$$$$$$$$======================-...........     .............................$$$$$$$$$$$&...........            ",
".....#$$$$$$$$$$$..................................     .............................$$$$$$$$$$$&...........            ",
".....#$$$$$$$$$$$..................................     .............................$$$$$$$$$$$&...........            ",
".....#$$$$$$$$$$$..................................     .............................$$$$$$$$$$$&...........            ",
".....#$$$$$$$$$$$..................................     .............................$$$$$$$$$$$&...........            ",
".....#$$$$$$$$$$$..................................      ................;>>>>>>>>>>>$$$$$$$$$$$&...........            ",
".....#$$$$$$$$$$$$$$$$$$$$$$$$$$$$.................           ...........,$$$$$$$$$$$$$$$$$$$$$$&...........            ",
".....#$$$$$$$$$$$$$$$$$$$$$$$$$$$$.................           ...........,$$$$$$$$$$$$$$$$$$$$$$&...........            ",
".....#$$$$$$$$$$$$$$$$$$$$$$$$$$$$.................           ...........,$$$$$$$$$$$$$$$$$$$$$$&...........            ",
".....#$$$$$$$$$$$$$$$$$$$$$$$$$$$$.................           ...........,$$$$$$$$$$$$$$$$$$$$$$&...........            ",
".....#$$$$$$$$$$$$$$$$$$$$$$$$$$$$.................           ...........,$$$$$$$$$$$$$$$$$$$$$$&...........            ",
".....#$$$$$$$$$$$$$$$$$$$$$$$$$$$$''''')...........                 .....,$$$$$$$$$$$$$$$$$$$$$$&...........            ",
".....#$$$$$$$$$$$$$$$$$$$$$$$$$$$$$$$$$%...........                 .....,$$$$$$$$$$$$$$$$$$$$$$&...........            ",
".....#$$$$$$$$$$$$$$$$$$$$$$$$$$$$$$$$$%...........                 .....,$$$$$$$$$$$$$$$$$$$$$$&...........            ",
".....#$$$$$$$$$$$$$$$$$$$$$$$$$$$$$$$$$%...........                 .....,$$$$$$$$$$$$$$$$$$$$$$&...........            ",
".....#$$$$$$$$$$$$$$$$$$$$$$$$$$$$$$$$$%...........                 .....,$$$$$$$$$$$$$$$$$$$$$$&...........            ",
".....#$$$$$$$$$$$$$$$$$$$$$$$$$$$$$$$$$%...........                 .....,$$$$$$$$$$$$$$$$$$$$$$&...........            ",
".....;!!!!!!!!!!!!!!!!!!!!!!~$$$$$$$$$$%...........                 .................$$$$$$$$$$$&...........            ",
"............................{$$$$$$$$$$%...........                 .................$$$$$$$$$$$&...........            ",
"............................{$$$$$$$$$$%...........                 .................$$$$$$$$$$$&...........            ",
"............................{$$$$$$$$$$%...........                 .................$$$$$$$$$$$&...........            ",
"............................{$$$$$$$$$$%...........                 .................$$$$$$$$$$$&...........            ",
"............................{$$$$$$$$$$%...........                 .................$$$$$$$$$$$&...........            ",
".....#$$$$$$$$$$$$$$$$$$$$$$$$$$$$$$$$$%...........                       ...........$$$$$$$$$$$&...........            ",
".....#$$$$$$$$$$$$$$$$$$$$$$$$$$$$$$$$$%...........                       ...........$$$$$$$$$$$&...........            ",
".....#$$$$$$$$$$$$$$$$$$$$$$$$$$$$$$$$$%...........                       ...........$$$$$$$$$$$&...........            ",
".....#$$$$$$$$$$$$$$$$$$$$$$$$$$$$$$$$$%...........                       ...........$$$$$$$$$$$&...........            ",
".....#$$$$$$$$$$$$$$$$$$$$$$$$$$$$$$$$$%...........                       ...........$$$$$$$$$$$&...........            ",
".....#$$$$$$$$$$$$$$$$$$$$$$$$$$$$$$$$$%...........                       ...........$$$$$$$$$$$&...........            ",
".....#$$$$$$$$$$$$$$$$$$$$$$$$$$$$.................                            ......$$$$$$$$$$$&...........            ",
".....#$$$$$$$$$$$$$$$$$$$$$$$$$$$$.................                            ......$$$$$$$$$$$&...........            ",
".....#$$$$$$$$$$$$$$$$$$$$$$$$$$$$.................                            ......$$$$$$$$$$$&...........            ",
".....#$$$$$$$$$$$$$$$$$$$$$$$$$$$$.................                            ......$$$$$$$$$$$&...........            ",
".....#$$$$$$$$$$$$$$$$$$$$$$$$$$$$.................                            ......$$$$$$$$$$$&...........            ",
".....]^^^^^^^^^^^^^^^^^^^^^^^^^^^^.................                            ......///////////(...........            ",
"...................................................                            .............................            ",
"...................................................                            .............................            ",
"...................................................                            .............................            ",
"...................................................                            .............................            ",
"...................................................                            .............................            ",
"      .......................................                                              .................            ",
"      .......................................                                              .................            ",
"      .......................................                                              .................            ",
"      .......................................                                              .................            ",
"      .......................................                                              .................            ",
"                                                                                           .................            ",
"                                                                                                                        "};
