/* XPM */
static xpm_row_t const time_47_xpm[] = {
"120 68 23 1",
" 	c None",
".	c #000000",
"+	c #171717",
"@	c #7C7C7C",
"#	c #1D1D1D",
"$	c #565656",
"%	c #FEFEFE",
"&	c #DEDEDE",
"*	c #3B3B3B",
"=	c #FFFFFF",
"-	c #454545",
";	c #B4B4B4",
">	c #DFDFDF",
",	c #F6F6F6",
"'	c #727272",
")	c #BABABA",
"!	c #9E9E9E",
"~	c #2E2E2E",
"{	c #D1D1D1",
"]	c #E7E7E7",
"^	c #111111",
"/	c #747474",
"(	c #656565",
"                                                                                                                        ",
"                                                                                                                        ",
"                                                        .............................................                   ",
"........................................               ..............................................                   ",
"........................................               ..............................................                   ",
"........................................               ..............................................                   ",
"........................................               ..............................................                   ",
"........................................               ..............................................                   ",
".....+@@@@@@@@@@@#.....@@@@@@@@@@@$.....               ......%%%%%%%%%%%%%%%%%%%%%%%%%%%%%%%%%%&...........             ",
".....*===========-.....===========;.....               ......==================================>...........             ",
".....*===========-.....===========;.....               ......==================================>...........             ",
".....*===========-.....===========;.....               ......==================================>...........             ",
".....*===========-.....===========;.....               ......==================================>...........             ",
".....*===========-.....===========;.....               ......==================================>...........             ",
".....*===========-.....===========;.....               ......==================================>...........             ",
".....*===========-.....===========;.....               ......==================================>...........             ",
".....*===========-.....===========;.....               ......==================================>...........             ",
".....*===========-.....===========;.....               ......==================================>...........             ",
".....*===========-.....===========;.....               ......==================================>...........             ",
".....*===========-.....===========;.....               ......,,,,,,,,,,,,,,,,,,,,,,,===========>...........             ",
".....*===========-.....===========;...........         .............................===========>...........             ",
".....*===========-.....===========;...........         .............................===========>...........             ",
".....*===========-.....===========;...........         .............................===========>...........             ",
".....*===========-.....===========;...........         .............................===========>...........             ",
".....*===========-.....===========;...........         .............................===========>...........             ",
".....*===========-.....===========;...........          ................')))))))))))===========>...........             ",
".....*==================================+...........         ...........!======================>...........             ",
".....*==================================+...........         ...........!======================>...........             ",
".....*==================================+...........         ...........!======================>...........             ",
".....*==================================+...........         ...........!======================>...........             ",
".....*==================================+...........         ...........!======================>...........             ",
".....*==================================+...........               .....!======================>...........             ",
".....*==================================+...........               .....!======================>...........             ",
".....*==================================+...........               .....!======================>...........             ",
".....*==================================+...........               .....!======================>...........             ",
".....*==================================+...........               .....!======================>...........             ",
".....*==================================+...........               .....!======================>...........             ",
".....~{{{{{{{{{{{{{{{{{===========]{{{{{^...........               .................===========>...........             ",
".......................===========;.................               .................===========>...........             ",
".......................===========;.................               .................===========>...........             ",
".......................===========;.................               .................===========>...........             ",
".......................===========;.................               .................===========>...........             ",
".......................===========;.................               .................===========>...........             ",
"      .................===========;.................                     ...........===========>...........             ",
"      .................===========;.................                     ...........===========>...........             ",
"      .................===========;.................                     ...........===========>...........             ",
"      .................===========;.................                     ...........===========>...........             ",
"      .................===========;.................                     ...........===========>...........             ",
"      .................===========;.................                     ...........===========>...........             ",
"            ...........===========;.....                                      ......===========>...........             ",
"            ...........===========;.....                                      ......===========>...........             ",
"            ...........===========;.....                                      ......===========>...........             ",
"            ...........===========;.....                                      ......===========>...........             ",
"            ...........===========;.....                                      ......===========>...........             ",
"            ...........===========;.....                                      ......///////////(...........             ",
"            ............................                                      .............................             ",
"            ............................                                      .............................             ",
"            ............................                                      .............................             ",
"            ............................                                      .............................             ",
"            ............................                                      .............................             ",
"            ............................                                                  .................             ",
"                 .......................                                                  .................             ",
"                 .......................                                                  .................             ",
"                 .......................                                                  .................             ",
"                 .......................                                                  .................             ",
"                 .......................                                                  .................             ",
"                                                                                                                        ",
"                                                                                                                        "};
