/* XPM */
static xpm_row_t const time_55_xpm[] = {
"120 68 15 1",
" 	c None",
".	c #000000",
"+	c #B5B5B5",
"@	c #FFFFFF",
"#	c #D7D7D7",
"$	c #939393",
"%	c #7B7B7B",
"&	c #4D4D4D",
"*	c #404040",
"=	c #727272",
"-	c #A2A2A2",
";	c #FCFCFC",
">	c #FAFAFA",
",	c #7C7C7C",
"'	c #B0B0B0",
"                                                                                                                        ",
"                                                                                                                        ",
"                                                                                                                        ",
"                                                                                                                        ",
".............................................             .............................................                 ",
".............................................             .............................................                 ",
".............................................             .............................................                 ",
".............................................             .............................................                 ",
".............................................             .............................................                 ",
".............................................             .............................................                 ",
".....+@@@@@@@@@@@@@@@@@@@@@@@@@@@@@@@@@#...........       .....+@@@@@@@@@@@@@@@@@@@@@@@@@@@@@@@@@#...........           ",
".....+@@@@@@@@@@@@@@@@@@@@@@@@@@@@@@@@@#...........       .....+@@@@@@@@@@@@@@@@@@@@@@@@@@@@@@@@@#...........           ",
".....+@@@@@@@@@@@@@@@@@@@@@@@@@@@@@@@@@#...........       .....+@@@@@@@@@@@@@@@@@@@@@@@@@@@@@@@@@#...........           ",
".....+@@@@@@@@@@@@@@@@@@@@@@@@@@@@@@@@@#...........       .....+@@@@@@@@@@@@@@@@@@@@@@@@@@@@@@@@@#...........           ",
".....+@@@@@@@@@@@@@@@@@@@@@@@@@@@@@@@@@#...........       .....+@@@@@@@@@@@@@@@@@@@@@@@@@@@@@@@@@#...........           ",
".....+@@@@@@@@@@@@@@@@@@@@@@@@@@@@@@@@@#...........       .....+@@@@@@@@@@@@@@@@@@@@@@@@@@@@@@@@@#...........           ",
".....+@@@@@@@@@@@@@@@@@@@@@@@@@@@@@@@@@#...........       .....+@@@@@@@@@@@@@@@@@@@@@@@@@@@@@@@@@#...........           ",
".....+@@@@@@@@@@@@@@@@@@@@@@@@@@@@@@@@@#...........       .....+@@@@@@@@@@@@@@@@@@@@@@@@@@@@@@@@@#...........           ",
".....+@@@@@@@@@@@@@@@@@@@@@@@@@@@@@@@@@#...........       .....+@@@@@@@@@@@@@@@@@@@@@@@@@@@@@@@@@#...........           ",
".....+@@@@@@@@@@@@@@@@@@@@@@@@@@@@@@@@@#...........       .....+@@@@@@@@@@@@@@@@@@@@@@@@@@@@@@@@@#...........           ",
".....+@@@@@@@@@@@@@@@@@@@@@@@@@@@@@@@@@#...........       .....+@@@@@@@@@@@@@@@@@@@@@@@@@@@@@@@@@#...........           ",
".....+@@@@@@@@@@@$$$$$$$$$$$$$$$$$$$$$$%...........       .....+@@@@@@@@@@@$$$$$$$$$$$$$$$$$$$$$$%...........           ",
".....+@@@@@@@@@@@..................................       .....+@@@@@@@@@@@..................................           ",
".....+@@@@@@@@@@@..................................       .....+@@@@@@@@@@@..................................           ",
".....+@@@@@@@@@@@..................................       .....+@@@@@@@@@@@..................................           ",
".....+@@@@@@@@@@@..................................       .....+@@@@@@@@@@@..................................           ",
".....+@@@@@@@@@@@..................................       .....+@@@@@@@@@@@..................................           ",
".....+@@@@@@@@@@@@@@@@@@@@@@@@@@@@.................       .....+@@@@@@@@@@@@@@@@@@@@@@@@@@@@.................           ",
".....+@@@@@@@@@@@@@@@@@@@@@@@@@@@@.................       .....+@@@@@@@@@@@@@@@@@@@@@@@@@@@@.................           ",
".....+@@@@@@@@@@@@@@@@@@@@@@@@@@@@.................       .....+@@@@@@@@@@@@@@@@@@@@@@@@@@@@.................           ",
".....+@@@@@@@@@@@@@@@@@@@@@@@@@@@@.................       .....+@@@@@@@@@@@@@@@@@@@@@@@@@@@@.................           ",
".....+@@@@@@@@@@@@@@@@@@@@@@@@@@@@.................       .....+@@@@@@@@@@@@@@@@@@@@@@@@@@@@.................           ",
".....+@@@@@@@@@@@@@@@@@@@@@@@@@@@@&&&&&*...........       .....+@@@@@@@@@@@@@@@@@@@@@@@@@@@@&&&&&*...........           ",
".....+@@@@@@@@@@@@@@@@@@@@@@@@@@@@@@@@@#...........       .....+@@@@@@@@@@@@@@@@@@@@@@@@@@@@@@@@@#...........           ",
".....+@@@@@@@@@@@@@@@@@@@@@@@@@@@@@@@@@#...........       .....+@@@@@@@@@@@@@@@@@@@@@@@@@@@@@@@@@#...........           ",
".....+@@@@@@@@@@@@@@@@@@@@@@@@@@@@@@@@@#...........       .....+@@@@@@@@@@@@@@@@@@@@@@@@@@@@@@@@@#...........           ",
".....+@@@@@@@@@@@@@@@@@@@@@@@@@@@@@@@@@#...........       .....+@@@@@@@@@@@@@@@@@@@@@@@@@@@@@@@@@#...........           ",
".....+@@@@@@@@@@@@@@@@@@@@@@@@@@@@@@@@@#...........       .....+@@@@@@@@@@@@@@@@@@@@@@@@@@@@@@@@@#...........           ",
".....=----------------------;@@@@@@@@@@#...........       .....=----------------------;@@@@@@@@@@#...........           ",
"............................>@@@@@@@@@@#...........       ............................>@@@@@@@@@@#...........           ",
"............................>@@@@@@@@@@#...........       ............................>@@@@@@@@@@#...........           ",
"............................>@@@@@@@@@@#...........       ............................>@@@@@@@@@@#...........           ",
"............................>@@@@@@@@@@#...........       ............................>@@@@@@@@@@#...........           ",
"............................>@@@@@@@@@@#...........       ............................>@@@@@@@@@@#...........           ",
".....+@@@@@@@@@@@@@@@@@@@@@@@@@@@@@@@@@#...........       .....+@@@@@@@@@@@@@@@@@@@@@@@@@@@@@@@@@#...........           ",
".....+@@@@@@@@@@@@@@@@@@@@@@@@@@@@@@@@@#...........       .....+@@@@@@@@@@@@@@@@@@@@@@@@@@@@@@@@@#...........           ",
".....+@@@@@@@@@@@@@@@@@@@@@@@@@@@@@@@@@#...........       .....+@@@@@@@@@@@@@@@@@@@@@@@@@@@@@@@@@#...........           ",
".....+@@@@@@@@@@@@@@@@@@@@@@@@@@@@@@@@@#...........       .....+@@@@@@@@@@@@@@@@@@@@@@@@@@@@@@@@@#...........           ",
".....+@@@@@@@@@@@@@@@@@@@@@@@@@@@@@@@@@#...........       .....+@@@@@@@@@@@@@@@@@@@@@@@@@@@@@@@@@#...........           ",
".....+@@@@@@@@@@@@@@@@@@@@@@@@@@@@@@@@@#...........       .....+@@@@@@@@@@@@@@@@@@@@@@@@@@@@@@@@@#...........           ",
".....+@@@@@@@@@@@@@@@@@@@@@@@@@@@@.................       .....+@@@@@@@@@@@@@@@@@@@@@@@@@@@@.................           ",
".....+@@@@@@@@@@@@@@@@@@@@@@@@@@@@.................       .....+@@@@@@@@@@@@@@@@@@@@@@@@@@@@.................           ",
".....+@@@@@@@@@@@@@@@@@@@@@@@@@@@@.................       .....+@@@@@@@@@@@@@@@@@@@@@@@@@@@@.................           ",
".....+@@@@@@@@@@@@@@@@@@@@@@@@@@@@.................       .....+@@@@@@@@@@@@@@@@@@@@@@@@@@@@.................           ",
".....+@@@@@@@@@@@@@@@@@@@@@@@@@@@@.................       .....+@@@@@@@@@@@@@@@@@@@@@@@@@@@@.................           ",
".....,''''''''''''''''''''''''''''.................       .....,''''''''''''''''''''''''''''.................           ",
"...................................................       ...................................................           ",
"...................................................       ...................................................           ",
"...................................................       ...................................................           ",
"...................................................       ...................................................           ",
"...................................................       ...................................................           ",
"      .......................................                   .......................................                 ",
"      .......................................                   .......................................                 ",
"      .......................................                   .......................................                 ",
"      .......................................                   .......................................                 ",
"      .......................................                   .......................................                 ",
"                                                                                                                        ",
"                                                                                                                        "};
