/* XPM */
static xpm_row_t const time_54_xpm[] = {
"120 68 25 1",
" 	c None",
".	c #000000",
"+	c #171717",
"@	c #7C7C7C",
"#	c #1D1D1D",
"$	c #565656",
"%	c #B5B5B5",
"&	c #FFFFFF",
"*	c #D7D7D7",
"=	c #3B3B3B",
"-	c #454545",
";	c #B4B4B4",
">	c #939393",
",	c #7B7B7B",
"'	c #4D4D4D",
")	c #404040",
"!	c #727272",
"~	c #A2A2A2",
"{	c #FCFCFC",
"]	c #2E2E2E",
"^	c #D1D1D1",
"/	c #E7E7E7",
"(	c #111111",
"_	c #FAFAFA",
":	c #B0B0B0",
"                                                                                                                        ",
"                                                                                                                        ",
"                                                                                                                        ",
"                                                                                                                        ",
".............................................            ........................................                       ",
".............................................            ........................................                       ",
".............................................            ........................................                       ",
".............................................            ........................................                       ",
".............................................            ........................................                       ",
".............................................            .....+@@@@@@@@@@@#.....@@@@@@@@@@@$.....                       ",
".....%&&&&&&&&&&&&&&&&&&&&&&&&&&&&&&&&&*...........      .....=&&&&&&&&&&&-.....&&&&&&&&&&&;.....                       ",
".....%&&&&&&&&&&&&&&&&&&&&&&&&&&&&&&&&&*...........      .....=&&&&&&&&&&&-.....&&&&&&&&&&&;.....                       ",
".....%&&&&&&&&&&&&&&&&&&&&&&&&&&&&&&&&&*...........      .....=&&&&&&&&&&&-.....&&&&&&&&&&&;.....                       ",
".....%&&&&&&&&&&&&&&&&&&&&&&&&&&&&&&&&&*...........      .....=&&&&&&&&&&&-.....&&&&&&&&&&&;.....                       ",
".....%&&&&&&&&&&&&&&&&&&&&&&&&&&&&&&&&&*...........      .....=&&&&&&&&&&&-.....&&&&&&&&&&&;.....                       ",
".....%&&&&&&&&&&&&&&&&&&&&&&&&&&&&&&&&&*...........      .....=&&&&&&&&&&&-.....&&&&&&&&&&&;.....                       ",
".....%&&&&&&&&&&&&&&&&&&&&&&&&&&&&&&&&&*...........      .....=&&&&&&&&&&&-.....&&&&&&&&&&&;.....                       ",
".....%&&&&&&&&&&&&&&&&&&&&&&&&&&&&&&&&&*...........      .....=&&&&&&&&&&&-.....&&&&&&&&&&&;.....                       ",
".....%&&&&&&&&&&&&&&&&&&&&&&&&&&&&&&&&&*...........      .....=&&&&&&&&&&&-.....&&&&&&&&&&&;.....                       ",
".....%&&&&&&&&&&&&&&&&&&&&&&&&&&&&&&&&&*...........      .....=&&&&&&&&&&&-.....&&&&&&&&&&&;.....                       ",
".....%&&&&&&&&&&&&&&&&&&&&&&&&&&&&&&&&&*...........      .....=&&&&&&&&&&&-.....&&&&&&&&&&&;.....                       ",
".....%&&&&&&&&&&&>>>>>>>>>>>>>>>>>>>>>>,...........      .....=&&&&&&&&&&&-.....&&&&&&&&&&&;...........                 ",
".....%&&&&&&&&&&&..................................      .....=&&&&&&&&&&&-.....&&&&&&&&&&&;...........                 ",
".....%&&&&&&&&&&&..................................      .....=&&&&&&&&&&&-.....&&&&&&&&&&&;...........                 ",
".....%&&&&&&&&&&&..................................      .....=&&&&&&&&&&&-.....&&&&&&&&&&&;...........                 ",
".....%&&&&&&&&&&&..................................      .....=&&&&&&&&&&&-.....&&&&&&&&&&&;...........                 ",
".....%&&&&&&&&&&&..................................      .....=&&&&&&&&&&&-.....&&&&&&&&&&&;...........                 ",
".....%&&&&&&&&&&&&&&&&&&&&&&&&&&&&.................      .....=&&&&&&&&&&&&&&&&&&&&&&&&&&&&&&&&&&+...........           ",
".....%&&&&&&&&&&&&&&&&&&&&&&&&&&&&.................      .....=&&&&&&&&&&&&&&&&&&&&&&&&&&&&&&&&&&+...........           ",
".....%&&&&&&&&&&&&&&&&&&&&&&&&&&&&.................      .....=&&&&&&&&&&&&&&&&&&&&&&&&&&&&&&&&&&+...........           ",
".....%&&&&&&&&&&&&&&&&&&&&&&&&&&&&.................      .....=&&&&&&&&&&&&&&&&&&&&&&&&&&&&&&&&&&+...........           ",
".....%&&&&&&&&&&&&&&&&&&&&&&&&&&&&.................      .....=&&&&&&&&&&&&&&&&&&&&&&&&&&&&&&&&&&+...........           ",
".....%&&&&&&&&&&&&&&&&&&&&&&&&&&&&''''')...........      .....=&&&&&&&&&&&&&&&&&&&&&&&&&&&&&&&&&&+...........           ",
".....%&&&&&&&&&&&&&&&&&&&&&&&&&&&&&&&&&*...........      .....=&&&&&&&&&&&&&&&&&&&&&&&&&&&&&&&&&&+...........           ",
".....%&&&&&&&&&&&&&&&&&&&&&&&&&&&&&&&&&*...........      .....=&&&&&&&&&&&&&&&&&&&&&&&&&&&&&&&&&&+...........           ",
".....%&&&&&&&&&&&&&&&&&&&&&&&&&&&&&&&&&*...........      .....=&&&&&&&&&&&&&&&&&&&&&&&&&&&&&&&&&&+...........           ",
".....%&&&&&&&&&&&&&&&&&&&&&&&&&&&&&&&&&*...........      .....=&&&&&&&&&&&&&&&&&&&&&&&&&&&&&&&&&&+...........           ",
".....%&&&&&&&&&&&&&&&&&&&&&&&&&&&&&&&&&*...........      .....=&&&&&&&&&&&&&&&&&&&&&&&&&&&&&&&&&&+...........           ",
".....!~~~~~~~~~~~~~~~~~~~~~~{&&&&&&&&&&*...........      .....]^^^^^^^^^^^^^^^^^&&&&&&&&&&&/^^^^^(...........           ",
"............................_&&&&&&&&&&*...........      .......................&&&&&&&&&&&;.................           ",
"............................_&&&&&&&&&&*...........      .......................&&&&&&&&&&&;.................           ",
"............................_&&&&&&&&&&*...........      .......................&&&&&&&&&&&;.................           ",
"............................_&&&&&&&&&&*...........      .......................&&&&&&&&&&&;.................           ",
"............................_&&&&&&&&&&*...........      .......................&&&&&&&&&&&;.................           ",
".....%&&&&&&&&&&&&&&&&&&&&&&&&&&&&&&&&&*...........            .................&&&&&&&&&&&;.................           ",
".....%&&&&&&&&&&&&&&&&&&&&&&&&&&&&&&&&&*...........            .................&&&&&&&&&&&;.................           ",
".....%&&&&&&&&&&&&&&&&&&&&&&&&&&&&&&&&&*...........            .................&&&&&&&&&&&;.................           ",
".....%&&&&&&&&&&&&&&&&&&&&&&&&&&&&&&&&&*...........            .................&&&&&&&&&&&;.................           ",
".....%&&&&&&&&&&&&&&&&&&&&&&&&&&&&&&&&&*...........            .................&&&&&&&&&&&;.................           ",
".....%&&&&&&&&&&&&&&&&&&&&&&&&&&&&&&&&&*...........            .................&&&&&&&&&&&;.................           ",
".....%&&&&&&&&&&&&&&&&&&&&&&&&&&&&.................                  ...........&&&&&&&&&&&;.....                       ",
".....%&&&&&&&&&&&&&&&&&&&&&&&&&&&&.................                  ...........&&&&&&&&&&&;.....                       ",
".....%&&&&&&&&&&&&&&&&&&&&&&&&&&&&.................                  ...........&&&&&&&&&&&;.....                       ",
".....%&&&&&&&&&&&&&&&&&&&&&&&&&&&&.................                  ...........&&&&&&&&&&&;.....                       ",
".....%&&&&&&&&&&&&&&&&&&&&&&&&&&&&.................                  ...........&&&&&&&&&&&;.....                       ",
".....@::::::::::::::::::::::::::::.................                  ...........&&&&&&&&&&&;.....                       ",
"...................................................                  ............................                       ",
"...................................................                  ............................                       ",
"...................................................                  ............................                       ",
"...................................................                  ............................                       ",
"...................................................                  ............................                       ",
"      .......................................                        ............................                       ",
"      .......................................                             .......................                       ",
"      .......................................                             .......................                       ",
"      .......................................                             .......................                       ",
"      .......................................                             .......................                       ",
"                                                                          .......................                       ",
"                                                                                                                        "};
