/* XPM */
static xpm_row_t const time_10_xpm[] = {
"120 68 27 1",
" 	c None",
".	c #000000",
"+	c #CDCDCD",
"@	c #888888",
"#	c #494949",
"$	c #FFFFFF",
"%	c #AAAAAA",
"&	c #717171",
"*	c #818181",
"=	c #474747",
"-	c #F1F1F1",
";	c #A6A6A6",
">	c #5B5B5B",
",	c #0B0B0B",
"'	c #E2E2E2",
")	c #595959",
"!	c #161616",
"~	c #7A7A7A",
"{	c #BEBEBE",
"]	c #E0E0E0",
"^	c #DCDCDC",
"/	c #F7F7F7",
"(	c #3A3A3A",
"_	c #383838",
":	c #F9F9F9",
"<	c #2F2F2F",
"[	c #AFAFAF",
"                                                                                                                        ",
"                                                                                                                        ",
"                                                                                                                        ",
"                                                                                                                        ",
"           ............................                      .................................                          ",
"           ............................                      .................................                          ",
"           ............................                      .................................                          ",
"           ............................                      .................................                          ",
"           ............................                      .................................                          ",
"      ...........++++++++++++++++@..........            ..........#$$$$$$$$$$$$$$$$$$$$$$...........                    ",
"      ...........$$$$$$$$$$$$$$$$%...........           ..........#$$$$$$$$$$$$$$$$$$$$$$...........                    ",
"      ...........$$$$$$$$$$$$$$$$%...........           ..........#$$$$$$$$$$$$$$$$$$$$$$...........                    ",
"      ...........$$$$$$$$$$$$$$$$%...........           ..........#$$$$$$$$$$$$$$$$$$$$$$...........                    ",
"      ...........$$$$$$$$$$$$$$$$%...........           ..........#$$$$$$$$$$$$$$$$$$$$$$...........                    ",
"      ...........$$$$$$$$$$$$$$$$%...........           .....&&&&&*$$$$$$$$$$$$$$$$$$$$$$&&&&&=.....                    ",
"      .....-$$$$$$$$$$$$$$$$$$$$$%...........           .....$$$$$$$$$$$$$$$$$$$$$$$$$$$$$$$$$;...........              ",
"      .....-$$$$$$$$$$$$$$$$$$$$$%...........           .....$$$$$$$$$$$$$$$$$$$$$$$$$$$$$$$$$;...........              ",
"      .....-$$$$$$$$$$$$$$$$$$$$$%...........           .....$$$$$$$$$$$$$$$$$$$$$$$$$$$$$$$$$;...........              ",
"      .....-$$$$$$$$$$$$$$$$$$$$$%...........           .....$$$$$$$$$$$$$$$$$$$$$$$$$$$$$$$$$;...........              ",
"      .....-$$$$$$$$$$$$$$$$$$$$$%...........           .....$$$$$$$$$$$$$$$$$$$$$$$$$$$$$$$$$;...........              ",
"      .....-$$$$$$$$$$$$$$$$$$$$$%...........           .....$$$$$$$$$$$>,,,,,,,,,,'$$$$$$$$$$;...........              ",
"      .....-$$$$$$$$$$$$$$$$$$$$$%...........           .....$$$$$$$$$$$)..........'$$$$$$$$$$;...........              ",
"      .....-$$$$$$$$$$$$$$$$$$$$$%...........           .....$$$$$$$$$$$)..........'$$$$$$$$$$;...........              ",
"      .....-$$$$$$$$$$$$$$$$$$$$$%...........           .....$$$$$$$$$$$)..........'$$$$$$$$$$;...........              ",
"      .....-$$$$$$$$$$$$$$$$$$$$$%...........           .....$$$$$$$$$$$)..........'$$$$$$$$$$;...........              ",
"      .....-$$$$$$$$$$$$$$$$$$$$$%...........           .....$$$$$$$$$$$)..........'$$$$$$$$$$;...........              ",
"      ...........$$$$$$$$$$$$$$$$%...........           .....$$$$$$$$$$$)..........'$$$$$$$$$$;...........              ",
"      ...........$$$$$$$$$$$$$$$$%...........           .....$$$$$$$$$$$)..........'$$$$$$$$$$;...........              ",
"      ...........$$$$$$$$$$$$$$$$%...........           .....$$$$$$$$$$$)..........'$$$$$$$$$$;...........              ",
"      ...........$$$$$$$$$$$$$$$$%...........           .....$$$$$$$$$$$)..........'$$$$$$$$$$;...........              ",
"      ...........$$$$$$$$$$$$$$$$%...........           .....$$$$$$$$$$$)..........'$$$$$$$$$$;...........              ",
"      ...........$$$$$$$$$$$$$$$$%...........           .....$$$$$$$$$$$)..........'$$$$$$$$$$;...........              ",
"           ......$$$$$$$$$$$$$$$$%...........           .....$$$$$$$$$$$)..........'$$$$$$$$$$;...........              ",
"           ......$$$$$$$$$$$$$$$$%...........           .....$$$$$$$$$$$)..........'$$$$$$$$$$;...........              ",
"           ......$$$$$$$$$$$$$$$$%...........           .....$$$$$$$$$$$)..........'$$$$$$$$$$;...........              ",
"           ......$$$$$$$$$$$$$$$$%...........           .....$$$$$$$$$$$)..........'$$$$$$$$$$;...........              ",
"           ......$$$$$$$$$$$$$$$$%...........           .....$$$$$$$$$$$)..........'$$$$$$$$$$;...........              ",
".................$$$$$$$$$$$$$$$$%................      .....$$$$$$$$$$$)..........'$$$$$$$$$$;...........              ",
".................$$$$$$$$$$$$$$$$%................      .....$$$$$$$$$$$)..........'$$$$$$$$$$;...........              ",
".................$$$$$$$$$$$$$$$$%................      .....$$$$$$$$$$$)..........'$$$$$$$$$$;...........              ",
".................$$$$$$$$$$$$$$$$%................      .....$$$$$$$$$$$)..........'$$$$$$$$$$;...........              ",
".................$$$$$$$$$$$$$$$$%................      .....$$$$$$$$$$$)..........'$$$$$$$$$$;...........              ",
".....!~~~~~~~~~~~$$$$$$$$$$$$$$$${~~~~~...........      .....$$$$$$$$$$$]^^^^^^^^^^/$$$$$$$$$$;...........              ",
".....($$$$$$$$$$$$$$$$$$$$$$$$$$$$$$$$$...........      .....$$$$$$$$$$$$$$$$$$$$$$$$$$$$$$$$$;...........              ",
".....($$$$$$$$$$$$$$$$$$$$$$$$$$$$$$$$$...........      .....$$$$$$$$$$$$$$$$$$$$$$$$$$$$$$$$$;...........              ",
".....($$$$$$$$$$$$$$$$$$$$$$$$$$$$$$$$$...........      .....$$$$$$$$$$$$$$$$$$$$$$$$$$$$$$$$$;...........              ",
".....($$$$$$$$$$$$$$$$$$$$$$$$$$$$$$$$$...........      .....$$$$$$$$$$$$$$$$$$$$$$$$$$$$$$$$$;...........              ",
".....($$$$$$$$$$$$$$$$$$$$$$$$$$$$$$$$$...........      .....$$$$$$$$$$$$$$$$$$$$$$$$$$$$$$$$$;...........              ",
".....($$$$$$$$$$$$$$$$$$$$$$$$$$$$$$$$$...........      ..........#$$$$$$$$$$$$$$$$$$$$$$.................              ",
".....($$$$$$$$$$$$$$$$$$$$$$$$$$$$$$$$$...........      ..........#$$$$$$$$$$$$$$$$$$$$$$.................              ",
".....($$$$$$$$$$$$$$$$$$$$$$$$$$$$$$$$$...........      ..........#$$$$$$$$$$$$$$$$$$$$$$.................              ",
".....($$$$$$$$$$$$$$$$$$$$$$$$$$$$$$$$$...........      ..........#$$$$$$$$$$$$$$$$$$$$$$.................              ",
".....($$$$$$$$$$$$$$$$$$$$$$$$$$$$$$$$$...........      ..........#$$$$$$$$$$$$$$$$$$$$$$.................              ",
"....._:::::::::::::::::::::::::::::::::...........           .....<[[[[[[[[[[[[[[[[[[[[[[.................              ",
"..................................................           .............................................              ",
"..................................................           .............................................              ",
"..................................................           .............................................              ",
"..................................................           .............................................              ",
"..................................................           .............................................              ",
"      ............................................                 .................................                    ",
"      ............................................                 .................................                    ",
"      ............................................                 .................................                    ",
"      ............................................                 .................................                    ",
"      ............................................                 .................................                    ",
"      ............................................                 .................................                    ",
"                                                                                                                        ",
"                                                                                                                        ",
"                                                                                                                        "};
