/* XPM */
static xpm_row_t const time_42_xpm[] = {
"120 68 26 1",
" 	c None",
".	c #000000",
"+	c #171717",
"@	c #7C7C7C",
"#	c #1D1D1D",
"$	c #565656",
"%	c #3B3B3B",
"&	c #FFFFFF",
"*	c #454545",
"=	c #B4B4B4",
"-	c #C1C1C1",
";	c #797979",
">	c #D3D3D3",
",	c #B8B8B8",
"'	c #9B9B9B",
")	c #D6D6D6",
"!	c #2E2E2E",
"~	c #D1D1D1",
"{	c #E7E7E7",
"]	c #111111",
"^	c #AAAAAA",
"/	c #E8E8E8",
"(	c #CBCBCB",
"_	c #999999",
":	c #676767",
"<	c #DCDCDC",
"                                                                                                                        ",
"                                                                                                                        ",
"                                                                                                                        ",
"........................................                                                                                ",
"........................................                                                                                ",
"........................................                      ................................                          ",
"........................................                      ................................                          ",
"........................................                      ................................                          ",
".....+@@@@@@@@@@@#.....@@@@@@@@@@@$.....                      ................................                          ",
".....%&&&&&&&&&&&*.....&&&&&&&&&&&=.....                      ................................                          ",
".....%&&&&&&&&&&&*.....&&&&&&&&&&&=.....                      ................................                          ",
".....%&&&&&&&&&&&*.....&&&&&&&&&&&=.....                ...........&&&&&&&&&&&&&&&&&&&&&-..........                     ",
".....%&&&&&&&&&&&*.....&&&&&&&&&&&=.....                ...........&&&&&&&&&&&&&&&&&&&&&-..........                     ",
".....%&&&&&&&&&&&*.....&&&&&&&&&&&=.....                ...........&&&&&&&&&&&&&&&&&&&&&-..........                     ",
".....%&&&&&&&&&&&*.....&&&&&&&&&&&=.....                ...........&&&&&&&&&&&&&&&&&&&&&-..........                     ",
".....%&&&&&&&&&&&*.....&&&&&&&&&&&=.....                ...........&&&&&&&&&&&&&&&&&&&&&-..........                     ",
".....%&&&&&&&&&&&*.....&&&&&&&&&&&=.....                .....;&&&&&&&&&&&&&&&&&&&&&&&&&&&&&&&&...........               ",
".....%&&&&&&&&&&&*.....&&&&&&&&&&&=.....                .....;&&&&&&&&&&&&&&&&&&&&&&&&&&&&&&&&...........               ",
".....%&&&&&&&&&&&*.....&&&&&&&&&&&=.....                .....;&&&&&&&&&&&&&&&&&&&&&&&&&&&&&&&&...........               ",
".....%&&&&&&&&&&&*.....&&&&&&&&&&&=.....                .....;&&&&&&&&&&&&&&&&&&&&&&&&&&&&&&&&...........               ",
".....%&&&&&&&&&&&*.....&&&&&&&&&&&=...........          .....;&&&&&&&&&&&&&&&&&&&&&&&&&&&&&&&&...........               ",
".....%&&&&&&&&&&&*.....&&&&&&&&&&&=...........          .....;&&&&&&&&&&>,,,,,,,,,,&&&&&&&&&&&...........               ",
".....%&&&&&&&&&&&*.....&&&&&&&&&&&=...........          .....;&&&&&&&&&&'..........&&&&&&&&&&&...........               ",
".....%&&&&&&&&&&&*.....&&&&&&&&&&&=...........          .....;&&&&&&&&&&'..........&&&&&&&&&&&...........               ",
".....%&&&&&&&&&&&*.....&&&&&&&&&&&=...........          .....;&&&&&&&&&&'..........&&&&&&&&&&&...........               ",
".....%&&&&&&&&&&&*.....&&&&&&&&&&&=...........          .....;&&&&&&&&&&'..........&&&&&&&&&&&...........               ",
".....%&&&&&&&&&&&&&&&&&&&&&&&&&&&&&&&&&&+...........    .....;&&&&&&&&&&'..........&&&&&&&&&&&...........               ",
".....%&&&&&&&&&&&&&&&&&&&&&&&&&&&&&&&&&&+...........    .....;&&&&&&&&&&'.....&&&&&&&&&&&&&&&&...........               ",
".....%&&&&&&&&&&&&&&&&&&&&&&&&&&&&&&&&&&+...........    .....;&&&&&&&&&&'.....&&&&&&&&&&&&&&&&...........               ",
".....%&&&&&&&&&&&&&&&&&&&&&&&&&&&&&&&&&&+...........    .....;&&&&&&&&&&'.....&&&&&&&&&&&&&&&&...........               ",
".....%&&&&&&&&&&&&&&&&&&&&&&&&&&&&&&&&&&+...........    .....;&&&&&&&&&&'.....&&&&&&&&&&&&&&&&...........               ",
".....%&&&&&&&&&&&&&&&&&&&&&&&&&&&&&&&&&&+...........    .....;&&&&&&&&&&'.....&&&&&&&&&&&&&&&&...........               ",
".....%&&&&&&&&&&&&&&&&&&&&&&&&&&&&&&&&&&+...........    ................)&&&&&&&&&&&&&&&-................               ",
".....%&&&&&&&&&&&&&&&&&&&&&&&&&&&&&&&&&&+...........    ................)&&&&&&&&&&&&&&&-................               ",
".....%&&&&&&&&&&&&&&&&&&&&&&&&&&&&&&&&&&+...........    ................)&&&&&&&&&&&&&&&-................               ",
".....%&&&&&&&&&&&&&&&&&&&&&&&&&&&&&&&&&&+...........    ................)&&&&&&&&&&&&&&&-................               ",
".....%&&&&&&&&&&&&&&&&&&&&&&&&&&&&&&&&&&+...........    ................)&&&&&&&&&&&&&&&-................               ",
".....!~~~~~~~~~~~~~~~~~&&&&&&&&&&&{~~~~~]...........    ...........^^^^^/&&&&&&&&&&(((((_................               ",
".......................&&&&&&&&&&&=.................    ...........&&&&&&&&&&&&&&&&......................               ",
".......................&&&&&&&&&&&=.................    ...........&&&&&&&&&&&&&&&&......................               ",
".......................&&&&&&&&&&&=.................    ...........&&&&&&&&&&&&&&&&......................               ",
".......................&&&&&&&&&&&=.................    ...........&&&&&&&&&&&&&&&&......................               ",
".......................&&&&&&&&&&&=.................    ...........&&&&&&&&&&&&&&&&......................               ",
"      .................&&&&&&&&&&&=.................    .....;&&&&&&&&&&&&&&&&&&&&&&&&&&&&&&&&...........               ",
"      .................&&&&&&&&&&&=.................    .....;&&&&&&&&&&&&&&&&&&&&&&&&&&&&&&&&...........               ",
"      .................&&&&&&&&&&&=.................    .....;&&&&&&&&&&&&&&&&&&&&&&&&&&&&&&&&...........               ",
"      .................&&&&&&&&&&&=.................    .....;&&&&&&&&&&&&&&&&&&&&&&&&&&&&&&&&...........               ",
"      .................&&&&&&&&&&&=.................    .....;&&&&&&&&&&&&&&&&&&&&&&&&&&&&&&&&...........               ",
"      .................&&&&&&&&&&&=.................    .....;&&&&&&&&&&&&&&&&&&&&&&&&&&&&&&&&...........               ",
"            ...........&&&&&&&&&&&=.....                .....;&&&&&&&&&&&&&&&&&&&&&&&&&&&&&&&&...........               ",
"            ...........&&&&&&&&&&&=.....                .....;&&&&&&&&&&&&&&&&&&&&&&&&&&&&&&&&...........               ",
"            ...........&&&&&&&&&&&=.....                .....;&&&&&&&&&&&&&&&&&&&&&&&&&&&&&&&&...........               ",
"            ...........&&&&&&&&&&&=.....                .....;&&&&&&&&&&&&&&&&&&&&&&&&&&&&&&&&...........               ",
"            ...........&&&&&&&&&&&=.....                .....:<<<<<<<<<<<<<<<<<<<<<<<<<<<<<<<<...........               ",
"            ...........&&&&&&&&&&&=.....                .................................................               ",
"            ............................                .................................................               ",
"            ............................                .................................................               ",
"            ............................                .................................................               ",
"            ............................                .................................................               ",
"            ............................                      ...........................................               ",
"            ............................                      ...........................................               ",
"                 .......................                      ...........................................               ",
"                 .......................                      ...........................................               ",
"                 .......................                      ...........................................               ",
"                 .......................                                                                                ",
"                 .......................                                                                                ",
"                                                                                                                        ",
"                                                                                                                        "};
