/* XPM */
static xpm_row_t const time_13_xpm[] = {
"120 68 28 1",
" 	c None",
".	c #000000",
"+	c #CDCDCD",
"@	c #888888",
"#	c #F9F9F9",
"$	c #FFFFFF",
"%	c #AAAAAA",
"&	c #959595",
"*	c #8F8F8F",
"=	c #F1F1F1",
"-	c #F4F4F4",
";	c #282828",
">	c #292929",
",	c #A8A8A8",
"'	c #A5A5A5",
")	c #D4D4D4",
"!	c #B3B3B3",
"~	c #ABABAB",
"{	c #161616",
"]	c #7A7A7A",
"^	c #BEBEBE",
"/	c #606060",
"(	c #636363",
"_	c #B4B4B4",
":	c #3A3A3A",
"<	c #7B7B7B",
"[	c #767676",
"}	c #383838",
"                                                                                                                        ",
"                                                                                                                        ",
"                                                                                                                        ",
"                                                        .......................................                         ",
"           ............................                 .......................................                         ",
"           ............................                 .......................................                         ",
"           ............................                 .......................................                         ",
"           ............................                 .......................................                         ",
"           ............................                 .......................................                         ",
"      ...........++++++++++++++++@..........            .....#$$$$$$$$$$$$$$$$$$$$$$$$$$$...........                    ",
"      ...........$$$$$$$$$$$$$$$$%...........           .....#$$$$$$$$$$$$$$$$$$$$$$$$$$$...........                    ",
"      ...........$$$$$$$$$$$$$$$$%...........           .....#$$$$$$$$$$$$$$$$$$$$$$$$$$$...........                    ",
"      ...........$$$$$$$$$$$$$$$$%...........           .....#$$$$$$$$$$$$$$$$$$$$$$$$$$$...........                    ",
"      ...........$$$$$$$$$$$$$$$$%...........           .....#$$$$$$$$$$$$$$$$$$$$$$$$$$$...........                    ",
"      ...........$$$$$$$$$$$$$$$$%...........           .....#$$$$$$$$$$$$$$$$$$$$$$$$$$$&&&&&*.....                    ",
"      .....=$$$$$$$$$$$$$$$$$$$$$%...........           .....#$$$$$$$$$$$$$$$$$$$$$$$$$$$$$$$$-...........              ",
"      .....=$$$$$$$$$$$$$$$$$$$$$%...........           .....#$$$$$$$$$$$$$$$$$$$$$$$$$$$$$$$$-...........              ",
"      .....=$$$$$$$$$$$$$$$$$$$$$%...........           .....#$$$$$$$$$$$$$$$$$$$$$$$$$$$$$$$$-...........              ",
"      .....=$$$$$$$$$$$$$$$$$$$$$%...........           .....#$$$$$$$$$$$$$$$$$$$$$$$$$$$$$$$$-...........              ",
"      .....=$$$$$$$$$$$$$$$$$$$$$%...........           .....#$$$$$$$$$$$$$$$$$$$$$$$$$$$$$$$$-...........              ",
"      .....=$$$$$$$$$$$$$$$$$$$$$%...........           .....;>>>>>>>>>>>>>>>>>>>>>,$$$$$$$$$$-...........              ",
"      .....=$$$$$$$$$$$$$$$$$$$$$%...........           ...........................'$$$$$$$$$$-...........              ",
"      .....=$$$$$$$$$$$$$$$$$$$$$%...........           ...........................'$$$$$$$$$$-...........              ",
"      .....=$$$$$$$$$$$$$$$$$$$$$%...........           ...........................'$$$$$$$$$$-...........              ",
"      .....=$$$$$$$$$$$$$$$$$$$$$%...........           ...........................'$$$$$$$$$$-...........              ",
"      .....=$$$$$$$$$$$$$$$$$$$$$%...........           ...........................'$$$$$$$$$$-...........              ",
"      ...........$$$$$$$$$$$$$$$$%...........                ...........)$$$$$$$$$$$$$$$$$$$$$-...........              ",
"      ...........$$$$$$$$$$$$$$$$%...........                ...........)$$$$$$$$$$$$$$$$$$$$$-...........              ",
"      ...........$$$$$$$$$$$$$$$$%...........                ...........)$$$$$$$$$$$$$$$$$$$$$-...........              ",
"      ...........$$$$$$$$$$$$$$$$%...........                ...........)$$$$$$$$$$$$$$$$$$$$$-...........              ",
"      ...........$$$$$$$$$$$$$$$$%...........                ...........)$$$$$$$$$$$$$$$$$$$$$-...........              ",
"      ...........$$$$$$$$$$$$$$$$%...........                      .....)$$$$$$$$$$$$$$$$!!!!!~...........              ",
"           ......$$$$$$$$$$$$$$$$%...........                      .....)$$$$$$$$$$$$$$$$.................              ",
"           ......$$$$$$$$$$$$$$$$%...........                      .....)$$$$$$$$$$$$$$$$.................              ",
"           ......$$$$$$$$$$$$$$$$%...........                      .....)$$$$$$$$$$$$$$$$.................              ",
"           ......$$$$$$$$$$$$$$$$%...........                      .....)$$$$$$$$$$$$$$$$.................              ",
"           ......$$$$$$$$$$$$$$$$%...........                      .....)$$$$$$$$$$$$$$$$.................              ",
".................$$$$$$$$$$$$$$$$%................      ...........................'$$$$$$$$$$-...........              ",
".................$$$$$$$$$$$$$$$$%................      ...........................'$$$$$$$$$$-...........              ",
".................$$$$$$$$$$$$$$$$%................      ...........................'$$$$$$$$$$-...........              ",
".................$$$$$$$$$$$$$$$$%................      ...........................'$$$$$$$$$$-...........              ",
".................$$$$$$$$$$$$$$$$%................      ...........................'$$$$$$$$$$-...........              ",
".....{]]]]]]]]]]]$$$$$$$$$$$$$$$$^]]]]]...........      ...../(((((((((((((((((((((_$$$$$$$$$$-...........              ",
".....:$$$$$$$$$$$$$$$$$$$$$$$$$$$$$$$$$...........      .....#$$$$$$$$$$$$$$$$$$$$$$$$$$$$$$$$-...........              ",
".....:$$$$$$$$$$$$$$$$$$$$$$$$$$$$$$$$$...........      .....#$$$$$$$$$$$$$$$$$$$$$$$$$$$$$$$$-...........              ",
".....:$$$$$$$$$$$$$$$$$$$$$$$$$$$$$$$$$...........      .....#$$$$$$$$$$$$$$$$$$$$$$$$$$$$$$$$-...........              ",
".....:$$$$$$$$$$$$$$$$$$$$$$$$$$$$$$$$$...........      .....#$$$$$$$$$$$$$$$$$$$$$$$$$$$$$$$$-...........              ",
".....:$$$$$$$$$$$$$$$$$$$$$$$$$$$$$$$$$...........      .....#$$$$$$$$$$$$$$$$$$$$$$$$$$$$$$$$-...........              ",
".....:$$$$$$$$$$$$$$$$$$$$$$$$$$$$$$$$$...........      .....#$$$$$$$$$$$$$$$$$$$$$$$$$$$<<<<<[...........              ",
".....:$$$$$$$$$$$$$$$$$$$$$$$$$$$$$$$$$...........      .....#$$$$$$$$$$$$$$$$$$$$$$$$$$$.................              ",
".....:$$$$$$$$$$$$$$$$$$$$$$$$$$$$$$$$$...........      .....#$$$$$$$$$$$$$$$$$$$$$$$$$$$.................              ",
".....:$$$$$$$$$$$$$$$$$$$$$$$$$$$$$$$$$...........      .....#$$$$$$$$$$$$$$$$$$$$$$$$$$$.................              ",
".....:$$$$$$$$$$$$$$$$$$$$$$$$$$$$$$$$$...........      .....#$$$$$$$$$$$$$$$$$$$$$$$$$$$.................              ",
".....}#################################...........      .....#$$$$$$$$$$$$$$$$$$$$$$$$$$$.................              ",
"..................................................      ..................................................              ",
"..................................................      ..................................................              ",
"..................................................      ..................................................              ",
"..................................................      ..................................................              ",
"..................................................      ..................................................              ",
"      ............................................      ..................................................              ",
"      ............................................           .......................................                    ",
"      ............................................           .......................................                    ",
"      ............................................           .......................................                    ",
"      ............................................           .......................................                    ",
"      ............................................           .......................................                    ",
"                                                                                                                        ",
"                                                                                                                        ",
"                                                                                                                        "};
