/* XPM */
static xpm_row_t const time_58_xpm[] = {
"120 68 37 1",
" 	c None",
".	c #000000",
"+	c #5C5C5C",
"@	c #E2E2E2",
"#	c #6A6A6A",
"$	c #B5B5B5",
"%	c #FFFFFF",
"&	c #D7D7D7",
"*	c #696969",
"=	c #797979",
"-	c #ECECEC",
";	c #E5E5E5",
">	c #EBEBEB",
",	c #939393",
"'	c #7B7B7B",
")	c #898989",
"!	c #7C7C7C",
"~	c #757575",
"{	c #EFEFEF",
"]	c #EAEAEA",
"^	c #EEEEEE",
"/	c #9C9C9C",
"(	c #4D4D4D",
"_	c #404040",
":	c #E6E6E6",
"<	c #DDDDDD",
"[	c #727272",
"}	c #A2A2A2",
"|	c #FCFCFC",
"1	c #FAFAFA",
"2	c #F5F5F5",
"3	c #F1F1F1",
"4	c #F4F4F4",
"5	c #565656",
"6	c #D5D5D5",
"7	c #636363",
"8	c #B0B0B0",
"                                                                                                                        ",
"                                                                                                                        ",
"                                                                                                                        ",
"                                                                                                                        ",
".............................................                 ..................................                        ",
".............................................                 ..................................                        ",
".............................................                 ..................................                        ",
".............................................                 ..................................                        ",
".............................................                 ..................................                        ",
".............................................           ...........+@@@@@@@@@@@@@@@@@@@@@@#...........                  ",
".....$%%%%%%%%%%%%%%%%%%%%%%%%%%%%%%%%%&...........     ...........*%%%%%%%%%%%%%%%%%%%%%%=...........                  ",
".....$%%%%%%%%%%%%%%%%%%%%%%%%%%%%%%%%%&...........     ...........*%%%%%%%%%%%%%%%%%%%%%%=...........                  ",
".....$%%%%%%%%%%%%%%%%%%%%%%%%%%%%%%%%%&...........     ...........*%%%%%%%%%%%%%%%%%%%%%%=...........                  ",
".....$%%%%%%%%%%%%%%%%%%%%%%%%%%%%%%%%%&...........     ...........*%%%%%%%%%%%%%%%%%%%%%%=...........                  ",
".....$%%%%%%%%%%%%%%%%%%%%%%%%%%%%%%%%%&...........     ...........*%%%%%%%%%%%%%%%%%%%%%%=...........                  ",
".....$%%%%%%%%%%%%%%%%%%%%%%%%%%%%%%%%%&...........     ......%%%%%%%%%%%%%%%%%%%%%%%%%%%%%%%%%%...........             ",
".....$%%%%%%%%%%%%%%%%%%%%%%%%%%%%%%%%%&...........     ......%%%%%%%%%%%%%%%%%%%%%%%%%%%%%%%%%%...........             ",
".....$%%%%%%%%%%%%%%%%%%%%%%%%%%%%%%%%%&...........     ......%%%%%%%%%%%%%%%%%%%%%%%%%%%%%%%%%%...........             ",
".....$%%%%%%%%%%%%%%%%%%%%%%%%%%%%%%%%%&...........     ......%%%%%%%%%%%%%%%%%%%%%%%%%%%%%%%%%%...........             ",
".....$%%%%%%%%%%%%%%%%%%%%%%%%%%%%%%%%%&...........     ......%%%%%%%%%%%%%%%%%%%%%%%%%%%%%%%%%%...........             ",
".....$%%%%%%%%%%%%%%%%%%%%%%%%%%%%%%%%%&...........     ......%%%%%%%%%%%-;;;;;;;;;;>%%%%%%%%%%%...........             ",
".....$%%%%%%%%%%%,,,,,,,,,,,,,,,,,,,,,,'...........     ......%%%%%%%%%%%)..........!%%%%%%%%%%%...........             ",
".....$%%%%%%%%%%%..................................     ......%%%%%%%%%%%)..........!%%%%%%%%%%%...........             ",
".....$%%%%%%%%%%%..................................     ......%%%%%%%%%%%)..........!%%%%%%%%%%%...........             ",
".....$%%%%%%%%%%%..................................     ......%%%%%%%%%%%)..........!%%%%%%%%%%%...........             ",
".....$%%%%%%%%%%%..................................     ......%%%%%%%%%%%)..........!%%%%%%%%%%%...........             ",
".....$%%%%%%%%%%%..................................     ......~~~~~,%%%%%{]]]]]]]]]]^%%%%%/~~~~~...........             ",
".....$%%%%%%%%%%%%%%%%%%%%%%%%%%%%.................     ...........*%%%%%%%%%%%%%%%%%%%%%%=................             ",
".....$%%%%%%%%%%%%%%%%%%%%%%%%%%%%.................     ...........*%%%%%%%%%%%%%%%%%%%%%%=................             ",
".....$%%%%%%%%%%%%%%%%%%%%%%%%%%%%.................     ...........*%%%%%%%%%%%%%%%%%%%%%%=................             ",
".....$%%%%%%%%%%%%%%%%%%%%%%%%%%%%.................     ...........*%%%%%%%%%%%%%%%%%%%%%%=................             ",
".....$%%%%%%%%%%%%%%%%%%%%%%%%%%%%.................     ...........*%%%%%%%%%%%%%%%%%%%%%%=................             ",
".....$%%%%%%%%%%%%%%%%%%%%%%%%%%%%(((((_...........     ......%%%%%%%%%%%%%%%%%%%%%%%%%%%%%%%%%%...........             ",
".....$%%%%%%%%%%%%%%%%%%%%%%%%%%%%%%%%%&...........     ......%%%%%%%%%%%%%%%%%%%%%%%%%%%%%%%%%%...........             ",
".....$%%%%%%%%%%%%%%%%%%%%%%%%%%%%%%%%%&...........     ......%%%%%%%%%%%%%%%%%%%%%%%%%%%%%%%%%%...........             ",
".....$%%%%%%%%%%%%%%%%%%%%%%%%%%%%%%%%%&...........     ......%%%%%%%%%%%%%%%%%%%%%%%%%%%%%%%%%%...........             ",
".....$%%%%%%%%%%%%%%%%%%%%%%%%%%%%%%%%%&...........     ......%%%%%%%%%%%%%%%%%%%%%%%%%%%%%%%%%%...........             ",
".....$%%%%%%%%%%%%%%%%%%%%%%%%%%%%%%%%%&...........     ......%%%%%%%%%%%:<<<<<<<<<<;%%%%%%%%%%%...........             ",
".....[}}}}}}}}}}}}}}}}}}}}}}|%%%%%%%%%%&...........     ......%%%%%%%%%%%)..........!%%%%%%%%%%%...........             ",
"............................1%%%%%%%%%%&...........     ......%%%%%%%%%%%)..........!%%%%%%%%%%%...........             ",
"............................1%%%%%%%%%%&...........     ......%%%%%%%%%%%)..........!%%%%%%%%%%%...........             ",
"............................1%%%%%%%%%%&...........     ......%%%%%%%%%%%)..........!%%%%%%%%%%%...........             ",
"............................1%%%%%%%%%%&...........     ......%%%%%%%%%%%)..........!%%%%%%%%%%%...........             ",
"............................1%%%%%%%%%%&...........     ......%%%%%%%%%%%233333333334%%%%%%%%%%%...........             ",
".....$%%%%%%%%%%%%%%%%%%%%%%%%%%%%%%%%%&...........     ......%%%%%%%%%%%%%%%%%%%%%%%%%%%%%%%%%%...........             ",
".....$%%%%%%%%%%%%%%%%%%%%%%%%%%%%%%%%%&...........     ......%%%%%%%%%%%%%%%%%%%%%%%%%%%%%%%%%%...........             ",
".....$%%%%%%%%%%%%%%%%%%%%%%%%%%%%%%%%%&...........     ......%%%%%%%%%%%%%%%%%%%%%%%%%%%%%%%%%%...........             ",
".....$%%%%%%%%%%%%%%%%%%%%%%%%%%%%%%%%%&...........     ......%%%%%%%%%%%%%%%%%%%%%%%%%%%%%%%%%%...........             ",
".....$%%%%%%%%%%%%%%%%%%%%%%%%%%%%%%%%%&...........     ......%%%%%%%%%%%%%%%%%%%%%%%%%%%%%%%%%%...........             ",
".....$%%%%%%%%%%%%%%%%%%%%%%%%%%%%%%%%%&...........     ...........*%%%%%%%%%%%%%%%%%%%%%%=................             ",
".....$%%%%%%%%%%%%%%%%%%%%%%%%%%%%.................     ...........*%%%%%%%%%%%%%%%%%%%%%%=................             ",
".....$%%%%%%%%%%%%%%%%%%%%%%%%%%%%.................     ...........*%%%%%%%%%%%%%%%%%%%%%%=................             ",
".....$%%%%%%%%%%%%%%%%%%%%%%%%%%%%.................     ...........*%%%%%%%%%%%%%%%%%%%%%%=................             ",
".....$%%%%%%%%%%%%%%%%%%%%%%%%%%%%.................     ...........*%%%%%%%%%%%%%%%%%%%%%%=................             ",
".....$%%%%%%%%%%%%%%%%%%%%%%%%%%%%.................      ..........566666666666666666666667................             ",
".....!8888888888888888888888888888.................           .............................................             ",
"...................................................           .............................................             ",
"...................................................           .............................................             ",
"...................................................           .............................................             ",
"...................................................           .............................................             ",
"...................................................                 ..................................                  ",
"      .......................................                       ..................................                  ",
"      .......................................                       ..................................                  ",
"      .......................................                       ..................................                  ",
"      .......................................                       ..................................                  ",
"      .......................................                       ..................................                  ",
"                                                                                                                        ",
"                                                                                                                        "};
