/* XPM */
static xpm_row_t const time_06_xpm[] = {
"120 68 26 1",
" 	c None",
".	c #000000",
"+	c #B9B9B9",
"@	c #FFFFFF",
"#	c #A4A4A4",
"$	c #494949",
"%	c #717171",
"&	c #818181",
"*	c #474747",
"=	c #A6A6A6",
"-	c #5B5B5B",
";	c #0B0B0B",
">	c #E2E2E2",
",	c #595959",
"'	c #6D6D6D",
")	c #505050",
"!	c #E4E4E4",
"~	c #E0E0E0",
"{	c #DCDCDC",
"]	c #F7F7F7",
"^	c #C5C5C5",
"/	c #2F2F2F",
"(	c #AFAFAF",
"_	c #C2C2C2",
":	c #FCFCFC",
"<	c #4F4F4F",
"                                                        .......................                                         ",
"                                                        .......................                                         ",
"                                                        .......................                                         ",
"                                                        .......................                                         ",
"     .................................                  .......................                                         ",
"     .................................                  .......................                                         ",
"     .................................                  .....+@@@@@@@@@@@#...........                                   ",
"     .................................                  .....+@@@@@@@@@@@#...........                                   ",
"     .................................                  .....+@@@@@@@@@@@#...........                                   ",
"..........$@@@@@@@@@@@@@@@@@@@@@@...........            .....+@@@@@@@@@@@#...........                                   ",
"..........$@@@@@@@@@@@@@@@@@@@@@@...........            .....+@@@@@@@@@@@#...........                                   ",
"..........$@@@@@@@@@@@@@@@@@@@@@@...........            .....+@@@@@@@@@@@#...........                                   ",
"..........$@@@@@@@@@@@@@@@@@@@@@@...........            .....+@@@@@@@@@@@#...........                                   ",
"..........$@@@@@@@@@@@@@@@@@@@@@@...........            .....+@@@@@@@@@@@#...........                                   ",
".....%%%%%&@@@@@@@@@@@@@@@@@@@@@@%%%%%*.....            .....+@@@@@@@@@@@#...........                                   ",
".....@@@@@@@@@@@@@@@@@@@@@@@@@@@@@@@@@=...........      .....+@@@@@@@@@@@#...........                                   ",
".....@@@@@@@@@@@@@@@@@@@@@@@@@@@@@@@@@=...........      .....+@@@@@@@@@@@#...........                                   ",
".....@@@@@@@@@@@@@@@@@@@@@@@@@@@@@@@@@=...........      .....+@@@@@@@@@@@#...........                                   ",
".....@@@@@@@@@@@@@@@@@@@@@@@@@@@@@@@@@=...........      .....+@@@@@@@@@@@#.......................                       ",
".....@@@@@@@@@@@@@@@@@@@@@@@@@@@@@@@@@=...........      .....+@@@@@@@@@@@#.......................                       ",
".....@@@@@@@@@@@-;;;;;;;;;;>@@@@@@@@@@=...........      .....+@@@@@@@@@@@#.......................                       ",
".....@@@@@@@@@@@,..........>@@@@@@@@@@=...........      .....+@@@@@@@@@@@#.......................                       ",
".....@@@@@@@@@@@,..........>@@@@@@@@@@=...........      .....+@@@@@@@@@@@#.......................                       ",
".....@@@@@@@@@@@,..........>@@@@@@@@@@=...........      .....+@@@@@@@@@@@#.......................                       ",
".....@@@@@@@@@@@,..........>@@@@@@@@@@=...........      .....+@@@@@@@@@@@@@@@@@@@@@@@@@@@@@'...........                 ",
".....@@@@@@@@@@@,..........>@@@@@@@@@@=...........      .....+@@@@@@@@@@@@@@@@@@@@@@@@@@@@@'...........                 ",
".....@@@@@@@@@@@,..........>@@@@@@@@@@=...........      .....+@@@@@@@@@@@@@@@@@@@@@@@@@@@@@'...........                 ",
".....@@@@@@@@@@@,..........>@@@@@@@@@@=...........      .....+@@@@@@@@@@@@@@@@@@@@@@@@@@@@@'...........                 ",
".....@@@@@@@@@@@,..........>@@@@@@@@@@=...........      .....+@@@@@@@@@@@@@@@@@@@@@@@@@@@@@'...........                 ",
".....@@@@@@@@@@@,..........>@@@@@@@@@@=...........      .....+@@@@@@@@@@@@@@@@@@@@@@@@@@@@@'...........                 ",
".....@@@@@@@@@@@,..........>@@@@@@@@@@=...........      .....+@@@@@@@@@@@@@@@@@@@@@@@@@@@@@@@@@@@)...........           ",
".....@@@@@@@@@@@,..........>@@@@@@@@@@=...........      .....+@@@@@@@@@@@@@@@@@@@@@@@@@@@@@@@@@@@)...........           ",
".....@@@@@@@@@@@,..........>@@@@@@@@@@=...........      .....+@@@@@@@@@@@@@@@@@@@@@@@@@@@@@@@@@@@)...........           ",
".....@@@@@@@@@@@,..........>@@@@@@@@@@=...........      .....+@@@@@@@@@@@@@@@@@@@@@@@@@@@@@@@@@@@)...........           ",
".....@@@@@@@@@@@,..........>@@@@@@@@@@=...........      .....+@@@@@@@@@@@@@@@@@@@@@@@@@@@@@@@@@@@)...........           ",
".....@@@@@@@@@@@,..........>@@@@@@@@@@=...........      .....+@@@@@@@@@@@@@@@@@@@@@@@@@@@@@@@@@@@)...........           ",
".....@@@@@@@@@@@,..........>@@@@@@@@@@=...........      .....+@@@@@@@@@@@#...........!@@@@@@@@@@@)...........           ",
".....@@@@@@@@@@@,..........>@@@@@@@@@@=...........      .....+@@@@@@@@@@@#...........!@@@@@@@@@@@)...........           ",
".....@@@@@@@@@@@,..........>@@@@@@@@@@=...........      .....+@@@@@@@@@@@#...........!@@@@@@@@@@@)...........           ",
".....@@@@@@@@@@@,..........>@@@@@@@@@@=...........      .....+@@@@@@@@@@@#...........!@@@@@@@@@@@)...........           ",
".....@@@@@@@@@@@,..........>@@@@@@@@@@=...........      .....+@@@@@@@@@@@#...........!@@@@@@@@@@@)...........           ",
".....@@@@@@@@@@@,..........>@@@@@@@@@@=...........      .....+@@@@@@@@@@@#...........!@@@@@@@@@@@)...........           ",
".....@@@@@@@@@@@~{{{{{{{{{{]@@@@@@@@@@=...........      .....+@@@@@@@@@@@@@@@@@@@@@@@@@@@@@@@@@@@)...........           ",
".....@@@@@@@@@@@@@@@@@@@@@@@@@@@@@@@@@=...........      .....+@@@@@@@@@@@@@@@@@@@@@@@@@@@@@@@@@@@)...........           ",
".....@@@@@@@@@@@@@@@@@@@@@@@@@@@@@@@@@=...........      .....+@@@@@@@@@@@@@@@@@@@@@@@@@@@@@@@@@@@)...........           ",
".....@@@@@@@@@@@@@@@@@@@@@@@@@@@@@@@@@=...........      .....+@@@@@@@@@@@@@@@@@@@@@@@@@@@@@@@@@@@)...........           ",
".....@@@@@@@@@@@@@@@@@@@@@@@@@@@@@@@@@=...........      .....+@@@@@@@@@@@@@@@@@@@@@@@@@@@@@@@@@@@)...........           ",
".....@@@@@@@@@@@@@@@@@@@@@@@@@@@@@@@@@=...........      .....+@@@@@@@@@@@@@@@@@@@@@@@@@@@@@@@@@@@)...........           ",
"..........$@@@@@@@@@@@@@@@@@@@@@@.................      ...........^@@@@@@@@@@@@@@@@@@@@@@@@@@@@@)...........           ",
"..........$@@@@@@@@@@@@@@@@@@@@@@.................      ...........^@@@@@@@@@@@@@@@@@@@@@@@@@@@@@)...........           ",
"..........$@@@@@@@@@@@@@@@@@@@@@@.................      ...........^@@@@@@@@@@@@@@@@@@@@@@@@@@@@@)...........           ",
"..........$@@@@@@@@@@@@@@@@@@@@@@.................      ...........^@@@@@@@@@@@@@@@@@@@@@@@@@@@@@)...........           ",
"..........$@@@@@@@@@@@@@@@@@@@@@@.................      ...........^@@@@@@@@@@@@@@@@@@@@@@@@@@@@@)...........           ",
"     ...../((((((((((((((((((((((.................      ..........._:::::::::::::::::::::::::::::<...........           ",
"     .............................................            ...............................................           ",
"     .............................................            ...............................................           ",
"     .............................................            ...............................................           ",
"     .............................................            ...............................................           ",
"     .............................................            ...............................................           ",
"           .................................                  ...............................................           ",
"           .................................                       ....................................                 ",
"           .................................                       ....................................                 ",
"           .................................                       ....................................                 ",
"           .................................                       ....................................                 ",
"           .................................                       ....................................                 ",
"                                                                    ...................................                 ",
"                                                                                                                        ",
"                                                                                                                        "};
