/* XPM */
static xpm_row_t const time_14_xpm[] = {
"120 68 24 1",
" 	c None",
".	c #000000",
"+	c #171717",
"@	c #7C7C7C",
"#	c #1D1D1D",
"$	c #565656",
"%	c #3B3B3B",
"&	c #FFFFFF",
"*	c #454545",
"=	c #B4B4B4",
"-	c #CDCDCD",
";	c #888888",
">	c #AAAAAA",
",	c #F1F1F1",
"'	c #2E2E2E",
")	c #D1D1D1",
"!	c #E7E7E7",
"~	c #111111",
"{	c #161616",
"]	c #7A7A7A",
"^	c #BEBEBE",
"/	c #3A3A3A",
"(	c #383838",
"_	c #F9F9F9",
"                                                                                                                        ",
"                                                                                                                        ",
"                                                        ........................................                        ",
"                                                        ........................................                        ",
"           ............................                 ........................................                        ",
"           ............................                 ........................................                        ",
"           ............................                 ........................................                        ",
"           ............................                 .....+@@@@@@@@@@@#.....@@@@@@@@@@@$.....                        ",
"           ............................                 .....%&&&&&&&&&&&*.....&&&&&&&&&&&=.....                        ",
"      ...........----------------;..........            .....%&&&&&&&&&&&*.....&&&&&&&&&&&=.....                        ",
"      ...........&&&&&&&&&&&&&&&&>...........           .....%&&&&&&&&&&&*.....&&&&&&&&&&&=.....                        ",
"      ...........&&&&&&&&&&&&&&&&>...........           .....%&&&&&&&&&&&*.....&&&&&&&&&&&=.....                        ",
"      ...........&&&&&&&&&&&&&&&&>...........           .....%&&&&&&&&&&&*.....&&&&&&&&&&&=.....                        ",
"      ...........&&&&&&&&&&&&&&&&>...........           .....%&&&&&&&&&&&*.....&&&&&&&&&&&=.....                        ",
"      ...........&&&&&&&&&&&&&&&&>...........           .....%&&&&&&&&&&&*.....&&&&&&&&&&&=.....                        ",
"      .....,&&&&&&&&&&&&&&&&&&&&&>...........           .....%&&&&&&&&&&&*.....&&&&&&&&&&&=.....                        ",
"      .....,&&&&&&&&&&&&&&&&&&&&&>...........           .....%&&&&&&&&&&&*.....&&&&&&&&&&&=.....                        ",
"      .....,&&&&&&&&&&&&&&&&&&&&&>...........           .....%&&&&&&&&&&&*.....&&&&&&&&&&&=.....                        ",
"      .....,&&&&&&&&&&&&&&&&&&&&&>...........           .....%&&&&&&&&&&&*.....&&&&&&&&&&&=.....                        ",
"      .....,&&&&&&&&&&&&&&&&&&&&&>...........           .....%&&&&&&&&&&&*.....&&&&&&&&&&&=...........                  ",
"      .....,&&&&&&&&&&&&&&&&&&&&&>...........           .....%&&&&&&&&&&&*.....&&&&&&&&&&&=...........                  ",
"      .....,&&&&&&&&&&&&&&&&&&&&&>...........           .....%&&&&&&&&&&&*.....&&&&&&&&&&&=...........                  ",
"      .....,&&&&&&&&&&&&&&&&&&&&&>...........           .....%&&&&&&&&&&&*.....&&&&&&&&&&&=...........                  ",
"      .....,&&&&&&&&&&&&&&&&&&&&&>...........           .....%&&&&&&&&&&&*.....&&&&&&&&&&&=...........                  ",
"      .....,&&&&&&&&&&&&&&&&&&&&&>...........           .....%&&&&&&&&&&&*.....&&&&&&&&&&&=...........                  ",
"      .....,&&&&&&&&&&&&&&&&&&&&&>...........           .....%&&&&&&&&&&&&&&&&&&&&&&&&&&&&&&&&&&+...........            ",
"      ...........&&&&&&&&&&&&&&&&>...........           .....%&&&&&&&&&&&&&&&&&&&&&&&&&&&&&&&&&&+...........            ",
"      ...........&&&&&&&&&&&&&&&&>...........           .....%&&&&&&&&&&&&&&&&&&&&&&&&&&&&&&&&&&+...........            ",
"      ...........&&&&&&&&&&&&&&&&>...........           .....%&&&&&&&&&&&&&&&&&&&&&&&&&&&&&&&&&&+...........            ",
"      ...........&&&&&&&&&&&&&&&&>...........           .....%&&&&&&&&&&&&&&&&&&&&&&&&&&&&&&&&&&+...........            ",
"      ...........&&&&&&&&&&&&&&&&>...........           .....%&&&&&&&&&&&&&&&&&&&&&&&&&&&&&&&&&&+...........            ",
"      ...........&&&&&&&&&&&&&&&&>...........           .....%&&&&&&&&&&&&&&&&&&&&&&&&&&&&&&&&&&+...........            ",
"           ......&&&&&&&&&&&&&&&&>...........           .....%&&&&&&&&&&&&&&&&&&&&&&&&&&&&&&&&&&+...........            ",
"           ......&&&&&&&&&&&&&&&&>...........           .....%&&&&&&&&&&&&&&&&&&&&&&&&&&&&&&&&&&+...........            ",
"           ......&&&&&&&&&&&&&&&&>...........           .....%&&&&&&&&&&&&&&&&&&&&&&&&&&&&&&&&&&+...........            ",
"           ......&&&&&&&&&&&&&&&&>...........           .....%&&&&&&&&&&&&&&&&&&&&&&&&&&&&&&&&&&+...........            ",
"           ......&&&&&&&&&&&&&&&&>...........           .....')))))))))))))))))&&&&&&&&&&&!)))))~...........            ",
".................&&&&&&&&&&&&&&&&>................      .......................&&&&&&&&&&&=.................            ",
".................&&&&&&&&&&&&&&&&>................      .......................&&&&&&&&&&&=.................            ",
".................&&&&&&&&&&&&&&&&>................      .......................&&&&&&&&&&&=.................            ",
".................&&&&&&&&&&&&&&&&>................      .......................&&&&&&&&&&&=.................            ",
".................&&&&&&&&&&&&&&&&>................      .......................&&&&&&&&&&&=.................            ",
".....{]]]]]]]]]]]&&&&&&&&&&&&&&&&^]]]]]...........            .................&&&&&&&&&&&=.................            ",
"...../&&&&&&&&&&&&&&&&&&&&&&&&&&&&&&&&&...........            .................&&&&&&&&&&&=.................            ",
"...../&&&&&&&&&&&&&&&&&&&&&&&&&&&&&&&&&...........            .................&&&&&&&&&&&=.................            ",
"...../&&&&&&&&&&&&&&&&&&&&&&&&&&&&&&&&&...........            .................&&&&&&&&&&&=.................            ",
"...../&&&&&&&&&&&&&&&&&&&&&&&&&&&&&&&&&...........            .................&&&&&&&&&&&=.................            ",
"...../&&&&&&&&&&&&&&&&&&&&&&&&&&&&&&&&&...........            .................&&&&&&&&&&&=.................            ",
"...../&&&&&&&&&&&&&&&&&&&&&&&&&&&&&&&&&...........                  ...........&&&&&&&&&&&=.....                        ",
"...../&&&&&&&&&&&&&&&&&&&&&&&&&&&&&&&&&...........                  ...........&&&&&&&&&&&=.....                        ",
"...../&&&&&&&&&&&&&&&&&&&&&&&&&&&&&&&&&...........                  ...........&&&&&&&&&&&=.....                        ",
"...../&&&&&&&&&&&&&&&&&&&&&&&&&&&&&&&&&...........                  ...........&&&&&&&&&&&=.....                        ",
"...../&&&&&&&&&&&&&&&&&&&&&&&&&&&&&&&&&...........                  ...........&&&&&&&&&&&=.....                        ",
".....(_________________________________...........                  ...........&&&&&&&&&&&=.....                        ",
"..................................................                  ............................                        ",
"..................................................                  ............................                        ",
"..................................................                  ............................                        ",
"..................................................                  ............................                        ",
"..................................................                  ............................                        ",
"      ............................................                  ............................                        ",
"      ............................................                       .......................                        ",
"      ............................................                       .......................                        ",
"      ............................................                       .......................                        ",
"      ............................................                       .......................                        ",
"      ............................................                       .......................                        ",
"                                                                                                                        ",
"                                                                                                                        ",
"                                                                                                                        "};
