/* XPM */
static xpm_row_t const time_05_xpm[] = {
"120 68 29 1",
" 	c None",
".	c #000000",
"+	c #494949",
"@	c #FFFFFF",
"#	c #B5B5B5",
"$	c #D7D7D7",
"%	c #717171",
"&	c #818181",
"*	c #474747",
"=	c #A6A6A6",
"-	c #5B5B5B",
";	c #0B0B0B",
">	c #E2E2E2",
",	c #595959",
"'	c #939393",
")	c #7B7B7B",
"!	c #4D4D4D",
"~	c #404040",
"{	c #727272",
"]	c #A2A2A2",
"^	c #FCFCFC",
"/	c #FAFAFA",
"(	c #E0E0E0",
"_	c #DCDCDC",
":	c #F7F7F7",
"<	c #2F2F2F",
"[	c #AFAFAF",
"}	c #7C7C7C",
"|	c #B0B0B0",
"                                                                                                                        ",
"                                                                                                                        ",
"                                                                                                                        ",
"                                                                                                                        ",
"     .................................                  .............................................                   ",
"     .................................                  .............................................                   ",
"     .................................                  .............................................                   ",
"     .................................                  .............................................                   ",
"     .................................                  .............................................                   ",
"..........+@@@@@@@@@@@@@@@@@@@@@@...........            .............................................                   ",
"..........+@@@@@@@@@@@@@@@@@@@@@@...........            .....#@@@@@@@@@@@@@@@@@@@@@@@@@@@@@@@@@$...........             ",
"..........+@@@@@@@@@@@@@@@@@@@@@@...........            .....#@@@@@@@@@@@@@@@@@@@@@@@@@@@@@@@@@$...........             ",
"..........+@@@@@@@@@@@@@@@@@@@@@@...........            .....#@@@@@@@@@@@@@@@@@@@@@@@@@@@@@@@@@$...........             ",
"..........+@@@@@@@@@@@@@@@@@@@@@@...........            .....#@@@@@@@@@@@@@@@@@@@@@@@@@@@@@@@@@$...........             ",
".....%%%%%&@@@@@@@@@@@@@@@@@@@@@@%%%%%*.....            .....#@@@@@@@@@@@@@@@@@@@@@@@@@@@@@@@@@$...........             ",
".....@@@@@@@@@@@@@@@@@@@@@@@@@@@@@@@@@=...........      .....#@@@@@@@@@@@@@@@@@@@@@@@@@@@@@@@@@$...........             ",
".....@@@@@@@@@@@@@@@@@@@@@@@@@@@@@@@@@=...........      .....#@@@@@@@@@@@@@@@@@@@@@@@@@@@@@@@@@$...........             ",
".....@@@@@@@@@@@@@@@@@@@@@@@@@@@@@@@@@=...........      .....#@@@@@@@@@@@@@@@@@@@@@@@@@@@@@@@@@$...........             ",
".....@@@@@@@@@@@@@@@@@@@@@@@@@@@@@@@@@=...........      .....#@@@@@@@@@@@@@@@@@@@@@@@@@@@@@@@@@$...........             ",
".....@@@@@@@@@@@@@@@@@@@@@@@@@@@@@@@@@=...........      .....#@@@@@@@@@@@@@@@@@@@@@@@@@@@@@@@@@$...........             ",
".....@@@@@@@@@@@-;;;;;;;;;;>@@@@@@@@@@=...........      .....#@@@@@@@@@@@@@@@@@@@@@@@@@@@@@@@@@$...........             ",
".....@@@@@@@@@@@,..........>@@@@@@@@@@=...........      .....#@@@@@@@@@@@'''''''''''''''''''''')...........             ",
".....@@@@@@@@@@@,..........>@@@@@@@@@@=...........      .....#@@@@@@@@@@@..................................             ",
".....@@@@@@@@@@@,..........>@@@@@@@@@@=...........      .....#@@@@@@@@@@@..................................             ",
".....@@@@@@@@@@@,..........>@@@@@@@@@@=...........      .....#@@@@@@@@@@@..................................             ",
".....@@@@@@@@@@@,..........>@@@@@@@@@@=...........      .....#@@@@@@@@@@@..................................             ",
".....@@@@@@@@@@@,..........>@@@@@@@@@@=...........      .....#@@@@@@@@@@@..................................             ",
".....@@@@@@@@@@@,..........>@@@@@@@@@@=...........      .....#@@@@@@@@@@@@@@@@@@@@@@@@@@@@.................             ",
".....@@@@@@@@@@@,..........>@@@@@@@@@@=...........      .....#@@@@@@@@@@@@@@@@@@@@@@@@@@@@.................             ",
".....@@@@@@@@@@@,..........>@@@@@@@@@@=...........      .....#@@@@@@@@@@@@@@@@@@@@@@@@@@@@.................             ",
".....@@@@@@@@@@@,..........>@@@@@@@@@@=...........      .....#@@@@@@@@@@@@@@@@@@@@@@@@@@@@.................             ",
".....@@@@@@@@@@@,..........>@@@@@@@@@@=...........      .....#@@@@@@@@@@@@@@@@@@@@@@@@@@@@.................             ",
".....@@@@@@@@@@@,..........>@@@@@@@@@@=...........      .....#@@@@@@@@@@@@@@@@@@@@@@@@@@@@!!!!!~...........             ",
".....@@@@@@@@@@@,..........>@@@@@@@@@@=...........      .....#@@@@@@@@@@@@@@@@@@@@@@@@@@@@@@@@@$...........             ",
".....@@@@@@@@@@@,..........>@@@@@@@@@@=...........      .....#@@@@@@@@@@@@@@@@@@@@@@@@@@@@@@@@@$...........             ",
".....@@@@@@@@@@@,..........>@@@@@@@@@@=...........      .....#@@@@@@@@@@@@@@@@@@@@@@@@@@@@@@@@@$...........             ",
".....@@@@@@@@@@@,..........>@@@@@@@@@@=...........      .....#@@@@@@@@@@@@@@@@@@@@@@@@@@@@@@@@@$...........             ",
".....@@@@@@@@@@@,..........>@@@@@@@@@@=...........      .....#@@@@@@@@@@@@@@@@@@@@@@@@@@@@@@@@@$...........             ",
".....@@@@@@@@@@@,..........>@@@@@@@@@@=...........      .....{]]]]]]]]]]]]]]]]]]]]]]^@@@@@@@@@@$...........             ",
".....@@@@@@@@@@@,..........>@@@@@@@@@@=...........      ............................/@@@@@@@@@@$...........             ",
".....@@@@@@@@@@@,..........>@@@@@@@@@@=...........      ............................/@@@@@@@@@@$...........             ",
".....@@@@@@@@@@@,..........>@@@@@@@@@@=...........      ............................/@@@@@@@@@@$...........             ",
".....@@@@@@@@@@@(__________:@@@@@@@@@@=...........      ............................/@@@@@@@@@@$...........             ",
".....@@@@@@@@@@@@@@@@@@@@@@@@@@@@@@@@@=...........      ............................/@@@@@@@@@@$...........             ",
".....@@@@@@@@@@@@@@@@@@@@@@@@@@@@@@@@@=...........      .....#@@@@@@@@@@@@@@@@@@@@@@@@@@@@@@@@@$...........             ",
".....@@@@@@@@@@@@@@@@@@@@@@@@@@@@@@@@@=...........      .....#@@@@@@@@@@@@@@@@@@@@@@@@@@@@@@@@@$...........             ",
".....@@@@@@@@@@@@@@@@@@@@@@@@@@@@@@@@@=...........      .....#@@@@@@@@@@@@@@@@@@@@@@@@@@@@@@@@@$...........             ",
".....@@@@@@@@@@@@@@@@@@@@@@@@@@@@@@@@@=...........      .....#@@@@@@@@@@@@@@@@@@@@@@@@@@@@@@@@@$...........             ",
"..........+@@@@@@@@@@@@@@@@@@@@@@.................      .....#@@@@@@@@@@@@@@@@@@@@@@@@@@@@@@@@@$...........             ",
"..........+@@@@@@@@@@@@@@@@@@@@@@.................      .....#@@@@@@@@@@@@@@@@@@@@@@@@@@@@@@@@@$...........             ",
"..........+@@@@@@@@@@@@@@@@@@@@@@.................      .....#@@@@@@@@@@@@@@@@@@@@@@@@@@@@.................             ",
"..........+@@@@@@@@@@@@@@@@@@@@@@.................      .....#@@@@@@@@@@@@@@@@@@@@@@@@@@@@.................             ",
"..........+@@@@@@@@@@@@@@@@@@@@@@.................      .....#@@@@@@@@@@@@@@@@@@@@@@@@@@@@.................             ",
"     .....<[[[[[[[[[[[[[[[[[[[[[[.................      .....#@@@@@@@@@@@@@@@@@@@@@@@@@@@@.................             ",
"     .............................................      .....#@@@@@@@@@@@@@@@@@@@@@@@@@@@@.................             ",
"     .............................................      .....}||||||||||||||||||||||||||||.................             ",
"     .............................................      ...................................................             ",
"     .............................................      ...................................................             ",
"     .............................................      ...................................................             ",
"           .................................            ...................................................             ",
"           .................................            ...................................................             ",
"           .................................                  .......................................                   ",
"           .................................                  .......................................                   ",
"           .................................                  .......................................                   ",
"           .................................                  .......................................                   ",
"                                                              .......................................                   ",
"                                                                                                                        ",
"                                                                                                                        "};
