/* XPM */
static xpm_row_t const time_59_xpm[] = {
"120 68 28 1",
" 	c None",
".	c #000000",
"+	c #B5B5B5",
"@	c #FFFFFF",
"#	c #D7D7D7",
"$	c #CCCCCC",
"%	c #555555",
"&	c #DDDDDD",
"*	c #939393",
"=	c #7B7B7B",
"-	c #F3F3F3",
";	c #9D9D9D",
">	c #B8B8B8",
",	c #EDEDED",
"'	c #808080",
")	c #4D4D4D",
"!	c #404040",
"~	c #2C2C2C",
"{	c #8F8F8F",
"]	c #727272",
"^	c #A2A2A2",
"/	c #FCFCFC",
"(	c #FAFAFA",
"_	c #7C7C7C",
":	c #B0B0B0",
"<	c #323232",
"[	c #6C6C6C",
"}	c #5C5C5C",
"                                                                                                                        ",
"                                                                                                                        ",
"                                                                                                                        ",
"                                                                                                                        ",
".............................................                                                                           ",
".............................................                                                                           ",
".............................................                  .................................                        ",
".............................................                  .................................                        ",
".............................................                  .................................                        ",
".............................................                  .................................                        ",
".....+@@@@@@@@@@@@@@@@@@@@@@@@@@@@@@@@@#...........            .................................                        ",
".....+@@@@@@@@@@@@@@@@@@@@@@@@@@@@@@@@@#...........      ...........$$$$$$$$$$$$$$$$$$$$$$...........                   ",
".....+@@@@@@@@@@@@@@@@@@@@@@@@@@@@@@@@@#...........      ...........@@@@@@@@@@@@@@@@@@@@@@...........                   ",
".....+@@@@@@@@@@@@@@@@@@@@@@@@@@@@@@@@@#...........      ...........@@@@@@@@@@@@@@@@@@@@@@...........                   ",
".....+@@@@@@@@@@@@@@@@@@@@@@@@@@@@@@@@@#...........      ...........@@@@@@@@@@@@@@@@@@@@@@...........                   ",
".....+@@@@@@@@@@@@@@@@@@@@@@@@@@@@@@@@@#...........      ...........@@@@@@@@@@@@@@@@@@@@@@...........                   ",
".....+@@@@@@@@@@@@@@@@@@@@@@@@@@@@@@@@@#...........      ...........@@@@@@@@@@@@@@@@@@@@@@...........                   ",
".....+@@@@@@@@@@@@@@@@@@@@@@@@@@@@@@@@@#...........      .....%@@@@@@@@@@@@@@@@@@@@@@@@@@@@@@@@&...........             ",
".....+@@@@@@@@@@@@@@@@@@@@@@@@@@@@@@@@@#...........      .....%@@@@@@@@@@@@@@@@@@@@@@@@@@@@@@@@&...........             ",
".....+@@@@@@@@@@@@@@@@@@@@@@@@@@@@@@@@@#...........      .....%@@@@@@@@@@@@@@@@@@@@@@@@@@@@@@@@&...........             ",
".....+@@@@@@@@@@@@@@@@@@@@@@@@@@@@@@@@@#...........      .....%@@@@@@@@@@@@@@@@@@@@@@@@@@@@@@@@&...........             ",
".....+@@@@@@@@@@@**********************=...........      .....%@@@@@@@@@@@@@@@@@@@@@@@@@@@@@@@@&...........             ",
".....+@@@@@@@@@@@..................................      .....%@@@@@@@@@@-;;;;;;;;;;>@@@@@@@@@@&...........             ",
".....+@@@@@@@@@@@..................................      .....%@@@@@@@@@@,..........'@@@@@@@@@@&...........             ",
".....+@@@@@@@@@@@..................................      .....%@@@@@@@@@@,..........'@@@@@@@@@@&...........             ",
".....+@@@@@@@@@@@..................................      .....%@@@@@@@@@@,..........'@@@@@@@@@@&...........             ",
".....+@@@@@@@@@@@..................................      .....%@@@@@@@@@@,..........'@@@@@@@@@@&...........             ",
".....+@@@@@@@@@@@@@@@@@@@@@@@@@@@@.................      .....%@@@@@@@@@@,..........'@@@@@@@@@@&...........             ",
".....+@@@@@@@@@@@@@@@@@@@@@@@@@@@@.................      .....%@@@@@@@@@@@@@@@@@@@@@@@@@@@@@@@@&...........             ",
".....+@@@@@@@@@@@@@@@@@@@@@@@@@@@@.................      .....%@@@@@@@@@@@@@@@@@@@@@@@@@@@@@@@@&...........             ",
".....+@@@@@@@@@@@@@@@@@@@@@@@@@@@@.................      .....%@@@@@@@@@@@@@@@@@@@@@@@@@@@@@@@@&...........             ",
".....+@@@@@@@@@@@@@@@@@@@@@@@@@@@@.................      .....%@@@@@@@@@@@@@@@@@@@@@@@@@@@@@@@@&...........             ",
".....+@@@@@@@@@@@@@@@@@@@@@@@@@@@@)))))!...........      .....%@@@@@@@@@@@@@@@@@@@@@@@@@@@@@@@@&...........             ",
".....+@@@@@@@@@@@@@@@@@@@@@@@@@@@@@@@@@#...........      .....~{{{{{@@@@@@@@@@@@@@@@@@@@@@@@@@@&...........             ",
".....+@@@@@@@@@@@@@@@@@@@@@@@@@@@@@@@@@#...........      ...........@@@@@@@@@@@@@@@@@@@@@@@@@@@&...........             ",
".....+@@@@@@@@@@@@@@@@@@@@@@@@@@@@@@@@@#...........      ...........@@@@@@@@@@@@@@@@@@@@@@@@@@@&...........             ",
".....+@@@@@@@@@@@@@@@@@@@@@@@@@@@@@@@@@#...........      ...........@@@@@@@@@@@@@@@@@@@@@@@@@@@&...........             ",
".....+@@@@@@@@@@@@@@@@@@@@@@@@@@@@@@@@@#...........      ...........@@@@@@@@@@@@@@@@@@@@@@@@@@@&...........             ",
".....]^^^^^^^^^^^^^^^^^^^^^^/@@@@@@@@@@#...........      ...........@@@@@@@@@@@@@@@@@@@@@@@@@@@&...........             ",
"............................(@@@@@@@@@@#...........            .....................'@@@@@@@@@@&...........             ",
"............................(@@@@@@@@@@#...........            .....................'@@@@@@@@@@&...........             ",
"............................(@@@@@@@@@@#...........            .....................'@@@@@@@@@@&...........             ",
"............................(@@@@@@@@@@#...........            .....................'@@@@@@@@@@&...........             ",
"............................(@@@@@@@@@@#...........            .....................'@@@@@@@@@@&...........             ",
".....+@@@@@@@@@@@@@@@@@@@@@@@@@@@@@@@@@#...........                 ................'@@@@@@@@@@&...........             ",
".....+@@@@@@@@@@@@@@@@@@@@@@@@@@@@@@@@@#...........                 ................'@@@@@@@@@@&...........             ",
".....+@@@@@@@@@@@@@@@@@@@@@@@@@@@@@@@@@#...........                 ................'@@@@@@@@@@&...........             ",
".....+@@@@@@@@@@@@@@@@@@@@@@@@@@@@@@@@@#...........                 ................'@@@@@@@@@@&...........             ",
".....+@@@@@@@@@@@@@@@@@@@@@@@@@@@@@@@@@#...........                 ................'@@@@@@@@@@&...........             ",
".....+@@@@@@@@@@@@@@@@@@@@@@@@@@@@@@@@@#...........                 ................'@@@@@@@@@@&...........             ",
".....+@@@@@@@@@@@@@@@@@@@@@@@@@@@@.................                            .....'@@@@@@@@@@&...........             ",
".....+@@@@@@@@@@@@@@@@@@@@@@@@@@@@.................                            .....'@@@@@@@@@@&...........             ",
".....+@@@@@@@@@@@@@@@@@@@@@@@@@@@@.................                            .....'@@@@@@@@@@&...........             ",
".....+@@@@@@@@@@@@@@@@@@@@@@@@@@@@.................                            .....'@@@@@@@@@@&...........             ",
".....+@@@@@@@@@@@@@@@@@@@@@@@@@@@@.................                            .....'@@@@@@@@@@&...........             ",
"....._::::::::::::::::::::::::::::.................                            .....<[[[[[[[[[[}...........             ",
"...................................................                            ............................             ",
"...................................................                            ............................             ",
"...................................................                            ............................             ",
"...................................................                            ............................             ",
"...................................................                            ............................             ",
"      .......................................                                        ......................             ",
"      .......................................                                        ......................             ",
"      .......................................                                        ......................             ",
"      .......................................                                        ......................             ",
"      .......................................                                        ......................             ",
"                                                                                                                        ",
"                                                                                                                        "};
