/* XPM */
static xpm_row_t const time_32_xpm[] = {
"120 68 31 1",
" 	c None",
".	c #000000",
"+	c #F9F9F9",
"@	c #FFFFFF",
"#	c #C1C1C1",
"$	c #959595",
"%	c #8F8F8F",
"&	c #F4F4F4",
"*	c #797979",
"=	c #282828",
"-	c #292929",
";	c #A8A8A8",
">	c #A5A5A5",
",	c #D3D3D3",
"'	c #B8B8B8",
")	c #9B9B9B",
"!	c #D4D4D4",
"~	c #B3B3B3",
"{	c #ABABAB",
"]	c #D6D6D6",
"^	c #AAAAAA",
"/	c #E8E8E8",
"(	c #CBCBCB",
"_	c #999999",
":	c #606060",
"<	c #636363",
"[	c #B4B4B4",
"}	c #7B7B7B",
"|	c #767676",
"1	c #676767",
"2	c #DCDCDC",
"                                                                                                                        ",
"                                                                                                                        ",
"                                                                                                                        ",
"                                                                                                                        ",
".......................................                                                                                 ",
".......................................                                                                                 ",
".......................................                                                                                 ",
".......................................                       ................................                          ",
".......................................                       ................................                          ",
".......................................                       ................................                          ",
".....+@@@@@@@@@@@@@@@@@@@@@@@@@@@...........                  ................................                          ",
".....+@@@@@@@@@@@@@@@@@@@@@@@@@@@...........                  ................................                          ",
".....+@@@@@@@@@@@@@@@@@@@@@@@@@@@...........                  ................................                          ",
".....+@@@@@@@@@@@@@@@@@@@@@@@@@@@...........            ...........@@@@@@@@@@@@@@@@@@@@@#..........                     ",
".....+@@@@@@@@@@@@@@@@@@@@@@@@@@@...........            ...........@@@@@@@@@@@@@@@@@@@@@#..........                     ",
".....+@@@@@@@@@@@@@@@@@@@@@@@@@@@$$$$$%.....            ...........@@@@@@@@@@@@@@@@@@@@@#..........                     ",
".....+@@@@@@@@@@@@@@@@@@@@@@@@@@@@@@@@&...........      ...........@@@@@@@@@@@@@@@@@@@@@#..........                     ",
".....+@@@@@@@@@@@@@@@@@@@@@@@@@@@@@@@@&...........      ...........@@@@@@@@@@@@@@@@@@@@@#..........                     ",
".....+@@@@@@@@@@@@@@@@@@@@@@@@@@@@@@@@&...........      .....*@@@@@@@@@@@@@@@@@@@@@@@@@@@@@@@@...........               ",
".....+@@@@@@@@@@@@@@@@@@@@@@@@@@@@@@@@&...........      .....*@@@@@@@@@@@@@@@@@@@@@@@@@@@@@@@@...........               ",
".....+@@@@@@@@@@@@@@@@@@@@@@@@@@@@@@@@&...........      .....*@@@@@@@@@@@@@@@@@@@@@@@@@@@@@@@@...........               ",
".....=---------------------;@@@@@@@@@@&...........      .....*@@@@@@@@@@@@@@@@@@@@@@@@@@@@@@@@...........               ",
"...........................>@@@@@@@@@@&...........      .....*@@@@@@@@@@@@@@@@@@@@@@@@@@@@@@@@...........               ",
"...........................>@@@@@@@@@@&...........      .....*@@@@@@@@@@,''''''''''@@@@@@@@@@@...........               ",
"...........................>@@@@@@@@@@&...........      .....*@@@@@@@@@@)..........@@@@@@@@@@@...........               ",
"...........................>@@@@@@@@@@&...........      .....*@@@@@@@@@@)..........@@@@@@@@@@@...........               ",
"...........................>@@@@@@@@@@&...........      .....*@@@@@@@@@@)..........@@@@@@@@@@@...........               ",
"     ...........!@@@@@@@@@@@@@@@@@@@@@&...........      .....*@@@@@@@@@@)..........@@@@@@@@@@@...........               ",
"     ...........!@@@@@@@@@@@@@@@@@@@@@&...........      .....*@@@@@@@@@@)..........@@@@@@@@@@@...........               ",
"     ...........!@@@@@@@@@@@@@@@@@@@@@&...........      .....*@@@@@@@@@@).....@@@@@@@@@@@@@@@@...........               ",
"     ...........!@@@@@@@@@@@@@@@@@@@@@&...........      .....*@@@@@@@@@@).....@@@@@@@@@@@@@@@@...........               ",
"     ...........!@@@@@@@@@@@@@@@@@@@@@&...........      .....*@@@@@@@@@@).....@@@@@@@@@@@@@@@@...........               ",
"           .....!@@@@@@@@@@@@@@@@~~~~~{...........      .....*@@@@@@@@@@).....@@@@@@@@@@@@@@@@...........               ",
"           .....!@@@@@@@@@@@@@@@@.................      .....*@@@@@@@@@@).....@@@@@@@@@@@@@@@@...........               ",
"           .....!@@@@@@@@@@@@@@@@.................      ................]@@@@@@@@@@@@@@@#................               ",
"           .....!@@@@@@@@@@@@@@@@.................      ................]@@@@@@@@@@@@@@@#................               ",
"           .....!@@@@@@@@@@@@@@@@.................      ................]@@@@@@@@@@@@@@@#................               ",
"           .....!@@@@@@@@@@@@@@@@.................      ................]@@@@@@@@@@@@@@@#................               ",
"...........................>@@@@@@@@@@&...........      ................]@@@@@@@@@@@@@@@#................               ",
"...........................>@@@@@@@@@@&...........      ...........^^^^^/@@@@@@@@@@(((((_................               ",
"...........................>@@@@@@@@@@&...........      ...........@@@@@@@@@@@@@@@@......................               ",
"...........................>@@@@@@@@@@&...........      ...........@@@@@@@@@@@@@@@@......................               ",
"...........................>@@@@@@@@@@&...........      ...........@@@@@@@@@@@@@@@@......................               ",
".....:<<<<<<<<<<<<<<<<<<<<<[@@@@@@@@@@&...........      ...........@@@@@@@@@@@@@@@@......................               ",
".....+@@@@@@@@@@@@@@@@@@@@@@@@@@@@@@@@&...........      ...........@@@@@@@@@@@@@@@@......................               ",
".....+@@@@@@@@@@@@@@@@@@@@@@@@@@@@@@@@&...........      .....*@@@@@@@@@@@@@@@@@@@@@@@@@@@@@@@@...........               ",
".....+@@@@@@@@@@@@@@@@@@@@@@@@@@@@@@@@&...........      .....*@@@@@@@@@@@@@@@@@@@@@@@@@@@@@@@@...........               ",
".....+@@@@@@@@@@@@@@@@@@@@@@@@@@@@@@@@&...........      .....*@@@@@@@@@@@@@@@@@@@@@@@@@@@@@@@@...........               ",
".....+@@@@@@@@@@@@@@@@@@@@@@@@@@@@@@@@&...........      .....*@@@@@@@@@@@@@@@@@@@@@@@@@@@@@@@@...........               ",
".....+@@@@@@@@@@@@@@@@@@@@@@@@@@@}}}}}|...........      .....*@@@@@@@@@@@@@@@@@@@@@@@@@@@@@@@@...........               ",
".....+@@@@@@@@@@@@@@@@@@@@@@@@@@@.................      .....*@@@@@@@@@@@@@@@@@@@@@@@@@@@@@@@@...........               ",
".....+@@@@@@@@@@@@@@@@@@@@@@@@@@@.................      .....*@@@@@@@@@@@@@@@@@@@@@@@@@@@@@@@@...........               ",
".....+@@@@@@@@@@@@@@@@@@@@@@@@@@@.................      .....*@@@@@@@@@@@@@@@@@@@@@@@@@@@@@@@@...........               ",
".....+@@@@@@@@@@@@@@@@@@@@@@@@@@@.................      .....*@@@@@@@@@@@@@@@@@@@@@@@@@@@@@@@@...........               ",
".....+@@@@@@@@@@@@@@@@@@@@@@@@@@@.................      .....*@@@@@@@@@@@@@@@@@@@@@@@@@@@@@@@@...........               ",
"..................................................      .....122222222222222222222222222222222...........               ",
"..................................................      .................................................               ",
"..................................................      .................................................               ",
"..................................................      .................................................               ",
"..................................................      .................................................               ",
"..................................................      .................................................               ",
"     .......................................                  ...........................................               ",
"     .......................................                  ...........................................               ",
"     .......................................                  ...........................................               ",
"     .......................................                  ...........................................               ",
"     .......................................                  ...........................................               ",
"                                                                                                                        ",
"                                                                                                                        "};
