/* XPM */
static xpm_row_t const time_52_xpm[] = {
"120 68 27 1",
" 	c None",
".	c #000000",
"+	c #B5B5B5",
"@	c #FFFFFF",
"#	c #D7D7D7",
"$	c #C1C1C1",
"%	c #797979",
"&	c #939393",
"*	c #7B7B7B",
"=	c #D3D3D3",
"-	c #B8B8B8",
";	c #9B9B9B",
">	c #4D4D4D",
",	c #404040",
"'	c #D6D6D6",
")	c #727272",
"!	c #A2A2A2",
"~	c #FCFCFC",
"{	c #FAFAFA",
"]	c #AAAAAA",
"^	c #E8E8E8",
"/	c #CBCBCB",
"(	c #999999",
"_	c #7C7C7C",
":	c #B0B0B0",
"<	c #676767",
"[	c #DCDCDC",
"                                                                                                                        ",
"                                                                                                                        ",
"                                                                                                                        ",
"                                                                                                                        ",
".............................................                                                                           ",
".............................................                                                                           ",
".............................................                                                                           ",
".............................................                   ................................                        ",
".............................................                   ................................                        ",
".............................................                   ................................                        ",
".....+@@@@@@@@@@@@@@@@@@@@@@@@@@@@@@@@@#...........             ................................                        ",
".....+@@@@@@@@@@@@@@@@@@@@@@@@@@@@@@@@@#...........             ................................                        ",
".....+@@@@@@@@@@@@@@@@@@@@@@@@@@@@@@@@@#...........             ................................                        ",
".....+@@@@@@@@@@@@@@@@@@@@@@@@@@@@@@@@@#...........       ...........@@@@@@@@@@@@@@@@@@@@@$..........                   ",
".....+@@@@@@@@@@@@@@@@@@@@@@@@@@@@@@@@@#...........       ...........@@@@@@@@@@@@@@@@@@@@@$..........                   ",
".....+@@@@@@@@@@@@@@@@@@@@@@@@@@@@@@@@@#...........       ...........@@@@@@@@@@@@@@@@@@@@@$..........                   ",
".....+@@@@@@@@@@@@@@@@@@@@@@@@@@@@@@@@@#...........       ...........@@@@@@@@@@@@@@@@@@@@@$..........                   ",
".....+@@@@@@@@@@@@@@@@@@@@@@@@@@@@@@@@@#...........       ...........@@@@@@@@@@@@@@@@@@@@@$..........                   ",
".....+@@@@@@@@@@@@@@@@@@@@@@@@@@@@@@@@@#...........       .....%@@@@@@@@@@@@@@@@@@@@@@@@@@@@@@@@...........             ",
".....+@@@@@@@@@@@@@@@@@@@@@@@@@@@@@@@@@#...........       .....%@@@@@@@@@@@@@@@@@@@@@@@@@@@@@@@@...........             ",
".....+@@@@@@@@@@@@@@@@@@@@@@@@@@@@@@@@@#...........       .....%@@@@@@@@@@@@@@@@@@@@@@@@@@@@@@@@...........             ",
".....+@@@@@@@@@@@&&&&&&&&&&&&&&&&&&&&&&*...........       .....%@@@@@@@@@@@@@@@@@@@@@@@@@@@@@@@@...........             ",
".....+@@@@@@@@@@@..................................       .....%@@@@@@@@@@@@@@@@@@@@@@@@@@@@@@@@...........             ",
".....+@@@@@@@@@@@..................................       .....%@@@@@@@@@@=----------@@@@@@@@@@@...........             ",
".....+@@@@@@@@@@@..................................       .....%@@@@@@@@@@;..........@@@@@@@@@@@...........             ",
".....+@@@@@@@@@@@..................................       .....%@@@@@@@@@@;..........@@@@@@@@@@@...........             ",
".....+@@@@@@@@@@@..................................       .....%@@@@@@@@@@;..........@@@@@@@@@@@...........             ",
".....+@@@@@@@@@@@@@@@@@@@@@@@@@@@@.................       .....%@@@@@@@@@@;..........@@@@@@@@@@@...........             ",
".....+@@@@@@@@@@@@@@@@@@@@@@@@@@@@.................       .....%@@@@@@@@@@;..........@@@@@@@@@@@...........             ",
".....+@@@@@@@@@@@@@@@@@@@@@@@@@@@@.................       .....%@@@@@@@@@@;.....@@@@@@@@@@@@@@@@...........             ",
".....+@@@@@@@@@@@@@@@@@@@@@@@@@@@@.................       .....%@@@@@@@@@@;.....@@@@@@@@@@@@@@@@...........             ",
".....+@@@@@@@@@@@@@@@@@@@@@@@@@@@@.................       .....%@@@@@@@@@@;.....@@@@@@@@@@@@@@@@...........             ",
".....+@@@@@@@@@@@@@@@@@@@@@@@@@@@@>>>>>,...........       .....%@@@@@@@@@@;.....@@@@@@@@@@@@@@@@...........             ",
".....+@@@@@@@@@@@@@@@@@@@@@@@@@@@@@@@@@#...........       .....%@@@@@@@@@@;.....@@@@@@@@@@@@@@@@...........             ",
".....+@@@@@@@@@@@@@@@@@@@@@@@@@@@@@@@@@#...........       ................'@@@@@@@@@@@@@@@$................             ",
".....+@@@@@@@@@@@@@@@@@@@@@@@@@@@@@@@@@#...........       ................'@@@@@@@@@@@@@@@$................             ",
".....+@@@@@@@@@@@@@@@@@@@@@@@@@@@@@@@@@#...........       ................'@@@@@@@@@@@@@@@$................             ",
".....+@@@@@@@@@@@@@@@@@@@@@@@@@@@@@@@@@#...........       ................'@@@@@@@@@@@@@@@$................             ",
".....)!!!!!!!!!!!!!!!!!!!!!!~@@@@@@@@@@#...........       ................'@@@@@@@@@@@@@@@$................             ",
"............................{@@@@@@@@@@#...........       ...........]]]]]^@@@@@@@@@@/////(................             ",
"............................{@@@@@@@@@@#...........       ...........@@@@@@@@@@@@@@@@......................             ",
"............................{@@@@@@@@@@#...........       ...........@@@@@@@@@@@@@@@@......................             ",
"............................{@@@@@@@@@@#...........       ...........@@@@@@@@@@@@@@@@......................             ",
"............................{@@@@@@@@@@#...........       ...........@@@@@@@@@@@@@@@@......................             ",
".....+@@@@@@@@@@@@@@@@@@@@@@@@@@@@@@@@@#...........       ...........@@@@@@@@@@@@@@@@......................             ",
".....+@@@@@@@@@@@@@@@@@@@@@@@@@@@@@@@@@#...........       .....%@@@@@@@@@@@@@@@@@@@@@@@@@@@@@@@@...........             ",
".....+@@@@@@@@@@@@@@@@@@@@@@@@@@@@@@@@@#...........       .....%@@@@@@@@@@@@@@@@@@@@@@@@@@@@@@@@...........             ",
".....+@@@@@@@@@@@@@@@@@@@@@@@@@@@@@@@@@#...........       .....%@@@@@@@@@@@@@@@@@@@@@@@@@@@@@@@@...........             ",
".....+@@@@@@@@@@@@@@@@@@@@@@@@@@@@@@@@@#...........       .....%@@@@@@@@@@@@@@@@@@@@@@@@@@@@@@@@...........             ",
".....+@@@@@@@@@@@@@@@@@@@@@@@@@@@@@@@@@#...........       .....%@@@@@@@@@@@@@@@@@@@@@@@@@@@@@@@@...........             ",
".....+@@@@@@@@@@@@@@@@@@@@@@@@@@@@.................       .....%@@@@@@@@@@@@@@@@@@@@@@@@@@@@@@@@...........             ",
".....+@@@@@@@@@@@@@@@@@@@@@@@@@@@@.................       .....%@@@@@@@@@@@@@@@@@@@@@@@@@@@@@@@@...........             ",
".....+@@@@@@@@@@@@@@@@@@@@@@@@@@@@.................       .....%@@@@@@@@@@@@@@@@@@@@@@@@@@@@@@@@...........             ",
".....+@@@@@@@@@@@@@@@@@@@@@@@@@@@@.................       .....%@@@@@@@@@@@@@@@@@@@@@@@@@@@@@@@@...........             ",
".....+@@@@@@@@@@@@@@@@@@@@@@@@@@@@.................       .....%@@@@@@@@@@@@@@@@@@@@@@@@@@@@@@@@...........             ",
"....._::::::::::::::::::::::::::::.................       .....<[[[[[[[[[[[[[[[[[[[[[[[[[[[[[[[[...........             ",
"...................................................       .................................................             ",
"...................................................       .................................................             ",
"...................................................       .................................................             ",
"...................................................       .................................................             ",
"...................................................       .................................................             ",
"      .......................................                   ...........................................             ",
"      .......................................                   ...........................................             ",
"      .......................................                   ...........................................             ",
"      .......................................                   ...........................................             ",
"      .......................................                   ...........................................             ",
"                                                                                                                        ",
"                                                                                                                        "};
