/* XPM */
static xpm_row_t const time_19_xpm[] = {
"120 68 26 1",
" 	c None",
".	c #000000",
"+	c #CDCDCD",
"@	c #888888",
"#	c #FFFFFF",
"$	c #AAAAAA",
"%	c #CCCCCC",
"&	c #F1F1F1",
"*	c #555555",
"=	c #DDDDDD",
"-	c #F3F3F3",
";	c #9D9D9D",
">	c #B8B8B8",
",	c #EDEDED",
"'	c #808080",
")	c #2C2C2C",
"!	c #8F8F8F",
"~	c #161616",
"{	c #7A7A7A",
"]	c #BEBEBE",
"^	c #3A3A3A",
"/	c #383838",
"(	c #F9F9F9",
"_	c #323232",
":	c #6C6C6C",
"<	c #5C5C5C",
"                                                                                                                        ",
"                                                                                                                        ",
"                                                                                                                        ",
"                                                                                                                        ",
"           ............................                                                                                 ",
"           ............................                       .................................                         ",
"           ............................                       .................................                         ",
"           ............................                       .................................                         ",
"           ............................                       .................................                         ",
"      ...........++++++++++++++++@..........                  .................................                         ",
"      ...........################$...........           ...........%%%%%%%%%%%%%%%%%%%%%%...........                    ",
"      ...........################$...........           ...........######################...........                    ",
"      ...........################$...........           ...........######################...........                    ",
"      ...........################$...........           ...........######################...........                    ",
"      ...........################$...........           ...........######################...........                    ",
"      .....&#####################$...........           ...........######################...........                    ",
"      .....&#####################$...........           .....*################################=...........              ",
"      .....&#####################$...........           .....*################################=...........              ",
"      .....&#####################$...........           .....*################################=...........              ",
"      .....&#####################$...........           .....*################################=...........              ",
"      .....&#####################$...........           .....*################################=...........              ",
"      .....&#####################$...........           .....*##########-;;;;;;;;;;>##########=...........              ",
"      .....&#####################$...........           .....*##########,..........'##########=...........              ",
"      .....&#####################$...........           .....*##########,..........'##########=...........              ",
"      .....&#####################$...........           .....*##########,..........'##########=...........              ",
"      .....&#####################$...........           .....*##########,..........'##########=...........              ",
"      ...........################$...........           .....*##########,..........'##########=...........              ",
"      ...........################$...........           .....*################################=...........              ",
"      ...........################$...........           .....*################################=...........              ",
"      ...........################$...........           .....*################################=...........              ",
"      ...........################$...........           .....*################################=...........              ",
"      ...........################$...........           .....*################################=...........              ",
"           ......################$...........           .....)!!!!!###########################=...........              ",
"           ......################$...........           ...........###########################=...........              ",
"           ......################$...........           ...........###########################=...........              ",
"           ......################$...........           ...........###########################=...........              ",
"           ......################$...........           ...........###########################=...........              ",
".................################$................      ...........###########################=...........              ",
".................################$................            .....................'##########=...........              ",
".................################$................            .....................'##########=...........              ",
".................################$................            .....................'##########=...........              ",
".................################$................            .....................'##########=...........              ",
".....~{{{{{{{{{{{################]{{{{{...........            .....................'##########=...........              ",
".....^#################################...........                 ................'##########=...........              ",
".....^#################################...........                 ................'##########=...........              ",
".....^#################################...........                 ................'##########=...........              ",
".....^#################################...........                 ................'##########=...........              ",
".....^#################################...........                 ................'##########=...........              ",
".....^#################################...........                 ................'##########=...........              ",
".....^#################################...........                            .....'##########=...........              ",
".....^#################################...........                            .....'##########=...........              ",
".....^#################################...........                            .....'##########=...........              ",
".....^#################################...........                            .....'##########=...........              ",
"...../(((((((((((((((((((((((((((((((((...........                            .....'##########=...........              ",
"..................................................                            ....._::::::::::<...........              ",
"..................................................                            ............................              ",
"..................................................                            ............................              ",
"..................................................                            ............................              ",
"..................................................                            ............................              ",
"      ............................................                            ............................              ",
"      ............................................                                  ......................              ",
"      ............................................                                  ......................              ",
"      ............................................                                  ......................              ",
"      ............................................                                  ......................              ",
"      ............................................                                  ......................              ",
"                                                                                                                        ",
"                                                                                                                        ",
"                                                                                                                        "};
