/* XPM */
static xpm_row_t const time_46_xpm[] = {
"120 68 23 1",
" 	c None",
".	c #000000",
"+	c #B9B9B9",
"@	c #FFFFFF",
"#	c #A4A4A4",
"$	c #171717",
"%	c #7C7C7C",
"&	c #1D1D1D",
"*	c #565656",
"=	c #3B3B3B",
"-	c #454545",
";	c #B4B4B4",
">	c #6D6D6D",
",	c #505050",
"'	c #E4E4E4",
")	c #2E2E2E",
"!	c #D1D1D1",
"~	c #E7E7E7",
"{	c #111111",
"]	c #C5C5C5",
"^	c #C2C2C2",
"/	c #FCFCFC",
"(	c #4F4F4F",
"                                                        .......................                                         ",
"                                                        .......................                                         ",
"                                                        .......................                                         ",
"........................................                .......................                                         ",
"........................................                .......................                                         ",
"........................................                .......................                                         ",
"........................................                .....+@@@@@@@@@@@#...........                                   ",
"........................................                .....+@@@@@@@@@@@#...........                                   ",
".....$%%%%%%%%%%%&.....%%%%%%%%%%%*.....                .....+@@@@@@@@@@@#...........                                   ",
".....=@@@@@@@@@@@-.....@@@@@@@@@@@;.....                .....+@@@@@@@@@@@#...........                                   ",
".....=@@@@@@@@@@@-.....@@@@@@@@@@@;.....                .....+@@@@@@@@@@@#...........                                   ",
".....=@@@@@@@@@@@-.....@@@@@@@@@@@;.....                .....+@@@@@@@@@@@#...........                                   ",
".....=@@@@@@@@@@@-.....@@@@@@@@@@@;.....                .....+@@@@@@@@@@@#...........                                   ",
".....=@@@@@@@@@@@-.....@@@@@@@@@@@;.....                .....+@@@@@@@@@@@#...........                                   ",
".....=@@@@@@@@@@@-.....@@@@@@@@@@@;.....                .....+@@@@@@@@@@@#...........                                   ",
".....=@@@@@@@@@@@-.....@@@@@@@@@@@;.....                .....+@@@@@@@@@@@#...........                                   ",
".....=@@@@@@@@@@@-.....@@@@@@@@@@@;.....                .....+@@@@@@@@@@@#...........                                   ",
".....=@@@@@@@@@@@-.....@@@@@@@@@@@;.....                .....+@@@@@@@@@@@#...........                                   ",
".....=@@@@@@@@@@@-.....@@@@@@@@@@@;.....                .....+@@@@@@@@@@@#.......................                       ",
".....=@@@@@@@@@@@-.....@@@@@@@@@@@;.....                .....+@@@@@@@@@@@#.......................                       ",
".....=@@@@@@@@@@@-.....@@@@@@@@@@@;...........          .....+@@@@@@@@@@@#.......................                       ",
".....=@@@@@@@@@@@-.....@@@@@@@@@@@;...........          .....+@@@@@@@@@@@#.......................                       ",
".....=@@@@@@@@@@@-.....@@@@@@@@@@@;...........          .....+@@@@@@@@@@@#.......................                       ",
".....=@@@@@@@@@@@-.....@@@@@@@@@@@;...........          .....+@@@@@@@@@@@#.......................                       ",
".....=@@@@@@@@@@@-.....@@@@@@@@@@@;...........          .....+@@@@@@@@@@@@@@@@@@@@@@@@@@@@@>...........                 ",
".....=@@@@@@@@@@@-.....@@@@@@@@@@@;...........          .....+@@@@@@@@@@@@@@@@@@@@@@@@@@@@@>...........                 ",
".....=@@@@@@@@@@@@@@@@@@@@@@@@@@@@@@@@@@$...........    .....+@@@@@@@@@@@@@@@@@@@@@@@@@@@@@>...........                 ",
".....=@@@@@@@@@@@@@@@@@@@@@@@@@@@@@@@@@@$...........    .....+@@@@@@@@@@@@@@@@@@@@@@@@@@@@@>...........                 ",
".....=@@@@@@@@@@@@@@@@@@@@@@@@@@@@@@@@@@$...........    .....+@@@@@@@@@@@@@@@@@@@@@@@@@@@@@>...........                 ",
".....=@@@@@@@@@@@@@@@@@@@@@@@@@@@@@@@@@@$...........    .....+@@@@@@@@@@@@@@@@@@@@@@@@@@@@@>...........                 ",
".....=@@@@@@@@@@@@@@@@@@@@@@@@@@@@@@@@@@$...........    .....+@@@@@@@@@@@@@@@@@@@@@@@@@@@@@@@@@@@,...........           ",
".....=@@@@@@@@@@@@@@@@@@@@@@@@@@@@@@@@@@$...........    .....+@@@@@@@@@@@@@@@@@@@@@@@@@@@@@@@@@@@,...........           ",
".....=@@@@@@@@@@@@@@@@@@@@@@@@@@@@@@@@@@$...........    .....+@@@@@@@@@@@@@@@@@@@@@@@@@@@@@@@@@@@,...........           ",
".....=@@@@@@@@@@@@@@@@@@@@@@@@@@@@@@@@@@$...........    .....+@@@@@@@@@@@@@@@@@@@@@@@@@@@@@@@@@@@,...........           ",
".....=@@@@@@@@@@@@@@@@@@@@@@@@@@@@@@@@@@$...........    .....+@@@@@@@@@@@@@@@@@@@@@@@@@@@@@@@@@@@,...........           ",
".....=@@@@@@@@@@@@@@@@@@@@@@@@@@@@@@@@@@$...........    .....+@@@@@@@@@@@@@@@@@@@@@@@@@@@@@@@@@@@,...........           ",
".....=@@@@@@@@@@@@@@@@@@@@@@@@@@@@@@@@@@$...........    .....+@@@@@@@@@@@#...........'@@@@@@@@@@@,...........           ",
".....)!!!!!!!!!!!!!!!!!@@@@@@@@@@@~!!!!!{...........    .....+@@@@@@@@@@@#...........'@@@@@@@@@@@,...........           ",
".......................@@@@@@@@@@@;.................    .....+@@@@@@@@@@@#...........'@@@@@@@@@@@,...........           ",
".......................@@@@@@@@@@@;.................    .....+@@@@@@@@@@@#...........'@@@@@@@@@@@,...........           ",
".......................@@@@@@@@@@@;.................    .....+@@@@@@@@@@@#...........'@@@@@@@@@@@,...........           ",
".......................@@@@@@@@@@@;.................    .....+@@@@@@@@@@@#...........'@@@@@@@@@@@,...........           ",
".......................@@@@@@@@@@@;.................    .....+@@@@@@@@@@@@@@@@@@@@@@@@@@@@@@@@@@@,...........           ",
"      .................@@@@@@@@@@@;.................    .....+@@@@@@@@@@@@@@@@@@@@@@@@@@@@@@@@@@@,...........           ",
"      .................@@@@@@@@@@@;.................    .....+@@@@@@@@@@@@@@@@@@@@@@@@@@@@@@@@@@@,...........           ",
"      .................@@@@@@@@@@@;.................    .....+@@@@@@@@@@@@@@@@@@@@@@@@@@@@@@@@@@@,...........           ",
"      .................@@@@@@@@@@@;.................    .....+@@@@@@@@@@@@@@@@@@@@@@@@@@@@@@@@@@@,...........           ",
"      .................@@@@@@@@@@@;.................    .....+@@@@@@@@@@@@@@@@@@@@@@@@@@@@@@@@@@@,...........           ",
"      .................@@@@@@@@@@@;.................    ...........]@@@@@@@@@@@@@@@@@@@@@@@@@@@@@,...........           ",
"            ...........@@@@@@@@@@@;.....                ...........]@@@@@@@@@@@@@@@@@@@@@@@@@@@@@,...........           ",
"            ...........@@@@@@@@@@@;.....                ...........]@@@@@@@@@@@@@@@@@@@@@@@@@@@@@,...........           ",
"            ...........@@@@@@@@@@@;.....                ...........]@@@@@@@@@@@@@@@@@@@@@@@@@@@@@,...........           ",
"            ...........@@@@@@@@@@@;.....                ...........]@@@@@@@@@@@@@@@@@@@@@@@@@@@@@,...........           ",
"            ...........@@@@@@@@@@@;.....                ...........^/////////////////////////////(...........           ",
"            ...........@@@@@@@@@@@;.....                      ...............................................           ",
"            ............................                      ...............................................           ",
"            ............................                      ...............................................           ",
"            ............................                      ...............................................           ",
"            ............................                      ...............................................           ",
"            ............................                      ...............................................           ",
"            ............................                           ....................................                 ",
"                 .......................                           ....................................                 ",
"                 .......................                           ....................................                 ",
"                 .......................                           ....................................                 ",
"                 .......................                           ....................................                 ",
"                 .......................                            ...................................                 ",
"                                                                                                                        ",
"                                                                                                                        "};
