/* XPM */
static xpm_row_t const time_49_xpm[] = {
"120 68 27 1",
" 	c None",
".	c #000000",
"+	c #171717",
"@	c #7C7C7C",
"#	c #1D1D1D",
"$	c #565656",
"%	c #3B3B3B",
"&	c #FFFFFF",
"*	c #454545",
"=	c #B4B4B4",
"-	c #CCCCCC",
";	c #555555",
">	c #DDDDDD",
",	c #F3F3F3",
"'	c #9D9D9D",
")	c #B8B8B8",
"!	c #EDEDED",
"~	c #808080",
"{	c #2C2C2C",
"]	c #8F8F8F",
"^	c #2E2E2E",
"/	c #D1D1D1",
"(	c #E7E7E7",
"_	c #111111",
":	c #323232",
"<	c #6C6C6C",
"[	c #5C5C5C",
"                                                                                                                        ",
"                                                                                                                        ",
"                                                                                                                        ",
"........................................                                                                                ",
"........................................                                                                                ",
"........................................                      .................................                         ",
"........................................                      .................................                         ",
"........................................                      .................................                         ",
".....+@@@@@@@@@@@#.....@@@@@@@@@@@$.....                      .................................                         ",
".....%&&&&&&&&&&&*.....&&&&&&&&&&&=.....                      .................................                         ",
".....%&&&&&&&&&&&*.....&&&&&&&&&&&=.....                ...........----------------------...........                    ",
".....%&&&&&&&&&&&*.....&&&&&&&&&&&=.....                ...........&&&&&&&&&&&&&&&&&&&&&&...........                    ",
".....%&&&&&&&&&&&*.....&&&&&&&&&&&=.....                ...........&&&&&&&&&&&&&&&&&&&&&&...........                    ",
".....%&&&&&&&&&&&*.....&&&&&&&&&&&=.....                ...........&&&&&&&&&&&&&&&&&&&&&&...........                    ",
".....%&&&&&&&&&&&*.....&&&&&&&&&&&=.....                ...........&&&&&&&&&&&&&&&&&&&&&&...........                    ",
".....%&&&&&&&&&&&*.....&&&&&&&&&&&=.....                ...........&&&&&&&&&&&&&&&&&&&&&&...........                    ",
".....%&&&&&&&&&&&*.....&&&&&&&&&&&=.....                .....;&&&&&&&&&&&&&&&&&&&&&&&&&&&&&&&&>...........              ",
".....%&&&&&&&&&&&*.....&&&&&&&&&&&=.....                .....;&&&&&&&&&&&&&&&&&&&&&&&&&&&&&&&&>...........              ",
".....%&&&&&&&&&&&*.....&&&&&&&&&&&=.....                .....;&&&&&&&&&&&&&&&&&&&&&&&&&&&&&&&&>...........              ",
".....%&&&&&&&&&&&*.....&&&&&&&&&&&=.....                .....;&&&&&&&&&&&&&&&&&&&&&&&&&&&&&&&&>...........              ",
".....%&&&&&&&&&&&*.....&&&&&&&&&&&=...........          .....;&&&&&&&&&&&&&&&&&&&&&&&&&&&&&&&&>...........              ",
".....%&&&&&&&&&&&*.....&&&&&&&&&&&=...........          .....;&&&&&&&&&&,'''''''''')&&&&&&&&&&>...........              ",
".....%&&&&&&&&&&&*.....&&&&&&&&&&&=...........          .....;&&&&&&&&&&!..........~&&&&&&&&&&>...........              ",
".....%&&&&&&&&&&&*.....&&&&&&&&&&&=...........          .....;&&&&&&&&&&!..........~&&&&&&&&&&>...........              ",
".....%&&&&&&&&&&&*.....&&&&&&&&&&&=...........          .....;&&&&&&&&&&!..........~&&&&&&&&&&>...........              ",
".....%&&&&&&&&&&&*.....&&&&&&&&&&&=...........          .....;&&&&&&&&&&!..........~&&&&&&&&&&>...........              ",
".....%&&&&&&&&&&&&&&&&&&&&&&&&&&&&&&&&&&+...........    .....;&&&&&&&&&&!..........~&&&&&&&&&&>...........              ",
".....%&&&&&&&&&&&&&&&&&&&&&&&&&&&&&&&&&&+...........    .....;&&&&&&&&&&&&&&&&&&&&&&&&&&&&&&&&>...........              ",
".....%&&&&&&&&&&&&&&&&&&&&&&&&&&&&&&&&&&+...........    .....;&&&&&&&&&&&&&&&&&&&&&&&&&&&&&&&&>...........              ",
".....%&&&&&&&&&&&&&&&&&&&&&&&&&&&&&&&&&&+...........    .....;&&&&&&&&&&&&&&&&&&&&&&&&&&&&&&&&>...........              ",
".....%&&&&&&&&&&&&&&&&&&&&&&&&&&&&&&&&&&+...........    .....;&&&&&&&&&&&&&&&&&&&&&&&&&&&&&&&&>...........              ",
".....%&&&&&&&&&&&&&&&&&&&&&&&&&&&&&&&&&&+...........    .....;&&&&&&&&&&&&&&&&&&&&&&&&&&&&&&&&>...........              ",
".....%&&&&&&&&&&&&&&&&&&&&&&&&&&&&&&&&&&+...........    .....{]]]]]&&&&&&&&&&&&&&&&&&&&&&&&&&&>...........              ",
".....%&&&&&&&&&&&&&&&&&&&&&&&&&&&&&&&&&&+...........    ...........&&&&&&&&&&&&&&&&&&&&&&&&&&&>...........              ",
".....%&&&&&&&&&&&&&&&&&&&&&&&&&&&&&&&&&&+...........    ...........&&&&&&&&&&&&&&&&&&&&&&&&&&&>...........              ",
".....%&&&&&&&&&&&&&&&&&&&&&&&&&&&&&&&&&&+...........    ...........&&&&&&&&&&&&&&&&&&&&&&&&&&&>...........              ",
".....%&&&&&&&&&&&&&&&&&&&&&&&&&&&&&&&&&&+...........    ...........&&&&&&&&&&&&&&&&&&&&&&&&&&&>...........              ",
".....^/////////////////&&&&&&&&&&&(/////_...........    ...........&&&&&&&&&&&&&&&&&&&&&&&&&&&>...........              ",
".......................&&&&&&&&&&&=.................          .....................~&&&&&&&&&&>...........              ",
".......................&&&&&&&&&&&=.................          .....................~&&&&&&&&&&>...........              ",
".......................&&&&&&&&&&&=.................          .....................~&&&&&&&&&&>...........              ",
".......................&&&&&&&&&&&=.................          .....................~&&&&&&&&&&>...........              ",
".......................&&&&&&&&&&&=.................          .....................~&&&&&&&&&&>...........              ",
"      .................&&&&&&&&&&&=.................               ................~&&&&&&&&&&>...........              ",
"      .................&&&&&&&&&&&=.................               ................~&&&&&&&&&&>...........              ",
"      .................&&&&&&&&&&&=.................               ................~&&&&&&&&&&>...........              ",
"      .................&&&&&&&&&&&=.................               ................~&&&&&&&&&&>...........              ",
"      .................&&&&&&&&&&&=.................               ................~&&&&&&&&&&>...........              ",
"      .................&&&&&&&&&&&=.................               ................~&&&&&&&&&&>...........              ",
"            ...........&&&&&&&&&&&=.....                                      .....~&&&&&&&&&&>...........              ",
"            ...........&&&&&&&&&&&=.....                                      .....~&&&&&&&&&&>...........              ",
"            ...........&&&&&&&&&&&=.....                                      .....~&&&&&&&&&&>...........              ",
"            ...........&&&&&&&&&&&=.....                                      .....~&&&&&&&&&&>...........              ",
"            ...........&&&&&&&&&&&=.....                                      .....~&&&&&&&&&&>...........              ",
"            ...........&&&&&&&&&&&=.....                                      .....:<<<<<<<<<<[...........              ",
"            ............................                                      ............................              ",
"            ............................                                      ............................              ",
"            ............................                                      ............................              ",
"            ............................                                      ............................              ",
"            ............................                                      ............................              ",
"            ............................                                            ......................              ",
"                 .......................                                            ......................              ",
"                 .......................                                            ......................              ",
"                 .......................                                            ......................              ",
"                 .......................                                            ......................              ",
"                 .......................                                                                                ",
"                                                                                                                        ",
"                                                                                                                        "};
