/* XPM */
static xpm_row_t const time_40_xpm[] = {
"120 68 28 1",
" 	c None",
".	c #000000",
"+	c #171717",
"@	c #7C7C7C",
"#	c #1D1D1D",
"$	c #565656",
"%	c #3B3B3B",
"&	c #FFFFFF",
"*	c #454545",
"=	c #B4B4B4",
"-	c #494949",
";	c #717171",
">	c #818181",
",	c #474747",
"'	c #A6A6A6",
")	c #5B5B5B",
"!	c #0B0B0B",
"~	c #E2E2E2",
"{	c #595959",
"]	c #2E2E2E",
"^	c #D1D1D1",
"/	c #E7E7E7",
"(	c #111111",
"_	c #E0E0E0",
":	c #DCDCDC",
"<	c #F7F7F7",
"[	c #2F2F2F",
"}	c #AFAFAF",
"                                                                                                                        ",
"                                                                                                                        ",
"                                                                                                                        ",
"........................................                                                                                ",
"........................................                                                                                ",
"........................................                     .................................                          ",
"........................................                     .................................                          ",
"........................................                     .................................                          ",
".....+@@@@@@@@@@@#.....@@@@@@@@@@@$.....                     .................................                          ",
".....%&&&&&&&&&&&*.....&&&&&&&&&&&=.....                     .................................                          ",
".....%&&&&&&&&&&&*.....&&&&&&&&&&&=.....                ..........-&&&&&&&&&&&&&&&&&&&&&&...........                    ",
".....%&&&&&&&&&&&*.....&&&&&&&&&&&=.....                ..........-&&&&&&&&&&&&&&&&&&&&&&...........                    ",
".....%&&&&&&&&&&&*.....&&&&&&&&&&&=.....                ..........-&&&&&&&&&&&&&&&&&&&&&&...........                    ",
".....%&&&&&&&&&&&*.....&&&&&&&&&&&=.....                ..........-&&&&&&&&&&&&&&&&&&&&&&...........                    ",
".....%&&&&&&&&&&&*.....&&&&&&&&&&&=.....                ..........-&&&&&&&&&&&&&&&&&&&&&&...........                    ",
".....%&&&&&&&&&&&*.....&&&&&&&&&&&=.....                .....;;;;;>&&&&&&&&&&&&&&&&&&&&&&;;;;;,.....                    ",
".....%&&&&&&&&&&&*.....&&&&&&&&&&&=.....                .....&&&&&&&&&&&&&&&&&&&&&&&&&&&&&&&&&'...........              ",
".....%&&&&&&&&&&&*.....&&&&&&&&&&&=.....                .....&&&&&&&&&&&&&&&&&&&&&&&&&&&&&&&&&'...........              ",
".....%&&&&&&&&&&&*.....&&&&&&&&&&&=.....                .....&&&&&&&&&&&&&&&&&&&&&&&&&&&&&&&&&'...........              ",
".....%&&&&&&&&&&&*.....&&&&&&&&&&&=.....                .....&&&&&&&&&&&&&&&&&&&&&&&&&&&&&&&&&'...........              ",
".....%&&&&&&&&&&&*.....&&&&&&&&&&&=...........          .....&&&&&&&&&&&&&&&&&&&&&&&&&&&&&&&&&'...........              ",
".....%&&&&&&&&&&&*.....&&&&&&&&&&&=...........          .....&&&&&&&&&&&)!!!!!!!!!!~&&&&&&&&&&'...........              ",
".....%&&&&&&&&&&&*.....&&&&&&&&&&&=...........          .....&&&&&&&&&&&{..........~&&&&&&&&&&'...........              ",
".....%&&&&&&&&&&&*.....&&&&&&&&&&&=...........          .....&&&&&&&&&&&{..........~&&&&&&&&&&'...........              ",
".....%&&&&&&&&&&&*.....&&&&&&&&&&&=...........          .....&&&&&&&&&&&{..........~&&&&&&&&&&'...........              ",
".....%&&&&&&&&&&&*.....&&&&&&&&&&&=...........          .....&&&&&&&&&&&{..........~&&&&&&&&&&'...........              ",
".....%&&&&&&&&&&&&&&&&&&&&&&&&&&&&&&&&&&+...........    .....&&&&&&&&&&&{..........~&&&&&&&&&&'...........              ",
".....%&&&&&&&&&&&&&&&&&&&&&&&&&&&&&&&&&&+...........    .....&&&&&&&&&&&{..........~&&&&&&&&&&'...........              ",
".....%&&&&&&&&&&&&&&&&&&&&&&&&&&&&&&&&&&+...........    .....&&&&&&&&&&&{..........~&&&&&&&&&&'...........              ",
".....%&&&&&&&&&&&&&&&&&&&&&&&&&&&&&&&&&&+...........    .....&&&&&&&&&&&{..........~&&&&&&&&&&'...........              ",
".....%&&&&&&&&&&&&&&&&&&&&&&&&&&&&&&&&&&+...........    .....&&&&&&&&&&&{..........~&&&&&&&&&&'...........              ",
".....%&&&&&&&&&&&&&&&&&&&&&&&&&&&&&&&&&&+...........    .....&&&&&&&&&&&{..........~&&&&&&&&&&'...........              ",
".....%&&&&&&&&&&&&&&&&&&&&&&&&&&&&&&&&&&+...........    .....&&&&&&&&&&&{..........~&&&&&&&&&&'...........              ",
".....%&&&&&&&&&&&&&&&&&&&&&&&&&&&&&&&&&&+...........    .....&&&&&&&&&&&{..........~&&&&&&&&&&'...........              ",
".....%&&&&&&&&&&&&&&&&&&&&&&&&&&&&&&&&&&+...........    .....&&&&&&&&&&&{..........~&&&&&&&&&&'...........              ",
".....%&&&&&&&&&&&&&&&&&&&&&&&&&&&&&&&&&&+...........    .....&&&&&&&&&&&{..........~&&&&&&&&&&'...........              ",
".....%&&&&&&&&&&&&&&&&&&&&&&&&&&&&&&&&&&+...........    .....&&&&&&&&&&&{..........~&&&&&&&&&&'...........              ",
".....]^^^^^^^^^^^^^^^^^&&&&&&&&&&&/^^^^^(...........    .....&&&&&&&&&&&{..........~&&&&&&&&&&'...........              ",
".......................&&&&&&&&&&&=.................    .....&&&&&&&&&&&{..........~&&&&&&&&&&'...........              ",
".......................&&&&&&&&&&&=.................    .....&&&&&&&&&&&{..........~&&&&&&&&&&'...........              ",
".......................&&&&&&&&&&&=.................    .....&&&&&&&&&&&{..........~&&&&&&&&&&'...........              ",
".......................&&&&&&&&&&&=.................    .....&&&&&&&&&&&{..........~&&&&&&&&&&'...........              ",
".......................&&&&&&&&&&&=.................    .....&&&&&&&&&&&{..........~&&&&&&&&&&'...........              ",
"      .................&&&&&&&&&&&=.................    .....&&&&&&&&&&&_::::::::::<&&&&&&&&&&'...........              ",
"      .................&&&&&&&&&&&=.................    .....&&&&&&&&&&&&&&&&&&&&&&&&&&&&&&&&&'...........              ",
"      .................&&&&&&&&&&&=.................    .....&&&&&&&&&&&&&&&&&&&&&&&&&&&&&&&&&'...........              ",
"      .................&&&&&&&&&&&=.................    .....&&&&&&&&&&&&&&&&&&&&&&&&&&&&&&&&&'...........              ",
"      .................&&&&&&&&&&&=.................    .....&&&&&&&&&&&&&&&&&&&&&&&&&&&&&&&&&'...........              ",
"      .................&&&&&&&&&&&=.................    .....&&&&&&&&&&&&&&&&&&&&&&&&&&&&&&&&&'...........              ",
"            ...........&&&&&&&&&&&=.....                ..........-&&&&&&&&&&&&&&&&&&&&&&.................              ",
"            ...........&&&&&&&&&&&=.....                ..........-&&&&&&&&&&&&&&&&&&&&&&.................              ",
"            ...........&&&&&&&&&&&=.....                ..........-&&&&&&&&&&&&&&&&&&&&&&.................              ",
"            ...........&&&&&&&&&&&=.....                ..........-&&&&&&&&&&&&&&&&&&&&&&.................              ",
"            ...........&&&&&&&&&&&=.....                ..........-&&&&&&&&&&&&&&&&&&&&&&.................              ",
"            ...........&&&&&&&&&&&=.....                     .....[}}}}}}}}}}}}}}}}}}}}}}.................              ",
"            ............................                     .............................................              ",
"            ............................                     .............................................              ",
"            ............................                     .............................................              ",
"            ............................                     .............................................              ",
"            ............................                     .............................................              ",
"            ............................                           .................................                    ",
"                 .......................                           .................................                    ",
"                 .......................                           .................................                    ",
"                 .......................                           .................................                    ",
"                 .......................                           .................................                    ",
"                 .......................                           .................................                    ",
"                                                                                                                        ",
"                                                                                                                        "};
