/* XPM */
static xpm_row_t const time_26_xpm[] = {
"120 68 24 1",
" 	c None",
".	c #000000",
"+	c #B9B9B9",
"@	c #FFFFFF",
"#	c #A4A4A4",
"$	c #C1C1C1",
"%	c #797979",
"&	c #D3D3D3",
"*	c #B8B8B8",
"=	c #9B9B9B",
"-	c #6D6D6D",
";	c #505050",
">	c #D6D6D6",
",	c #E4E4E4",
"'	c #AAAAAA",
")	c #E8E8E8",
"!	c #CBCBCB",
"~	c #999999",
"{	c #C5C5C5",
"]	c #676767",
"^	c #DCDCDC",
"/	c #C2C2C2",
"(	c #FCFCFC",
"_	c #4F4F4F",
"                                                       .......................                                          ",
"                                                       .......................                                          ",
"                                                       .......................                                          ",
"                                                       .......................                                          ",
"                                                       .......................                                          ",
"      ................................                 .......................                                          ",
"      ................................                 .....+@@@@@@@@@@@#...........                                    ",
"      ................................                 .....+@@@@@@@@@@@#...........                                    ",
"      ................................                 .....+@@@@@@@@@@@#...........                                    ",
"      ................................                 .....+@@@@@@@@@@@#...........                                    ",
"      ................................                 .....+@@@@@@@@@@@#...........                                    ",
"...........@@@@@@@@@@@@@@@@@@@@@$..........            .....+@@@@@@@@@@@#...........                                    ",
"...........@@@@@@@@@@@@@@@@@@@@@$..........            .....+@@@@@@@@@@@#...........                                    ",
"...........@@@@@@@@@@@@@@@@@@@@@$..........            .....+@@@@@@@@@@@#...........                                    ",
"...........@@@@@@@@@@@@@@@@@@@@@$..........            .....+@@@@@@@@@@@#...........                                    ",
"...........@@@@@@@@@@@@@@@@@@@@@$..........            .....+@@@@@@@@@@@#...........                                    ",
".....%@@@@@@@@@@@@@@@@@@@@@@@@@@@@@@@@...........      .....+@@@@@@@@@@@#...........                                    ",
".....%@@@@@@@@@@@@@@@@@@@@@@@@@@@@@@@@...........      .....+@@@@@@@@@@@#...........                                    ",
".....%@@@@@@@@@@@@@@@@@@@@@@@@@@@@@@@@...........      .....+@@@@@@@@@@@#.......................                        ",
".....%@@@@@@@@@@@@@@@@@@@@@@@@@@@@@@@@...........      .....+@@@@@@@@@@@#.......................                        ",
".....%@@@@@@@@@@@@@@@@@@@@@@@@@@@@@@@@...........      .....+@@@@@@@@@@@#.......................                        ",
".....%@@@@@@@@@@&**********@@@@@@@@@@@...........      .....+@@@@@@@@@@@#.......................                        ",
".....%@@@@@@@@@@=..........@@@@@@@@@@@...........      .....+@@@@@@@@@@@#.......................                        ",
".....%@@@@@@@@@@=..........@@@@@@@@@@@...........      .....+@@@@@@@@@@@#.......................                        ",
".....%@@@@@@@@@@=..........@@@@@@@@@@@...........      .....+@@@@@@@@@@@@@@@@@@@@@@@@@@@@@-...........                  ",
".....%@@@@@@@@@@=..........@@@@@@@@@@@...........      .....+@@@@@@@@@@@@@@@@@@@@@@@@@@@@@-...........                  ",
".....%@@@@@@@@@@=..........@@@@@@@@@@@...........      .....+@@@@@@@@@@@@@@@@@@@@@@@@@@@@@-...........                  ",
".....%@@@@@@@@@@=.....@@@@@@@@@@@@@@@@...........      .....+@@@@@@@@@@@@@@@@@@@@@@@@@@@@@-...........                  ",
".....%@@@@@@@@@@=.....@@@@@@@@@@@@@@@@...........      .....+@@@@@@@@@@@@@@@@@@@@@@@@@@@@@-...........                  ",
".....%@@@@@@@@@@=.....@@@@@@@@@@@@@@@@...........      .....+@@@@@@@@@@@@@@@@@@@@@@@@@@@@@-...........                  ",
".....%@@@@@@@@@@=.....@@@@@@@@@@@@@@@@...........      .....+@@@@@@@@@@@@@@@@@@@@@@@@@@@@@@@@@@@;...........            ",
".....%@@@@@@@@@@=.....@@@@@@@@@@@@@@@@...........      .....+@@@@@@@@@@@@@@@@@@@@@@@@@@@@@@@@@@@;...........            ",
"................>@@@@@@@@@@@@@@@$................      .....+@@@@@@@@@@@@@@@@@@@@@@@@@@@@@@@@@@@;...........            ",
"................>@@@@@@@@@@@@@@@$................      .....+@@@@@@@@@@@@@@@@@@@@@@@@@@@@@@@@@@@;...........            ",
"................>@@@@@@@@@@@@@@@$................      .....+@@@@@@@@@@@@@@@@@@@@@@@@@@@@@@@@@@@;...........            ",
"................>@@@@@@@@@@@@@@@$................      .....+@@@@@@@@@@@@@@@@@@@@@@@@@@@@@@@@@@@;...........            ",
"................>@@@@@@@@@@@@@@@$................      .....+@@@@@@@@@@@#...........,@@@@@@@@@@@;...........            ",
"...........''''')@@@@@@@@@@!!!!!~................      .....+@@@@@@@@@@@#...........,@@@@@@@@@@@;...........            ",
"...........@@@@@@@@@@@@@@@@......................      .....+@@@@@@@@@@@#...........,@@@@@@@@@@@;...........            ",
"...........@@@@@@@@@@@@@@@@......................      .....+@@@@@@@@@@@#...........,@@@@@@@@@@@;...........            ",
"...........@@@@@@@@@@@@@@@@......................      .....+@@@@@@@@@@@#...........,@@@@@@@@@@@;...........            ",
"...........@@@@@@@@@@@@@@@@......................      .....+@@@@@@@@@@@#...........,@@@@@@@@@@@;...........            ",
"...........@@@@@@@@@@@@@@@@......................      .....+@@@@@@@@@@@@@@@@@@@@@@@@@@@@@@@@@@@;...........            ",
".....%@@@@@@@@@@@@@@@@@@@@@@@@@@@@@@@@...........      .....+@@@@@@@@@@@@@@@@@@@@@@@@@@@@@@@@@@@;...........            ",
".....%@@@@@@@@@@@@@@@@@@@@@@@@@@@@@@@@...........      .....+@@@@@@@@@@@@@@@@@@@@@@@@@@@@@@@@@@@;...........            ",
".....%@@@@@@@@@@@@@@@@@@@@@@@@@@@@@@@@...........      .....+@@@@@@@@@@@@@@@@@@@@@@@@@@@@@@@@@@@;...........            ",
".....%@@@@@@@@@@@@@@@@@@@@@@@@@@@@@@@@...........      .....+@@@@@@@@@@@@@@@@@@@@@@@@@@@@@@@@@@@;...........            ",
".....%@@@@@@@@@@@@@@@@@@@@@@@@@@@@@@@@...........      .....+@@@@@@@@@@@@@@@@@@@@@@@@@@@@@@@@@@@;...........            ",
".....%@@@@@@@@@@@@@@@@@@@@@@@@@@@@@@@@...........      ...........{@@@@@@@@@@@@@@@@@@@@@@@@@@@@@;...........            ",
".....%@@@@@@@@@@@@@@@@@@@@@@@@@@@@@@@@...........      ...........{@@@@@@@@@@@@@@@@@@@@@@@@@@@@@;...........            ",
".....%@@@@@@@@@@@@@@@@@@@@@@@@@@@@@@@@...........      ...........{@@@@@@@@@@@@@@@@@@@@@@@@@@@@@;...........            ",
".....%@@@@@@@@@@@@@@@@@@@@@@@@@@@@@@@@...........      ...........{@@@@@@@@@@@@@@@@@@@@@@@@@@@@@;...........            ",
".....%@@@@@@@@@@@@@@@@@@@@@@@@@@@@@@@@...........      ...........{@@@@@@@@@@@@@@@@@@@@@@@@@@@@@;...........            ",
".....]^^^^^^^^^^^^^^^^^^^^^^^^^^^^^^^^...........      .........../(((((((((((((((((((((((((((((_...........            ",
".................................................            ...............................................            ",
".................................................            ...............................................            ",
".................................................            ...............................................            ",
".................................................            ...............................................            ",
".................................................            ...............................................            ",
"      ...........................................            ...............................................            ",
"      ...........................................                 ....................................                  ",
"      ...........................................                 ....................................                  ",
"      ...........................................                 ....................................                  ",
"      ...........................................                 ....................................                  ",
"                                                                  ....................................                  ",
"                                                                   ...................................                  ",
"                                                                                                                        ",
"                                                                                                                        "};
