/* XPM */
static xpm_row_t const time_12_xpm[] = {
"120 68 24 1",
" 	c None",
".	c #000000",
"+	c #CDCDCD",
"@	c #888888",
"#	c #FFFFFF",
"$	c #AAAAAA",
"%	c #C1C1C1",
"&	c #F1F1F1",
"*	c #797979",
"=	c #D3D3D3",
"-	c #B8B8B8",
";	c #9B9B9B",
">	c #D6D6D6",
",	c #E8E8E8",
"'	c #CBCBCB",
")	c #999999",
"!	c #161616",
"~	c #7A7A7A",
"{	c #BEBEBE",
"]	c #3A3A3A",
"^	c #383838",
"/	c #F9F9F9",
"(	c #676767",
"_	c #DCDCDC",
"                                                                                                                        ",
"                                                                                                                        ",
"                                                                                                                        ",
"                                                                                                                        ",
"           ............................                                                                                 ",
"           ............................                                                                                 ",
"           ............................                       ................................                          ",
"           ............................                       ................................                          ",
"           ............................                       ................................                          ",
"      ...........++++++++++++++++@..........                  ................................                          ",
"      ...........################$...........                 ................................                          ",
"      ...........################$...........                 ................................                          ",
"      ...........################$...........           ...........#####################%..........                     ",
"      ...........################$...........           ...........#####################%..........                     ",
"      ...........################$...........           ...........#####################%..........                     ",
"      .....&#####################$...........           ...........#####################%..........                     ",
"      .....&#####################$...........           ...........#####################%..........                     ",
"      .....&#####################$...........           .....*################################...........               ",
"      .....&#####################$...........           .....*################################...........               ",
"      .....&#####################$...........           .....*################################...........               ",
"      .....&#####################$...........           .....*################################...........               ",
"      .....&#####################$...........           .....*################################...........               ",
"      .....&#####################$...........           .....*##########=----------###########...........               ",
"      .....&#####################$...........           .....*##########;..........###########...........               ",
"      .....&#####################$...........           .....*##########;..........###########...........               ",
"      .....&#####################$...........           .....*##########;..........###########...........               ",
"      ...........################$...........           .....*##########;..........###########...........               ",
"      ...........################$...........           .....*##########;..........###########...........               ",
"      ...........################$...........           .....*##########;.....################...........               ",
"      ...........################$...........           .....*##########;.....################...........               ",
"      ...........################$...........           .....*##########;.....################...........               ",
"      ...........################$...........           .....*##########;.....################...........               ",
"           ......################$...........           .....*##########;.....################...........               ",
"           ......################$...........           ................>###############%................               ",
"           ......################$...........           ................>###############%................               ",
"           ......################$...........           ................>###############%................               ",
"           ......################$...........           ................>###############%................               ",
".................################$................      ................>###############%................               ",
".................################$................      ...........$$$$$,##########''''')................               ",
".................################$................      ...........################......................               ",
".................################$................      ...........################......................               ",
".................################$................      ...........################......................               ",
".....!~~~~~~~~~~~################{~~~~~...........      ...........################......................               ",
".....]#################################...........      ...........################......................               ",
".....]#################################...........      .....*################################...........               ",
".....]#################################...........      .....*################################...........               ",
".....]#################################...........      .....*################################...........               ",
".....]#################################...........      .....*################################...........               ",
".....]#################################...........      .....*################################...........               ",
".....]#################################...........      .....*################################...........               ",
".....]#################################...........      .....*################################...........               ",
".....]#################################...........      .....*################################...........               ",
".....]#################################...........      .....*################################...........               ",
".....^/////////////////////////////////...........      .....*################################...........               ",
"..................................................      .....(________________________________...........               ",
"..................................................      .................................................               ",
"..................................................      .................................................               ",
"..................................................      .................................................               ",
"..................................................      .................................................               ",
"      ............................................      .................................................               ",
"      ............................................            ...........................................               ",
"      ............................................            ...........................................               ",
"      ............................................            ...........................................               ",
"      ............................................            ...........................................               ",
"      ............................................            ...........................................               ",
"                                                                                                                        ",
"                                                                                                                        ",
"                                                                                                                        "};
