/* XPM */
static xpm_row_t const time_00_xpm[] = {
"120 50 17 1",
" 	c None",
".	c #000000",
"+	c #494949",
"@	c #FFFFFF",
"#	c #717171",
"$	c #818181",
"%	c #474747",
"&	c #A6A6A6",
"*	c #5B5B5B",
"=	c #0B0B0B",
"-	c #E2E2E2",
";	c #595959",
">	c #E0E0E0",
",	c #DCDCDC",
"'	c #F7F7F7",
")	c #2F2F2F",
"!	c #AFAFAF",
"     .................................                     .................................                            ",
"     .................................                     .................................                            ",
"..........+@@@@@@@@@@@@@@@@@@@@@@...........          ..........+@@@@@@@@@@@@@@@@@@@@@@...........                      ",
"..........+@@@@@@@@@@@@@@@@@@@@@@...........          ..........+@@@@@@@@@@@@@@@@@@@@@@...........                      ",
"..........+@@@@@@@@@@@@@@@@@@@@@@...........          ..........+@@@@@@@@@@@@@@@@@@@@@@...........                      ",
"..........+@@@@@@@@@@@@@@@@@@@@@@...........          ..........+@@@@@@@@@@@@@@@@@@@@@@...........                      ",
"..........+@@@@@@@@@@@@@@@@@@@@@@...........          ..........+@@@@@@@@@@@@@@@@@@@@@@...........                      ",
".....#####$@@@@@@@@@@@@@@@@@@@@@@#####%.....          .....#####$@@@@@@@@@@@@@@@@@@@@@@#####%.....                      ",
".....@@@@@@@@@@@@@@@@@@@@@@@@@@@@@@@@@&...........    .....@@@@@@@@@@@@@@@@@@@@@@@@@@@@@@@@@&...........                ",
".....@@@@@@@@@@@@@@@@@@@@@@@@@@@@@@@@@&...........    .....@@@@@@@@@@@@@@@@@@@@@@@@@@@@@@@@@&...........                ",
".....@@@@@@@@@@@@@@@@@@@@@@@@@@@@@@@@@&...........    .....@@@@@@@@@@@@@@@@@@@@@@@@@@@@@@@@@&...........                ",
".....@@@@@@@@@@@@@@@@@@@@@@@@@@@@@@@@@&...........    .....@@@@@@@@@@@@@@@@@@@@@@@@@@@@@@@@@&...........                ",
".....@@@@@@@@@@@@@@@@@@@@@@@@@@@@@@@@@&...........    .....@@@@@@@@@@@@@@@@@@@@@@@@@@@@@@@@@&...........                ",
".....@@@@@@@@@@@*==========-@@@@@@@@@@&...........    .....@@@@@@@@@@@*==========-@@@@@@@@@@&...........                ",
".....@@@@@@@@@@@;..........-@@@@@@@@@@&...........    .....@@@@@@@@@@@;..........-@@@@@@@@@@&...........                ",
".....@@@@@@@@@@@;..........-@@@@@@@@@@&...........    .....@@@@@@@@@@@;..........-@@@@@@@@@@&...........                ",
".....@@@@@@@@@@@;..........-@@@@@@@@@@&...........    .....@@@@@@@@@@@;..........-@@@@@@@@@@&...........                ",
".....@@@@@@@@@@@;..........-@@@@@@@@@@&...........    .....@@@@@@@@@@@;..........-@@@@@@@@@@&...........                ",
".....@@@@@@@@@@@;..........-@@@@@@@@@@&...........    .....@@@@@@@@@@@;..........-@@@@@@@@@@&...........                ",
".....@@@@@@@@@@@;..........-@@@@@@@@@@&...........    .....@@@@@@@@@@@;..........-@@@@@@@@@@&...........                ",
".....@@@@@@@@@@@;..........-@@@@@@@@@@&...........    .....@@@@@@@@@@@;..........-@@@@@@@@@@&...........                ",
".....@@@@@@@@@@@;..........-@@@@@@@@@@&...........    .....@@@@@@@@@@@;..........-@@@@@@@@@@&...........                ",
".....@@@@@@@@@@@;..........-@@@@@@@@@@&...........    .....@@@@@@@@@@@;..........-@@@@@@@@@@&...........                ",
".....@@@@@@@@@@@;..........-@@@@@@@@@@&...........    .....@@@@@@@@@@@;..........-@@@@@@@@@@&...........                ",
".....@@@@@@@@@@@;..........-@@@@@@@@@@&...........    .....@@@@@@@@@@@;..........-@@@@@@@@@@&...........                ",
".....@@@@@@@@@@@;..........-@@@@@@@@@@&...........    .....@@@@@@@@@@@;..........-@@@@@@@@@@&...........                ",
".....@@@@@@@@@@@;..........-@@@@@@@@@@&...........    .....@@@@@@@@@@@;..........-@@@@@@@@@@&...........                ",
".....@@@@@@@@@@@;..........-@@@@@@@@@@&...........    .....@@@@@@@@@@@;..........-@@@@@@@@@@&...........                ",
".....@@@@@@@@@@@;..........-@@@@@@@@@@&...........    .....@@@@@@@@@@@;..........-@@@@@@@@@@&...........                ",
".....@@@@@@@@@@@;..........-@@@@@@@@@@&...........    .....@@@@@@@@@@@;..........-@@@@@@@@@@&...........                ",
".....@@@@@@@@@@@;..........-@@@@@@@@@@&...........    .....@@@@@@@@@@@;..........-@@@@@@@@@@&...........                ",
".....@@@@@@@@@@@;..........-@@@@@@@@@@&...........    .....@@@@@@@@@@@;..........-@@@@@@@@@@&...........                ",
".....@@@@@@@@@@@;..........-@@@@@@@@@@&...........    .....@@@@@@@@@@@;..........-@@@@@@@@@@&...........                ",
".....@@@@@@@@@@@;..........-@@@@@@@@@@&...........    .....@@@@@@@@@@@;..........-@@@@@@@@@@&...........                ",
".....@@@@@@@@@@@;..........-@@@@@@@@@@&...........    .....@@@@@@@@@@@;..........-@@@@@@@@@@&...........                ",
".....@@@@@@@@@@@>,,,,,,,,,,'@@@@@@@@@@&...........    .....@@@@@@@@@@@>,,,,,,,,,,'@@@@@@@@@@&...........                ",
".....@@@@@@@@@@@@@@@@@@@@@@@@@@@@@@@@@&...........    .....@@@@@@@@@@@@@@@@@@@@@@@@@@@@@@@@@&...........                ",
".....@@@@@@@@@@@@@@@@@@@@@@@@@@@@@@@@@&...........    .....@@@@@@@@@@@@@@@@@@@@@@@@@@@@@@@@@&...........                ",
".....@@@@@@@@@@@@@@@@@@@@@@@@@@@@@@@@@&...........    .....@@@@@@@@@@@@@@@@@@@@@@@@@@@@@@@@@&...........                ",
".....@@@@@@@@@@@@@@@@@@@@@@@@@@@@@@@@@&...........    .....@@@@@@@@@@@@@@@@@@@@@@@@@@@@@@@@@&...........                ",
".....@@@@@@@@@@@@@@@@@@@@@@@@@@@@@@@@@&...........    .....@@@@@@@@@@@@@@@@@@@@@@@@@@@@@@@@@&...........                ",
"..........+@@@@@@@@@@@@@@@@@@@@@@.................    ..........+@@@@@@@@@@@@@@@@@@@@@@.................                ",
"..........+@@@@@@@@@@@@@@@@@@@@@@.................    ..........+@@@@@@@@@@@@@@@@@@@@@@.................                ",
"..........+@@@@@@@@@@@@@@@@@@@@@@.................    ..........+@@@@@@@@@@@@@@@@@@@@@@.................                ",
"..........+@@@@@@@@@@@@@@@@@@@@@@.................    ..........+@@@@@@@@@@@@@@@@@@@@@@.................                ",
"..........+@@@@@@@@@@@@@@@@@@@@@@.................    ..........+@@@@@@@@@@@@@@@@@@@@@@.................                ",
"     .....)!!!!!!!!!!!!!!!!!!!!!!.................         .....)!!!!!!!!!!!!!!!!!!!!!!.................                ",
"     .............................................         .............................................                ",
"     .............................................         .............................................                ",
"     .............................................         .............................................                "};
