/* XPM */
static xpm_row_t const time_39_xpm[] = {
"120 68 31 1",
" 	c None",
".	c #000000",
"+	c #F9F9F9",
"@	c #FFFFFF",
"#	c #CCCCCC",
"$	c #959595",
"%	c #8F8F8F",
"&	c #F4F4F4",
"*	c #555555",
"=	c #DDDDDD",
"-	c #282828",
";	c #292929",
">	c #A8A8A8",
",	c #A5A5A5",
"'	c #F3F3F3",
")	c #9D9D9D",
"!	c #B8B8B8",
"~	c #EDEDED",
"{	c #808080",
"]	c #D4D4D4",
"^	c #B3B3B3",
"/	c #ABABAB",
"(	c #2C2C2C",
"_	c #606060",
":	c #636363",
"<	c #B4B4B4",
"[	c #7B7B7B",
"}	c #767676",
"|	c #323232",
"1	c #6C6C6C",
"2	c #5C5C5C",
"                                                                                                                        ",
"                                                                                                                        ",
"                                                                                                                        ",
"                                                                                                                        ",
".......................................                                                                                 ",
".......................................                                                                                 ",
".......................................                       .................................                         ",
".......................................                       .................................                         ",
".......................................                       .................................                         ",
".......................................                       .................................                         ",
".....+@@@@@@@@@@@@@@@@@@@@@@@@@@@...........                  .................................                         ",
".....+@@@@@@@@@@@@@@@@@@@@@@@@@@@...........            ...........######################...........                    ",
".....+@@@@@@@@@@@@@@@@@@@@@@@@@@@...........            ...........@@@@@@@@@@@@@@@@@@@@@@...........                    ",
".....+@@@@@@@@@@@@@@@@@@@@@@@@@@@...........            ...........@@@@@@@@@@@@@@@@@@@@@@...........                    ",
".....+@@@@@@@@@@@@@@@@@@@@@@@@@@@...........            ...........@@@@@@@@@@@@@@@@@@@@@@...........                    ",
".....+@@@@@@@@@@@@@@@@@@@@@@@@@@@$$$$$%.....            ...........@@@@@@@@@@@@@@@@@@@@@@...........                    ",
".....+@@@@@@@@@@@@@@@@@@@@@@@@@@@@@@@@&...........      ...........@@@@@@@@@@@@@@@@@@@@@@...........                    ",
".....+@@@@@@@@@@@@@@@@@@@@@@@@@@@@@@@@&...........      .....*@@@@@@@@@@@@@@@@@@@@@@@@@@@@@@@@=...........              ",
".....+@@@@@@@@@@@@@@@@@@@@@@@@@@@@@@@@&...........      .....*@@@@@@@@@@@@@@@@@@@@@@@@@@@@@@@@=...........              ",
".....+@@@@@@@@@@@@@@@@@@@@@@@@@@@@@@@@&...........      .....*@@@@@@@@@@@@@@@@@@@@@@@@@@@@@@@@=...........              ",
".....+@@@@@@@@@@@@@@@@@@@@@@@@@@@@@@@@&...........      .....*@@@@@@@@@@@@@@@@@@@@@@@@@@@@@@@@=...........              ",
".....-;;;;;;;;;;;;;;;;;;;;;>@@@@@@@@@@&...........      .....*@@@@@@@@@@@@@@@@@@@@@@@@@@@@@@@@=...........              ",
"...........................,@@@@@@@@@@&...........      .....*@@@@@@@@@@'))))))))))!@@@@@@@@@@=...........              ",
"...........................,@@@@@@@@@@&...........      .....*@@@@@@@@@@~..........{@@@@@@@@@@=...........              ",
"...........................,@@@@@@@@@@&...........      .....*@@@@@@@@@@~..........{@@@@@@@@@@=...........              ",
"...........................,@@@@@@@@@@&...........      .....*@@@@@@@@@@~..........{@@@@@@@@@@=...........              ",
"...........................,@@@@@@@@@@&...........      .....*@@@@@@@@@@~..........{@@@@@@@@@@=...........              ",
"     ...........]@@@@@@@@@@@@@@@@@@@@@&...........      .....*@@@@@@@@@@~..........{@@@@@@@@@@=...........              ",
"     ...........]@@@@@@@@@@@@@@@@@@@@@&...........      .....*@@@@@@@@@@@@@@@@@@@@@@@@@@@@@@@@=...........              ",
"     ...........]@@@@@@@@@@@@@@@@@@@@@&...........      .....*@@@@@@@@@@@@@@@@@@@@@@@@@@@@@@@@=...........              ",
"     ...........]@@@@@@@@@@@@@@@@@@@@@&...........      .....*@@@@@@@@@@@@@@@@@@@@@@@@@@@@@@@@=...........              ",
"     ...........]@@@@@@@@@@@@@@@@@@@@@&...........      .....*@@@@@@@@@@@@@@@@@@@@@@@@@@@@@@@@=...........              ",
"           .....]@@@@@@@@@@@@@@@@^^^^^/...........      .....*@@@@@@@@@@@@@@@@@@@@@@@@@@@@@@@@=...........              ",
"           .....]@@@@@@@@@@@@@@@@.................      .....(%%%%%@@@@@@@@@@@@@@@@@@@@@@@@@@@=...........              ",
"           .....]@@@@@@@@@@@@@@@@.................      ...........@@@@@@@@@@@@@@@@@@@@@@@@@@@=...........              ",
"           .....]@@@@@@@@@@@@@@@@.................      ...........@@@@@@@@@@@@@@@@@@@@@@@@@@@=...........              ",
"           .....]@@@@@@@@@@@@@@@@.................      ...........@@@@@@@@@@@@@@@@@@@@@@@@@@@=...........              ",
"           .....]@@@@@@@@@@@@@@@@.................      ...........@@@@@@@@@@@@@@@@@@@@@@@@@@@=...........              ",
"...........................,@@@@@@@@@@&...........      ...........@@@@@@@@@@@@@@@@@@@@@@@@@@@=...........              ",
"...........................,@@@@@@@@@@&...........            .....................{@@@@@@@@@@=...........              ",
"...........................,@@@@@@@@@@&...........            .....................{@@@@@@@@@@=...........              ",
"...........................,@@@@@@@@@@&...........            .....................{@@@@@@@@@@=...........              ",
"...........................,@@@@@@@@@@&...........            .....................{@@@@@@@@@@=...........              ",
"....._:::::::::::::::::::::<@@@@@@@@@@&...........            .....................{@@@@@@@@@@=...........              ",
".....+@@@@@@@@@@@@@@@@@@@@@@@@@@@@@@@@&...........                 ................{@@@@@@@@@@=...........              ",
".....+@@@@@@@@@@@@@@@@@@@@@@@@@@@@@@@@&...........                 ................{@@@@@@@@@@=...........              ",
".....+@@@@@@@@@@@@@@@@@@@@@@@@@@@@@@@@&...........                 ................{@@@@@@@@@@=...........              ",
".....+@@@@@@@@@@@@@@@@@@@@@@@@@@@@@@@@&...........                 ................{@@@@@@@@@@=...........              ",
".....+@@@@@@@@@@@@@@@@@@@@@@@@@@@@@@@@&...........                 ................{@@@@@@@@@@=...........              ",
".....+@@@@@@@@@@@@@@@@@@@@@@@@@@@[[[[[}...........                 ................{@@@@@@@@@@=...........              ",
".....+@@@@@@@@@@@@@@@@@@@@@@@@@@@.................                            .....{@@@@@@@@@@=...........              ",
".....+@@@@@@@@@@@@@@@@@@@@@@@@@@@.................                            .....{@@@@@@@@@@=...........              ",
".....+@@@@@@@@@@@@@@@@@@@@@@@@@@@.................                            .....{@@@@@@@@@@=...........              ",
".....+@@@@@@@@@@@@@@@@@@@@@@@@@@@.................                            .....{@@@@@@@@@@=...........              ",
".....+@@@@@@@@@@@@@@@@@@@@@@@@@@@.................                            .....{@@@@@@@@@@=...........              ",
"..................................................                            .....|11111111112...........              ",
"..................................................                            ............................              ",
"..................................................                            ............................              ",
"..................................................                            ............................              ",
"..................................................                            ............................              ",
"..................................................                            ............................              ",
"     .......................................                                        ......................              ",
"     .......................................                                        ......................              ",
"     .......................................                                        ......................              ",
"     .......................................                                        ......................              ",
"     .......................................                                        ......................              ",
"                                                                                                                        ",
"                                                                                                                        "};
