/* XPM */
static xpm_row_t const time_08_xpm[] = {
"120 68 40 1",
" 	c None",
".	c #000000",
"+	c #494949",
"@	c #FFFFFF",
"#	c #5C5C5C",
"$	c #E2E2E2",
"%	c #6A6A6A",
"&	c #696969",
"*	c #797979",
"=	c #717171",
"-	c #818181",
";	c #474747",
">	c #A6A6A6",
",	c #5B5B5B",
"'	c #0B0B0B",
")	c #ECECEC",
"!	c #E5E5E5",
"~	c #EBEBEB",
"{	c #595959",
"]	c #898989",
"^	c #7C7C7C",
"/	c #757575",
"(	c #939393",
"_	c #EFEFEF",
":	c #EAEAEA",
"<	c #EEEEEE",
"[	c #9C9C9C",
"}	c #E6E6E6",
"|	c #DDDDDD",
"1	c #E0E0E0",
"2	c #DCDCDC",
"3	c #F7F7F7",
"4	c #F5F5F5",
"5	c #F1F1F1",
"6	c #F4F4F4",
"7	c #2F2F2F",
"8	c #AFAFAF",
"9	c #565656",
"0	c #D5D5D5",
"a	c #636363",
"                                                                                                                        ",
"                                                                                                                        ",
"                                                                                                                        ",
"                                                                                                                        ",
"     .................................                        ..................................                        ",
"     .................................                        ..................................                        ",
"     .................................                        ..................................                        ",
"     .................................                        ..................................                        ",
"     .................................                        ..................................                        ",
"..........+@@@@@@@@@@@@@@@@@@@@@@...........            ...........#$$$$$$$$$$$$$$$$$$$$$$%...........                  ",
"..........+@@@@@@@@@@@@@@@@@@@@@@...........            ...........&@@@@@@@@@@@@@@@@@@@@@@*...........                  ",
"..........+@@@@@@@@@@@@@@@@@@@@@@...........            ...........&@@@@@@@@@@@@@@@@@@@@@@*...........                  ",
"..........+@@@@@@@@@@@@@@@@@@@@@@...........            ...........&@@@@@@@@@@@@@@@@@@@@@@*...........                  ",
"..........+@@@@@@@@@@@@@@@@@@@@@@...........            ...........&@@@@@@@@@@@@@@@@@@@@@@*...........                  ",
".....=====-@@@@@@@@@@@@@@@@@@@@@@=====;.....            ...........&@@@@@@@@@@@@@@@@@@@@@@*...........                  ",
".....@@@@@@@@@@@@@@@@@@@@@@@@@@@@@@@@@>...........      ......@@@@@@@@@@@@@@@@@@@@@@@@@@@@@@@@@@...........             ",
".....@@@@@@@@@@@@@@@@@@@@@@@@@@@@@@@@@>...........      ......@@@@@@@@@@@@@@@@@@@@@@@@@@@@@@@@@@...........             ",
".....@@@@@@@@@@@@@@@@@@@@@@@@@@@@@@@@@>...........      ......@@@@@@@@@@@@@@@@@@@@@@@@@@@@@@@@@@...........             ",
".....@@@@@@@@@@@@@@@@@@@@@@@@@@@@@@@@@>...........      ......@@@@@@@@@@@@@@@@@@@@@@@@@@@@@@@@@@...........             ",
".....@@@@@@@@@@@@@@@@@@@@@@@@@@@@@@@@@>...........      ......@@@@@@@@@@@@@@@@@@@@@@@@@@@@@@@@@@...........             ",
".....@@@@@@@@@@@,''''''''''$@@@@@@@@@@>...........      ......@@@@@@@@@@@)!!!!!!!!!!~@@@@@@@@@@@...........             ",
".....@@@@@@@@@@@{..........$@@@@@@@@@@>...........      ......@@@@@@@@@@@]..........^@@@@@@@@@@@...........             ",
".....@@@@@@@@@@@{..........$@@@@@@@@@@>...........      ......@@@@@@@@@@@]..........^@@@@@@@@@@@...........             ",
".....@@@@@@@@@@@{..........$@@@@@@@@@@>...........      ......@@@@@@@@@@@]..........^@@@@@@@@@@@...........             ",
".....@@@@@@@@@@@{..........$@@@@@@@@@@>...........      ......@@@@@@@@@@@]..........^@@@@@@@@@@@...........             ",
".....@@@@@@@@@@@{..........$@@@@@@@@@@>...........      ......@@@@@@@@@@@]..........^@@@@@@@@@@@...........             ",
".....@@@@@@@@@@@{..........$@@@@@@@@@@>...........      ....../////(@@@@@_::::::::::<@@@@@[/////...........             ",
".....@@@@@@@@@@@{..........$@@@@@@@@@@>...........      ...........&@@@@@@@@@@@@@@@@@@@@@@*................             ",
".....@@@@@@@@@@@{..........$@@@@@@@@@@>...........      ...........&@@@@@@@@@@@@@@@@@@@@@@*................             ",
".....@@@@@@@@@@@{..........$@@@@@@@@@@>...........      ...........&@@@@@@@@@@@@@@@@@@@@@@*................             ",
".....@@@@@@@@@@@{..........$@@@@@@@@@@>...........      ...........&@@@@@@@@@@@@@@@@@@@@@@*................             ",
".....@@@@@@@@@@@{..........$@@@@@@@@@@>...........      ...........&@@@@@@@@@@@@@@@@@@@@@@*................             ",
".....@@@@@@@@@@@{..........$@@@@@@@@@@>...........      ......@@@@@@@@@@@@@@@@@@@@@@@@@@@@@@@@@@...........             ",
".....@@@@@@@@@@@{..........$@@@@@@@@@@>...........      ......@@@@@@@@@@@@@@@@@@@@@@@@@@@@@@@@@@...........             ",
".....@@@@@@@@@@@{..........$@@@@@@@@@@>...........      ......@@@@@@@@@@@@@@@@@@@@@@@@@@@@@@@@@@...........             ",
".....@@@@@@@@@@@{..........$@@@@@@@@@@>...........      ......@@@@@@@@@@@@@@@@@@@@@@@@@@@@@@@@@@...........             ",
".....@@@@@@@@@@@{..........$@@@@@@@@@@>...........      ......@@@@@@@@@@@@@@@@@@@@@@@@@@@@@@@@@@...........             ",
".....@@@@@@@@@@@{..........$@@@@@@@@@@>...........      ......@@@@@@@@@@@}||||||||||!@@@@@@@@@@@...........             ",
".....@@@@@@@@@@@{..........$@@@@@@@@@@>...........      ......@@@@@@@@@@@]..........^@@@@@@@@@@@...........             ",
".....@@@@@@@@@@@{..........$@@@@@@@@@@>...........      ......@@@@@@@@@@@]..........^@@@@@@@@@@@...........             ",
".....@@@@@@@@@@@{..........$@@@@@@@@@@>...........      ......@@@@@@@@@@@]..........^@@@@@@@@@@@...........             ",
".....@@@@@@@@@@@{..........$@@@@@@@@@@>...........      ......@@@@@@@@@@@]..........^@@@@@@@@@@@...........             ",
".....@@@@@@@@@@@122222222223@@@@@@@@@@>...........      ......@@@@@@@@@@@]..........^@@@@@@@@@@@...........             ",
".....@@@@@@@@@@@@@@@@@@@@@@@@@@@@@@@@@>...........      ......@@@@@@@@@@@455555555556@@@@@@@@@@@...........             ",
".....@@@@@@@@@@@@@@@@@@@@@@@@@@@@@@@@@>...........      ......@@@@@@@@@@@@@@@@@@@@@@@@@@@@@@@@@@...........             ",
".....@@@@@@@@@@@@@@@@@@@@@@@@@@@@@@@@@>...........      ......@@@@@@@@@@@@@@@@@@@@@@@@@@@@@@@@@@...........             ",
".....@@@@@@@@@@@@@@@@@@@@@@@@@@@@@@@@@>...........      ......@@@@@@@@@@@@@@@@@@@@@@@@@@@@@@@@@@...........             ",
".....@@@@@@@@@@@@@@@@@@@@@@@@@@@@@@@@@>...........      ......@@@@@@@@@@@@@@@@@@@@@@@@@@@@@@@@@@...........             ",
"..........+@@@@@@@@@@@@@@@@@@@@@@.................      ......@@@@@@@@@@@@@@@@@@@@@@@@@@@@@@@@@@...........             ",
"..........+@@@@@@@@@@@@@@@@@@@@@@.................      ...........&@@@@@@@@@@@@@@@@@@@@@@*................             ",
"..........+@@@@@@@@@@@@@@@@@@@@@@.................      ...........&@@@@@@@@@@@@@@@@@@@@@@*................             ",
"..........+@@@@@@@@@@@@@@@@@@@@@@.................      ...........&@@@@@@@@@@@@@@@@@@@@@@*................             ",
"..........+@@@@@@@@@@@@@@@@@@@@@@.................      ...........&@@@@@@@@@@@@@@@@@@@@@@*................             ",
"     .....78888888888888888888888.................      ...........&@@@@@@@@@@@@@@@@@@@@@@*................             ",
"     .............................................       ..........90000000000000000000000a................             ",
"     .............................................            .............................................             ",
"     .............................................            .............................................             ",
"     .............................................            .............................................             ",
"     .............................................            .............................................             ",
"           .................................                  .............................................             ",
"           .................................                        ..................................                  ",
"           .................................                        ..................................                  ",
"           .................................                        ..................................                  ",
"           .................................                        ..................................                  ",
"           .................................                        ..................................                  ",
"                                                                    ..................................                  ",
"                                                                                                                        ",
"                                                                                                                        "};
