/* XPM */
static xpm_row_t const time_07_xpm[] = {
"120 68 26 1",
" 	c None",
".	c #000000",
"+	c #FEFEFE",
"@	c #DEDEDE",
"#	c #FFFFFF",
"$	c #DFDFDF",
"%	c #494949",
"&	c #717171",
"*	c #818181",
"=	c #474747",
"-	c #A6A6A6",
";	c #F6F6F6",
">	c #5B5B5B",
",	c #0B0B0B",
"'	c #E2E2E2",
")	c #595959",
"!	c #727272",
"~	c #BABABA",
"{	c #9E9E9E",
"]	c #E0E0E0",
"^	c #DCDCDC",
"/	c #F7F7F7",
"(	c #2F2F2F",
"_	c #AFAFAF",
":	c #747474",
"<	c #656565",
"                                                                                                                        ",
"                                                         .............................................                  ",
"                                                        ..............................................                  ",
"                                                        ..............................................                  ",
"     .................................                  ..............................................                  ",
"     .................................                  ..............................................                  ",
"     .................................                  ..............................................                  ",
"     .................................                  ......++++++++++++++++++++++++++++++++++@...........            ",
"     .................................                  ......##################################$...........            ",
"..........%######################...........            ......##################################$...........            ",
"..........%######################...........            ......##################################$...........            ",
"..........%######################...........            ......##################################$...........            ",
"..........%######################...........            ......##################################$...........            ",
"..........%######################...........            ......##################################$...........            ",
".....&&&&&*######################&&&&&=.....            ......##################################$...........            ",
".....#################################-...........      ......##################################$...........            ",
".....#################################-...........      ......##################################$...........            ",
".....#################################-...........      ......##################################$...........            ",
".....#################################-...........      ......;;;;;;;;;;;;;;;;;;;;;;;###########$...........            ",
".....#################################-...........      .............................###########$...........            ",
".....###########>,,,,,,,,,,'##########-...........      .............................###########$...........            ",
".....###########)..........'##########-...........      .............................###########$...........            ",
".....###########)..........'##########-...........      .............................###########$...........            ",
".....###########)..........'##########-...........      .............................###########$...........            ",
".....###########)..........'##########-...........       ................!~~~~~~~~~~~###########$...........            ",
".....###########)..........'##########-...........            ...........{######################$...........            ",
".....###########)..........'##########-...........            ...........{######################$...........            ",
".....###########)..........'##########-...........            ...........{######################$...........            ",
".....###########)..........'##########-...........            ...........{######################$...........            ",
".....###########)..........'##########-...........            ...........{######################$...........            ",
".....###########)..........'##########-...........                  .....{######################$...........            ",
".....###########)..........'##########-...........                  .....{######################$...........            ",
".....###########)..........'##########-...........                  .....{######################$...........            ",
".....###########)..........'##########-...........                  .....{######################$...........            ",
".....###########)..........'##########-...........                  .....{######################$...........            ",
".....###########)..........'##########-...........                  .....{######################$...........            ",
".....###########)..........'##########-...........                  .................###########$...........            ",
".....###########)..........'##########-...........                  .................###########$...........            ",
".....###########)..........'##########-...........                  .................###########$...........            ",
".....###########)..........'##########-...........                  .................###########$...........            ",
".....###########)..........'##########-...........                  .................###########$...........            ",
".....###########)..........'##########-...........                  .................###########$...........            ",
".....###########]^^^^^^^^^^/##########-...........                        ...........###########$...........            ",
".....#################################-...........                        ...........###########$...........            ",
".....#################################-...........                        ...........###########$...........            ",
".....#################################-...........                        ...........###########$...........            ",
".....#################################-...........                        ...........###########$...........            ",
".....#################################-...........                        ...........###########$...........            ",
"..........%######################.................                             ......###########$...........            ",
"..........%######################.................                             ......###########$...........            ",
"..........%######################.................                             ......###########$...........            ",
"..........%######################.................                             ......###########$...........            ",
"..........%######################.................                             ......###########$...........            ",
"     .....(______________________.................                             ......:::::::::::<...........            ",
"     .............................................                             .............................            ",
"     .............................................                             .............................            ",
"     .............................................                             .............................            ",
"     .............................................                             .............................            ",
"     .............................................                             .............................            ",
"           .................................                                               .................            ",
"           .................................                                               .................            ",
"           .................................                                               .................            ",
"           .................................                                               .................            ",
"           .................................                                               .................            ",
"           .................................                                               .................            ",
"                                                                                                                        ",
"                                                                                                                        ",
"                                                                                                                        "};
