/* XPM */
static xpm_row_t const time_20_xpm[] = {
"120 68 28 1",
" 	c None",
".	c #000000",
"+	c #494949",
"@	c #FFFFFF",
"#	c #C1C1C1",
"$	c #717171",
"%	c #818181",
"&	c #474747",
"*	c #797979",
"=	c #A6A6A6",
"-	c #D3D3D3",
";	c #B8B8B8",
">	c #5B5B5B",
",	c #0B0B0B",
"'	c #E2E2E2",
")	c #9B9B9B",
"!	c #595959",
"~	c #D6D6D6",
"{	c #AAAAAA",
"]	c #E8E8E8",
"^	c #CBCBCB",
"/	c #999999",
"(	c #E0E0E0",
"_	c #DCDCDC",
":	c #F7F7F7",
"<	c #676767",
"[	c #2F2F2F",
"}	c #AFAFAF",
"                                                                                                                        ",
"                                                                                                                        ",
"                                                                                                                        ",
"                                                                                                                        ",
"                                                                                                                        ",
"      ................................                       .................................                          ",
"      ................................                       .................................                          ",
"      ................................                       .................................                          ",
"      ................................                       .................................                          ",
"      ................................                       .................................                          ",
"      ................................                  ..........+@@@@@@@@@@@@@@@@@@@@@@...........                    ",
"...........@@@@@@@@@@@@@@@@@@@@@#..........             ..........+@@@@@@@@@@@@@@@@@@@@@@...........                    ",
"...........@@@@@@@@@@@@@@@@@@@@@#..........             ..........+@@@@@@@@@@@@@@@@@@@@@@...........                    ",
"...........@@@@@@@@@@@@@@@@@@@@@#..........             ..........+@@@@@@@@@@@@@@@@@@@@@@...........                    ",
"...........@@@@@@@@@@@@@@@@@@@@@#..........             ..........+@@@@@@@@@@@@@@@@@@@@@@...........                    ",
"...........@@@@@@@@@@@@@@@@@@@@@#..........             .....$$$$$%@@@@@@@@@@@@@@@@@@@@@@$$$$$&.....                    ",
".....*@@@@@@@@@@@@@@@@@@@@@@@@@@@@@@@@...........       .....@@@@@@@@@@@@@@@@@@@@@@@@@@@@@@@@@=...........              ",
".....*@@@@@@@@@@@@@@@@@@@@@@@@@@@@@@@@...........       .....@@@@@@@@@@@@@@@@@@@@@@@@@@@@@@@@@=...........              ",
".....*@@@@@@@@@@@@@@@@@@@@@@@@@@@@@@@@...........       .....@@@@@@@@@@@@@@@@@@@@@@@@@@@@@@@@@=...........              ",
".....*@@@@@@@@@@@@@@@@@@@@@@@@@@@@@@@@...........       .....@@@@@@@@@@@@@@@@@@@@@@@@@@@@@@@@@=...........              ",
".....*@@@@@@@@@@@@@@@@@@@@@@@@@@@@@@@@...........       .....@@@@@@@@@@@@@@@@@@@@@@@@@@@@@@@@@=...........              ",
".....*@@@@@@@@@@-;;;;;;;;;;@@@@@@@@@@@...........       .....@@@@@@@@@@@>,,,,,,,,,,'@@@@@@@@@@=...........              ",
".....*@@@@@@@@@@)..........@@@@@@@@@@@...........       .....@@@@@@@@@@@!..........'@@@@@@@@@@=...........              ",
".....*@@@@@@@@@@)..........@@@@@@@@@@@...........       .....@@@@@@@@@@@!..........'@@@@@@@@@@=...........              ",
".....*@@@@@@@@@@)..........@@@@@@@@@@@...........       .....@@@@@@@@@@@!..........'@@@@@@@@@@=...........              ",
".....*@@@@@@@@@@)..........@@@@@@@@@@@...........       .....@@@@@@@@@@@!..........'@@@@@@@@@@=...........              ",
".....*@@@@@@@@@@)..........@@@@@@@@@@@...........       .....@@@@@@@@@@@!..........'@@@@@@@@@@=...........              ",
".....*@@@@@@@@@@).....@@@@@@@@@@@@@@@@...........       .....@@@@@@@@@@@!..........'@@@@@@@@@@=...........              ",
".....*@@@@@@@@@@).....@@@@@@@@@@@@@@@@...........       .....@@@@@@@@@@@!..........'@@@@@@@@@@=...........              ",
".....*@@@@@@@@@@).....@@@@@@@@@@@@@@@@...........       .....@@@@@@@@@@@!..........'@@@@@@@@@@=...........              ",
".....*@@@@@@@@@@).....@@@@@@@@@@@@@@@@...........       .....@@@@@@@@@@@!..........'@@@@@@@@@@=...........              ",
".....*@@@@@@@@@@).....@@@@@@@@@@@@@@@@...........       .....@@@@@@@@@@@!..........'@@@@@@@@@@=...........              ",
"................~@@@@@@@@@@@@@@@#................       .....@@@@@@@@@@@!..........'@@@@@@@@@@=...........              ",
"................~@@@@@@@@@@@@@@@#................       .....@@@@@@@@@@@!..........'@@@@@@@@@@=...........              ",
"................~@@@@@@@@@@@@@@@#................       .....@@@@@@@@@@@!..........'@@@@@@@@@@=...........              ",
"................~@@@@@@@@@@@@@@@#................       .....@@@@@@@@@@@!..........'@@@@@@@@@@=...........              ",
"................~@@@@@@@@@@@@@@@#................       .....@@@@@@@@@@@!..........'@@@@@@@@@@=...........              ",
"...........{{{{{]@@@@@@@@@@^^^^^/................       .....@@@@@@@@@@@!..........'@@@@@@@@@@=...........              ",
"...........@@@@@@@@@@@@@@@@......................       .....@@@@@@@@@@@!..........'@@@@@@@@@@=...........              ",
"...........@@@@@@@@@@@@@@@@......................       .....@@@@@@@@@@@!..........'@@@@@@@@@@=...........              ",
"...........@@@@@@@@@@@@@@@@......................       .....@@@@@@@@@@@!..........'@@@@@@@@@@=...........              ",
"...........@@@@@@@@@@@@@@@@......................       .....@@@@@@@@@@@!..........'@@@@@@@@@@=...........              ",
"...........@@@@@@@@@@@@@@@@......................       .....@@@@@@@@@@@!..........'@@@@@@@@@@=...........              ",
".....*@@@@@@@@@@@@@@@@@@@@@@@@@@@@@@@@...........       .....@@@@@@@@@@@(__________:@@@@@@@@@@=...........              ",
".....*@@@@@@@@@@@@@@@@@@@@@@@@@@@@@@@@...........       .....@@@@@@@@@@@@@@@@@@@@@@@@@@@@@@@@@=...........              ",
".....*@@@@@@@@@@@@@@@@@@@@@@@@@@@@@@@@...........       .....@@@@@@@@@@@@@@@@@@@@@@@@@@@@@@@@@=...........              ",
".....*@@@@@@@@@@@@@@@@@@@@@@@@@@@@@@@@...........       .....@@@@@@@@@@@@@@@@@@@@@@@@@@@@@@@@@=...........              ",
".....*@@@@@@@@@@@@@@@@@@@@@@@@@@@@@@@@...........       .....@@@@@@@@@@@@@@@@@@@@@@@@@@@@@@@@@=...........              ",
".....*@@@@@@@@@@@@@@@@@@@@@@@@@@@@@@@@...........       .....@@@@@@@@@@@@@@@@@@@@@@@@@@@@@@@@@=...........              ",
".....*@@@@@@@@@@@@@@@@@@@@@@@@@@@@@@@@...........       ..........+@@@@@@@@@@@@@@@@@@@@@@.................              ",
".....*@@@@@@@@@@@@@@@@@@@@@@@@@@@@@@@@...........       ..........+@@@@@@@@@@@@@@@@@@@@@@.................              ",
".....*@@@@@@@@@@@@@@@@@@@@@@@@@@@@@@@@...........       ..........+@@@@@@@@@@@@@@@@@@@@@@.................              ",
".....*@@@@@@@@@@@@@@@@@@@@@@@@@@@@@@@@...........       ..........+@@@@@@@@@@@@@@@@@@@@@@.................              ",
".....<________________________________...........       ..........+@@@@@@@@@@@@@@@@@@@@@@.................              ",
".................................................            .....[}}}}}}}}}}}}}}}}}}}}}}.................              ",
".................................................            .............................................              ",
".................................................            .............................................              ",
".................................................            .............................................              ",
".................................................            .............................................              ",
"      ...........................................            .............................................              ",
"      ...........................................                  .................................                    ",
"      ...........................................                  .................................                    ",
"      ...........................................                  .................................                    ",
"      ...........................................                  .................................                    ",
"                                                                   .................................                    ",
"                                                                   .................................                    ",
"                                                                                                                        ",
"                                                                                                                        "};
