/* XPM */
static xpm_row_t const time_53_xpm[] = {
"120 68 30 1",
" 	c None",
".	c #000000",
"+	c #B5B5B5",
"@	c #FFFFFF",
"#	c #D7D7D7",
"$	c #F9F9F9",
"%	c #959595",
"&	c #8F8F8F",
"*	c #F4F4F4",
"=	c #939393",
"-	c #7B7B7B",
";	c #282828",
">	c #292929",
",	c #A8A8A8",
"'	c #A5A5A5",
")	c #D4D4D4",
"!	c #4D4D4D",
"~	c #404040",
"{	c #B3B3B3",
"]	c #ABABAB",
"^	c #727272",
"/	c #A2A2A2",
"(	c #FCFCFC",
"_	c #FAFAFA",
":	c #606060",
"<	c #636363",
"[	c #B4B4B4",
"}	c #767676",
"|	c #7C7C7C",
"1	c #B0B0B0",
"                                                                                                                        ",
"                                                                                                                        ",
"                                                                                                                        ",
"                                                                                                                        ",
".............................................             .......................................                       ",
".............................................             .......................................                       ",
".............................................             .......................................                       ",
".............................................             .......................................                       ",
".............................................             .......................................                       ",
".............................................             .......................................                       ",
".....+@@@@@@@@@@@@@@@@@@@@@@@@@@@@@@@@@#...........       .....$@@@@@@@@@@@@@@@@@@@@@@@@@@@...........                  ",
".....+@@@@@@@@@@@@@@@@@@@@@@@@@@@@@@@@@#...........       .....$@@@@@@@@@@@@@@@@@@@@@@@@@@@...........                  ",
".....+@@@@@@@@@@@@@@@@@@@@@@@@@@@@@@@@@#...........       .....$@@@@@@@@@@@@@@@@@@@@@@@@@@@...........                  ",
".....+@@@@@@@@@@@@@@@@@@@@@@@@@@@@@@@@@#...........       .....$@@@@@@@@@@@@@@@@@@@@@@@@@@@...........                  ",
".....+@@@@@@@@@@@@@@@@@@@@@@@@@@@@@@@@@#...........       .....$@@@@@@@@@@@@@@@@@@@@@@@@@@@...........                  ",
".....+@@@@@@@@@@@@@@@@@@@@@@@@@@@@@@@@@#...........       .....$@@@@@@@@@@@@@@@@@@@@@@@@@@@%%%%%&.....                  ",
".....+@@@@@@@@@@@@@@@@@@@@@@@@@@@@@@@@@#...........       .....$@@@@@@@@@@@@@@@@@@@@@@@@@@@@@@@@*...........            ",
".....+@@@@@@@@@@@@@@@@@@@@@@@@@@@@@@@@@#...........       .....$@@@@@@@@@@@@@@@@@@@@@@@@@@@@@@@@*...........            ",
".....+@@@@@@@@@@@@@@@@@@@@@@@@@@@@@@@@@#...........       .....$@@@@@@@@@@@@@@@@@@@@@@@@@@@@@@@@*...........            ",
".....+@@@@@@@@@@@@@@@@@@@@@@@@@@@@@@@@@#...........       .....$@@@@@@@@@@@@@@@@@@@@@@@@@@@@@@@@*...........            ",
".....+@@@@@@@@@@@@@@@@@@@@@@@@@@@@@@@@@#...........       .....$@@@@@@@@@@@@@@@@@@@@@@@@@@@@@@@@*...........            ",
".....+@@@@@@@@@@@======================-...........       .....;>>>>>>>>>>>>>>>>>>>>>,@@@@@@@@@@*...........            ",
".....+@@@@@@@@@@@..................................       ...........................'@@@@@@@@@@*...........            ",
".....+@@@@@@@@@@@..................................       ...........................'@@@@@@@@@@*...........            ",
".....+@@@@@@@@@@@..................................       ...........................'@@@@@@@@@@*...........            ",
".....+@@@@@@@@@@@..................................       ...........................'@@@@@@@@@@*...........            ",
".....+@@@@@@@@@@@..................................       ...........................'@@@@@@@@@@*...........            ",
".....+@@@@@@@@@@@@@@@@@@@@@@@@@@@@.................            ...........)@@@@@@@@@@@@@@@@@@@@@*...........            ",
".....+@@@@@@@@@@@@@@@@@@@@@@@@@@@@.................            ...........)@@@@@@@@@@@@@@@@@@@@@*...........            ",
".....+@@@@@@@@@@@@@@@@@@@@@@@@@@@@.................            ...........)@@@@@@@@@@@@@@@@@@@@@*...........            ",
".....+@@@@@@@@@@@@@@@@@@@@@@@@@@@@.................            ...........)@@@@@@@@@@@@@@@@@@@@@*...........            ",
".....+@@@@@@@@@@@@@@@@@@@@@@@@@@@@.................            ...........)@@@@@@@@@@@@@@@@@@@@@*...........            ",
".....+@@@@@@@@@@@@@@@@@@@@@@@@@@@@!!!!!~...........                  .....)@@@@@@@@@@@@@@@@{{{{{]...........            ",
".....+@@@@@@@@@@@@@@@@@@@@@@@@@@@@@@@@@#...........                  .....)@@@@@@@@@@@@@@@@.................            ",
".....+@@@@@@@@@@@@@@@@@@@@@@@@@@@@@@@@@#...........                  .....)@@@@@@@@@@@@@@@@.................            ",
".....+@@@@@@@@@@@@@@@@@@@@@@@@@@@@@@@@@#...........                  .....)@@@@@@@@@@@@@@@@.................            ",
".....+@@@@@@@@@@@@@@@@@@@@@@@@@@@@@@@@@#...........                  .....)@@@@@@@@@@@@@@@@.................            ",
".....+@@@@@@@@@@@@@@@@@@@@@@@@@@@@@@@@@#...........                  .....)@@@@@@@@@@@@@@@@.................            ",
".....^//////////////////////(@@@@@@@@@@#...........       ...........................'@@@@@@@@@@*...........            ",
"............................_@@@@@@@@@@#...........       ...........................'@@@@@@@@@@*...........            ",
"............................_@@@@@@@@@@#...........       ...........................'@@@@@@@@@@*...........            ",
"............................_@@@@@@@@@@#...........       ...........................'@@@@@@@@@@*...........            ",
"............................_@@@@@@@@@@#...........       ...........................'@@@@@@@@@@*...........            ",
"............................_@@@@@@@@@@#...........       .....:<<<<<<<<<<<<<<<<<<<<<[@@@@@@@@@@*...........            ",
".....+@@@@@@@@@@@@@@@@@@@@@@@@@@@@@@@@@#...........       .....$@@@@@@@@@@@@@@@@@@@@@@@@@@@@@@@@*...........            ",
".....+@@@@@@@@@@@@@@@@@@@@@@@@@@@@@@@@@#...........       .....$@@@@@@@@@@@@@@@@@@@@@@@@@@@@@@@@*...........            ",
".....+@@@@@@@@@@@@@@@@@@@@@@@@@@@@@@@@@#...........       .....$@@@@@@@@@@@@@@@@@@@@@@@@@@@@@@@@*...........            ",
".....+@@@@@@@@@@@@@@@@@@@@@@@@@@@@@@@@@#...........       .....$@@@@@@@@@@@@@@@@@@@@@@@@@@@@@@@@*...........            ",
".....+@@@@@@@@@@@@@@@@@@@@@@@@@@@@@@@@@#...........       .....$@@@@@@@@@@@@@@@@@@@@@@@@@@@@@@@@*...........            ",
".....+@@@@@@@@@@@@@@@@@@@@@@@@@@@@@@@@@#...........       .....$@@@@@@@@@@@@@@@@@@@@@@@@@@@-----}...........            ",
".....+@@@@@@@@@@@@@@@@@@@@@@@@@@@@.................       .....$@@@@@@@@@@@@@@@@@@@@@@@@@@@.................            ",
".....+@@@@@@@@@@@@@@@@@@@@@@@@@@@@.................       .....$@@@@@@@@@@@@@@@@@@@@@@@@@@@.................            ",
".....+@@@@@@@@@@@@@@@@@@@@@@@@@@@@.................       .....$@@@@@@@@@@@@@@@@@@@@@@@@@@@.................            ",
".....+@@@@@@@@@@@@@@@@@@@@@@@@@@@@.................       .....$@@@@@@@@@@@@@@@@@@@@@@@@@@@.................            ",
".....+@@@@@@@@@@@@@@@@@@@@@@@@@@@@.................       .....$@@@@@@@@@@@@@@@@@@@@@@@@@@@.................            ",
".....|1111111111111111111111111111.................       ..................................................            ",
"...................................................       ..................................................            ",
"...................................................       ..................................................            ",
"...................................................       ..................................................            ",
"...................................................       ..................................................            ",
"...................................................       ..................................................            ",
"      .......................................                  .......................................                  ",
"      .......................................                  .......................................                  ",
"      .......................................                  .......................................                  ",
"      .......................................                  .......................................                  ",
"      .......................................                  .......................................                  ",
"                                                                                                                        ",
"                                                                                                                        "};
