/* XPM */
static xpm_row_t const time_18_xpm[] = {
"120 68 36 1",
" 	c None",
".	c #000000",
"+	c #5C5C5C",
"@	c #E2E2E2",
"#	c #6A6A6A",
"$	c #CDCDCD",
"%	c #888888",
"&	c #696969",
"*	c #FFFFFF",
"=	c #797979",
"-	c #AAAAAA",
";	c #F1F1F1",
">	c #ECECEC",
",	c #E5E5E5",
"'	c #EBEBEB",
")	c #898989",
"!	c #7C7C7C",
"~	c #757575",
"{	c #939393",
"]	c #EFEFEF",
"^	c #EAEAEA",
"/	c #EEEEEE",
"(	c #9C9C9C",
"_	c #E6E6E6",
":	c #DDDDDD",
"<	c #161616",
"[	c #7A7A7A",
"}	c #BEBEBE",
"|	c #F5F5F5",
"1	c #F4F4F4",
"2	c #3A3A3A",
"3	c #383838",
"4	c #F9F9F9",
"5	c #565656",
"6	c #D5D5D5",
"7	c #636363",
"                                                                                                                        ",
"                                                                                                                        ",
"                                                                                                                        ",
"                                                              ..................................                        ",
"           ............................                       ..................................                        ",
"           ............................                       ..................................                        ",
"           ............................                       ..................................                        ",
"           ............................                       ..................................                        ",
"           ............................                 ...........+@@@@@@@@@@@@@@@@@@@@@@#...........                  ",
"      ...........$$$$$$$$$$$$$$$$%..........            ...........&**********************=...........                  ",
"      ...........****************-...........           ...........&**********************=...........                  ",
"      ...........****************-...........           ...........&**********************=...........                  ",
"      ...........****************-...........           ...........&**********************=...........                  ",
"      ...........****************-...........           ...........&**********************=...........                  ",
"      ...........****************-...........           ......**********************************...........             ",
"      .....;*********************-...........           ......**********************************...........             ",
"      .....;*********************-...........           ......**********************************...........             ",
"      .....;*********************-...........           ......**********************************...........             ",
"      .....;*********************-...........           ......**********************************...........             ",
"      .....;*********************-...........           ......***********>,,,,,,,,,,'***********...........             ",
"      .....;*********************-...........           ......***********)..........!***********...........             ",
"      .....;*********************-...........           ......***********)..........!***********...........             ",
"      .....;*********************-...........           ......***********)..........!***********...........             ",
"      .....;*********************-...........           ......***********)..........!***********...........             ",
"      .....;*********************-...........           ......***********)..........!***********...........             ",
"      .....;*********************-...........           ......~~~~~{*****]^^^^^^^^^^/*****(~~~~~...........             ",
"      ...........****************-...........           ...........&**********************=................             ",
"      ...........****************-...........           ...........&**********************=................             ",
"      ...........****************-...........           ...........&**********************=................             ",
"      ...........****************-...........           ...........&**********************=................             ",
"      ...........****************-...........           ...........&**********************=................             ",
"      ...........****************-...........           ......**********************************...........             ",
"           ......****************-...........           ......**********************************...........             ",
"           ......****************-...........           ......**********************************...........             ",
"           ......****************-...........           ......**********************************...........             ",
"           ......****************-...........           ......**********************************...........             ",
"           ......****************-...........           ......***********_::::::::::,***********...........             ",
".................****************-................      ......***********)..........!***********...........             ",
".................****************-................      ......***********)..........!***********...........             ",
".................****************-................      ......***********)..........!***********...........             ",
".................****************-................      ......***********)..........!***********...........             ",
".................****************-................      ......***********)..........!***********...........             ",
".....<[[[[[[[[[[[****************}[[[[[...........      ......***********|;;;;;;;;;;1***********...........             ",
".....2*********************************...........      ......**********************************...........             ",
".....2*********************************...........      ......**********************************...........             ",
".....2*********************************...........      ......**********************************...........             ",
".....2*********************************...........      ......**********************************...........             ",
".....2*********************************...........      ......**********************************...........             ",
".....2*********************************...........      ...........&**********************=................             ",
".....2*********************************...........      ...........&**********************=................             ",
".....2*********************************...........      ...........&**********************=................             ",
".....2*********************************...........      ...........&**********************=................             ",
".....2*********************************...........      ...........&**********************=................             ",
".....3444444444444444444444444444444444...........       ..........566666666666666666666667................             ",
"..................................................            .............................................             ",
"..................................................            .............................................             ",
"..................................................            .............................................             ",
"..................................................            .............................................             ",
"..................................................            .............................................             ",
"      ............................................                  ..................................                  ",
"      ............................................                  ..................................                  ",
"      ............................................                  ..................................                  ",
"      ............................................                  ..................................                  ",
"      ............................................                  ..................................                  ",
"      ............................................                  ..................................                  ",
"                                                                                                                        ",
"                                                                                                                        ",
"                                                                                                                        "};
