/* XPM */
static xpm_row_t const time_16_xpm[] = {
"120 68 22 1",
" 	c None",
".	c #000000",
"+	c #B9B9B9",
"@	c #FFFFFF",
"#	c #A4A4A4",
"$	c #CDCDCD",
"%	c #888888",
"&	c #AAAAAA",
"*	c #F1F1F1",
"=	c #6D6D6D",
"-	c #505050",
";	c #E4E4E4",
">	c #161616",
",	c #7A7A7A",
"'	c #BEBEBE",
")	c #3A3A3A",
"!	c #C5C5C5",
"~	c #383838",
"{	c #F9F9F9",
"]	c #C2C2C2",
"^	c #FCFCFC",
"/	c #4F4F4F",
"                                                        .......................                                         ",
"                                                        .......................                                         ",
"                                                        .......................                                         ",
"                                                        .......................                                         ",
"           ............................                 .......................                                         ",
"           ............................                 .......................                                         ",
"           ............................                 .....+@@@@@@@@@@@#...........                                   ",
"           ............................                 .....+@@@@@@@@@@@#...........                                   ",
"           ............................                 .....+@@@@@@@@@@@#...........                                   ",
"      ...........$$$$$$$$$$$$$$$$%..........            .....+@@@@@@@@@@@#...........                                   ",
"      ...........@@@@@@@@@@@@@@@@&...........           .....+@@@@@@@@@@@#...........                                   ",
"      ...........@@@@@@@@@@@@@@@@&...........           .....+@@@@@@@@@@@#...........                                   ",
"      ...........@@@@@@@@@@@@@@@@&...........           .....+@@@@@@@@@@@#...........                                   ",
"      ...........@@@@@@@@@@@@@@@@&...........           .....+@@@@@@@@@@@#...........                                   ",
"      ...........@@@@@@@@@@@@@@@@&...........           .....+@@@@@@@@@@@#...........                                   ",
"      .....*@@@@@@@@@@@@@@@@@@@@@&...........           .....+@@@@@@@@@@@#...........                                   ",
"      .....*@@@@@@@@@@@@@@@@@@@@@&...........           .....+@@@@@@@@@@@#...........                                   ",
"      .....*@@@@@@@@@@@@@@@@@@@@@&...........           .....+@@@@@@@@@@@#...........                                   ",
"      .....*@@@@@@@@@@@@@@@@@@@@@&...........           .....+@@@@@@@@@@@#.......................                       ",
"      .....*@@@@@@@@@@@@@@@@@@@@@&...........           .....+@@@@@@@@@@@#.......................                       ",
"      .....*@@@@@@@@@@@@@@@@@@@@@&...........           .....+@@@@@@@@@@@#.......................                       ",
"      .....*@@@@@@@@@@@@@@@@@@@@@&...........           .....+@@@@@@@@@@@#.......................                       ",
"      .....*@@@@@@@@@@@@@@@@@@@@@&...........           .....+@@@@@@@@@@@#.......................                       ",
"      .....*@@@@@@@@@@@@@@@@@@@@@&...........           .....+@@@@@@@@@@@#.......................                       ",
"      .....*@@@@@@@@@@@@@@@@@@@@@&...........           .....+@@@@@@@@@@@@@@@@@@@@@@@@@@@@@=...........                 ",
"      .....*@@@@@@@@@@@@@@@@@@@@@&...........           .....+@@@@@@@@@@@@@@@@@@@@@@@@@@@@@=...........                 ",
"      ...........@@@@@@@@@@@@@@@@&...........           .....+@@@@@@@@@@@@@@@@@@@@@@@@@@@@@=...........                 ",
"      ...........@@@@@@@@@@@@@@@@&...........           .....+@@@@@@@@@@@@@@@@@@@@@@@@@@@@@=...........                 ",
"      ...........@@@@@@@@@@@@@@@@&...........           .....+@@@@@@@@@@@@@@@@@@@@@@@@@@@@@=...........                 ",
"      ...........@@@@@@@@@@@@@@@@&...........           .....+@@@@@@@@@@@@@@@@@@@@@@@@@@@@@=...........                 ",
"      ...........@@@@@@@@@@@@@@@@&...........           .....+@@@@@@@@@@@@@@@@@@@@@@@@@@@@@@@@@@@-...........           ",
"      ...........@@@@@@@@@@@@@@@@&...........           .....+@@@@@@@@@@@@@@@@@@@@@@@@@@@@@@@@@@@-...........           ",
"           ......@@@@@@@@@@@@@@@@&...........           .....+@@@@@@@@@@@@@@@@@@@@@@@@@@@@@@@@@@@-...........           ",
"           ......@@@@@@@@@@@@@@@@&...........           .....+@@@@@@@@@@@@@@@@@@@@@@@@@@@@@@@@@@@-...........           ",
"           ......@@@@@@@@@@@@@@@@&...........           .....+@@@@@@@@@@@@@@@@@@@@@@@@@@@@@@@@@@@-...........           ",
"           ......@@@@@@@@@@@@@@@@&...........           .....+@@@@@@@@@@@@@@@@@@@@@@@@@@@@@@@@@@@-...........           ",
"           ......@@@@@@@@@@@@@@@@&...........           .....+@@@@@@@@@@@#...........;@@@@@@@@@@@-...........           ",
".................@@@@@@@@@@@@@@@@&................      .....+@@@@@@@@@@@#...........;@@@@@@@@@@@-...........           ",
".................@@@@@@@@@@@@@@@@&................      .....+@@@@@@@@@@@#...........;@@@@@@@@@@@-...........           ",
".................@@@@@@@@@@@@@@@@&................      .....+@@@@@@@@@@@#...........;@@@@@@@@@@@-...........           ",
".................@@@@@@@@@@@@@@@@&................      .....+@@@@@@@@@@@#...........;@@@@@@@@@@@-...........           ",
".................@@@@@@@@@@@@@@@@&................      .....+@@@@@@@@@@@#...........;@@@@@@@@@@@-...........           ",
".....>,,,,,,,,,,,@@@@@@@@@@@@@@@@',,,,,...........      .....+@@@@@@@@@@@@@@@@@@@@@@@@@@@@@@@@@@@-...........           ",
".....)@@@@@@@@@@@@@@@@@@@@@@@@@@@@@@@@@...........      .....+@@@@@@@@@@@@@@@@@@@@@@@@@@@@@@@@@@@-...........           ",
".....)@@@@@@@@@@@@@@@@@@@@@@@@@@@@@@@@@...........      .....+@@@@@@@@@@@@@@@@@@@@@@@@@@@@@@@@@@@-...........           ",
".....)@@@@@@@@@@@@@@@@@@@@@@@@@@@@@@@@@...........      .....+@@@@@@@@@@@@@@@@@@@@@@@@@@@@@@@@@@@-...........           ",
".....)@@@@@@@@@@@@@@@@@@@@@@@@@@@@@@@@@...........      .....+@@@@@@@@@@@@@@@@@@@@@@@@@@@@@@@@@@@-...........           ",
".....)@@@@@@@@@@@@@@@@@@@@@@@@@@@@@@@@@...........      .....+@@@@@@@@@@@@@@@@@@@@@@@@@@@@@@@@@@@-...........           ",
".....)@@@@@@@@@@@@@@@@@@@@@@@@@@@@@@@@@...........      ...........!@@@@@@@@@@@@@@@@@@@@@@@@@@@@@-...........           ",
".....)@@@@@@@@@@@@@@@@@@@@@@@@@@@@@@@@@...........      ...........!@@@@@@@@@@@@@@@@@@@@@@@@@@@@@-...........           ",
".....)@@@@@@@@@@@@@@@@@@@@@@@@@@@@@@@@@...........      ...........!@@@@@@@@@@@@@@@@@@@@@@@@@@@@@-...........           ",
".....)@@@@@@@@@@@@@@@@@@@@@@@@@@@@@@@@@...........      ...........!@@@@@@@@@@@@@@@@@@@@@@@@@@@@@-...........           ",
".....)@@@@@@@@@@@@@@@@@@@@@@@@@@@@@@@@@...........      ...........!@@@@@@@@@@@@@@@@@@@@@@@@@@@@@-...........           ",
".....~{{{{{{{{{{{{{{{{{{{{{{{{{{{{{{{{{...........      ...........]^^^^^^^^^^^^^^^^^^^^^^^^^^^^^/...........           ",
"..................................................            ...............................................           ",
"..................................................            ...............................................           ",
"..................................................            ...............................................           ",
"..................................................            ...............................................           ",
"..................................................            ...............................................           ",
"      ............................................            ...............................................           ",
"      ............................................                 ....................................                 ",
"      ............................................                 ....................................                 ",
"      ............................................                 ....................................                 ",
"      ............................................                 ....................................                 ",
"      ............................................                 ....................................                 ",
"                                                                    ...................................                 ",
"                                                                                                                        ",
"                                                                                                                        "};
