/* XPM */
static xpm_row_t const time_30_xpm[] = {
"120 68 33 1",
" 	c None",
".	c #000000",
"+	c #F9F9F9",
"@	c #FFFFFF",
"#	c #494949",
"$	c #959595",
"%	c #8F8F8F",
"&	c #717171",
"*	c #818181",
"=	c #474747",
"-	c #F4F4F4",
";	c #A6A6A6",
">	c #282828",
",	c #292929",
"'	c #A8A8A8",
")	c #5B5B5B",
"!	c #0B0B0B",
"~	c #E2E2E2",
"{	c #A5A5A5",
"]	c #595959",
"^	c #D4D4D4",
"/	c #B3B3B3",
"(	c #ABABAB",
"_	c #606060",
":	c #636363",
"<	c #B4B4B4",
"[	c #E0E0E0",
"}	c #DCDCDC",
"|	c #F7F7F7",
"1	c #7B7B7B",
"2	c #767676",
"3	c #2F2F2F",
"4	c #AFAFAF",
"                                                                                                                        ",
"                                                                                                                        ",
"                                                                                                                        ",
"                                                                                                                        ",
".......................................                                                                                 ",
".......................................                      .................................                          ",
".......................................                      .................................                          ",
".......................................                      .................................                          ",
".......................................                      .................................                          ",
".......................................                      .................................                          ",
".....+@@@@@@@@@@@@@@@@@@@@@@@@@@@...........            ..........#@@@@@@@@@@@@@@@@@@@@@@...........                    ",
".....+@@@@@@@@@@@@@@@@@@@@@@@@@@@...........            ..........#@@@@@@@@@@@@@@@@@@@@@@...........                    ",
".....+@@@@@@@@@@@@@@@@@@@@@@@@@@@...........            ..........#@@@@@@@@@@@@@@@@@@@@@@...........                    ",
".....+@@@@@@@@@@@@@@@@@@@@@@@@@@@...........            ..........#@@@@@@@@@@@@@@@@@@@@@@...........                    ",
".....+@@@@@@@@@@@@@@@@@@@@@@@@@@@...........            ..........#@@@@@@@@@@@@@@@@@@@@@@...........                    ",
".....+@@@@@@@@@@@@@@@@@@@@@@@@@@@$$$$$%.....            .....&&&&&*@@@@@@@@@@@@@@@@@@@@@@&&&&&=.....                    ",
".....+@@@@@@@@@@@@@@@@@@@@@@@@@@@@@@@@-...........      .....@@@@@@@@@@@@@@@@@@@@@@@@@@@@@@@@@;...........              ",
".....+@@@@@@@@@@@@@@@@@@@@@@@@@@@@@@@@-...........      .....@@@@@@@@@@@@@@@@@@@@@@@@@@@@@@@@@;...........              ",
".....+@@@@@@@@@@@@@@@@@@@@@@@@@@@@@@@@-...........      .....@@@@@@@@@@@@@@@@@@@@@@@@@@@@@@@@@;...........              ",
".....+@@@@@@@@@@@@@@@@@@@@@@@@@@@@@@@@-...........      .....@@@@@@@@@@@@@@@@@@@@@@@@@@@@@@@@@;...........              ",
".....+@@@@@@@@@@@@@@@@@@@@@@@@@@@@@@@@-...........      .....@@@@@@@@@@@@@@@@@@@@@@@@@@@@@@@@@;...........              ",
".....>,,,,,,,,,,,,,,,,,,,,,'@@@@@@@@@@-...........      .....@@@@@@@@@@@)!!!!!!!!!!~@@@@@@@@@@;...........              ",
"...........................{@@@@@@@@@@-...........      .....@@@@@@@@@@@]..........~@@@@@@@@@@;...........              ",
"...........................{@@@@@@@@@@-...........      .....@@@@@@@@@@@]..........~@@@@@@@@@@;...........              ",
"...........................{@@@@@@@@@@-...........      .....@@@@@@@@@@@]..........~@@@@@@@@@@;...........              ",
"...........................{@@@@@@@@@@-...........      .....@@@@@@@@@@@]..........~@@@@@@@@@@;...........              ",
"...........................{@@@@@@@@@@-...........      .....@@@@@@@@@@@]..........~@@@@@@@@@@;...........              ",
"     ...........^@@@@@@@@@@@@@@@@@@@@@-...........      .....@@@@@@@@@@@]..........~@@@@@@@@@@;...........              ",
"     ...........^@@@@@@@@@@@@@@@@@@@@@-...........      .....@@@@@@@@@@@]..........~@@@@@@@@@@;...........              ",
"     ...........^@@@@@@@@@@@@@@@@@@@@@-...........      .....@@@@@@@@@@@]..........~@@@@@@@@@@;...........              ",
"     ...........^@@@@@@@@@@@@@@@@@@@@@-...........      .....@@@@@@@@@@@]..........~@@@@@@@@@@;...........              ",
"     ...........^@@@@@@@@@@@@@@@@@@@@@-...........      .....@@@@@@@@@@@]..........~@@@@@@@@@@;...........              ",
"           .....^@@@@@@@@@@@@@@@@/////(...........      .....@@@@@@@@@@@]..........~@@@@@@@@@@;...........              ",
"           .....^@@@@@@@@@@@@@@@@.................      .....@@@@@@@@@@@]..........~@@@@@@@@@@;...........              ",
"           .....^@@@@@@@@@@@@@@@@.................      .....@@@@@@@@@@@]..........~@@@@@@@@@@;...........              ",
"           .....^@@@@@@@@@@@@@@@@.................      .....@@@@@@@@@@@]..........~@@@@@@@@@@;...........              ",
"           .....^@@@@@@@@@@@@@@@@.................      .....@@@@@@@@@@@]..........~@@@@@@@@@@;...........              ",
"           .....^@@@@@@@@@@@@@@@@.................      .....@@@@@@@@@@@]..........~@@@@@@@@@@;...........              ",
"...........................{@@@@@@@@@@-...........      .....@@@@@@@@@@@]..........~@@@@@@@@@@;...........              ",
"...........................{@@@@@@@@@@-...........      .....@@@@@@@@@@@]..........~@@@@@@@@@@;...........              ",
"...........................{@@@@@@@@@@-...........      .....@@@@@@@@@@@]..........~@@@@@@@@@@;...........              ",
"...........................{@@@@@@@@@@-...........      .....@@@@@@@@@@@]..........~@@@@@@@@@@;...........              ",
"...........................{@@@@@@@@@@-...........      .....@@@@@@@@@@@]..........~@@@@@@@@@@;...........              ",
"....._:::::::::::::::::::::<@@@@@@@@@@-...........      .....@@@@@@@@@@@[}}}}}}}}}}|@@@@@@@@@@;...........              ",
".....+@@@@@@@@@@@@@@@@@@@@@@@@@@@@@@@@-...........      .....@@@@@@@@@@@@@@@@@@@@@@@@@@@@@@@@@;...........              ",
".....+@@@@@@@@@@@@@@@@@@@@@@@@@@@@@@@@-...........      .....@@@@@@@@@@@@@@@@@@@@@@@@@@@@@@@@@;...........              ",
".....+@@@@@@@@@@@@@@@@@@@@@@@@@@@@@@@@-...........      .....@@@@@@@@@@@@@@@@@@@@@@@@@@@@@@@@@;...........              ",
".....+@@@@@@@@@@@@@@@@@@@@@@@@@@@@@@@@-...........      .....@@@@@@@@@@@@@@@@@@@@@@@@@@@@@@@@@;...........              ",
".....+@@@@@@@@@@@@@@@@@@@@@@@@@@@@@@@@-...........      .....@@@@@@@@@@@@@@@@@@@@@@@@@@@@@@@@@;...........              ",
".....+@@@@@@@@@@@@@@@@@@@@@@@@@@@111112...........      ..........#@@@@@@@@@@@@@@@@@@@@@@.................              ",
".....+@@@@@@@@@@@@@@@@@@@@@@@@@@@.................      ..........#@@@@@@@@@@@@@@@@@@@@@@.................              ",
".....+@@@@@@@@@@@@@@@@@@@@@@@@@@@.................      ..........#@@@@@@@@@@@@@@@@@@@@@@.................              ",
".....+@@@@@@@@@@@@@@@@@@@@@@@@@@@.................      ..........#@@@@@@@@@@@@@@@@@@@@@@.................              ",
".....+@@@@@@@@@@@@@@@@@@@@@@@@@@@.................      ..........#@@@@@@@@@@@@@@@@@@@@@@.................              ",
".....+@@@@@@@@@@@@@@@@@@@@@@@@@@@.................           .....34444444444444444444444.................              ",
"..................................................           .............................................              ",
"..................................................           .............................................              ",
"..................................................           .............................................              ",
"..................................................           .............................................              ",
"..................................................           .............................................              ",
"..................................................                 .................................                    ",
"     .......................................                       .................................                    ",
"     .......................................                       .................................                    ",
"     .......................................                       .................................                    ",
"     .......................................                       .................................                    ",
"     .......................................                       .................................                    ",
"                                                                                                                        ",
"                                                                                                                        "};
