/* XPM */
static xpm_row_t const time_38_xpm[] = {
"120 68 41 1",
" 	c None",
".	c #000000",
"+	c #F9F9F9",
"@	c #FFFFFF",
"#	c #5C5C5C",
"$	c #E2E2E2",
"%	c #6A6A6A",
"&	c #696969",
"*	c #797979",
"=	c #959595",
"-	c #8F8F8F",
";	c #F4F4F4",
">	c #282828",
",	c #292929",
"'	c #A8A8A8",
")	c #ECECEC",
"!	c #E5E5E5",
"~	c #EBEBEB",
"{	c #A5A5A5",
"]	c #898989",
"^	c #7C7C7C",
"/	c #D4D4D4",
"(	c #757575",
"_	c #939393",
":	c #EFEFEF",
"<	c #EAEAEA",
"[	c #EEEEEE",
"}	c #9C9C9C",
"|	c #B3B3B3",
"1	c #ABABAB",
"2	c #E6E6E6",
"3	c #DDDDDD",
"4	c #606060",
"5	c #636363",
"6	c #B4B4B4",
"7	c #F5F5F5",
"8	c #F1F1F1",
"9	c #7B7B7B",
"0	c #767676",
"a	c #565656",
"b	c #D5D5D5",
"                                                                                                                        ",
"                                                                                                                        ",
"                                                                                                                        ",
"                                                                                                                        ",
".......................................                                                                                 ",
".......................................                       ..................................                        ",
".......................................                       ..................................                        ",
".......................................                       ..................................                        ",
".......................................                       ..................................                        ",
".......................................                       ..................................                        ",
".....+@@@@@@@@@@@@@@@@@@@@@@@@@@@...........            ...........#$$$$$$$$$$$$$$$$$$$$$$%...........                  ",
".....+@@@@@@@@@@@@@@@@@@@@@@@@@@@...........            ...........&@@@@@@@@@@@@@@@@@@@@@@*...........                  ",
".....+@@@@@@@@@@@@@@@@@@@@@@@@@@@...........            ...........&@@@@@@@@@@@@@@@@@@@@@@*...........                  ",
".....+@@@@@@@@@@@@@@@@@@@@@@@@@@@...........            ...........&@@@@@@@@@@@@@@@@@@@@@@*...........                  ",
".....+@@@@@@@@@@@@@@@@@@@@@@@@@@@...........            ...........&@@@@@@@@@@@@@@@@@@@@@@*...........                  ",
".....+@@@@@@@@@@@@@@@@@@@@@@@@@@@=====-.....            ...........&@@@@@@@@@@@@@@@@@@@@@@*...........                  ",
".....+@@@@@@@@@@@@@@@@@@@@@@@@@@@@@@@@;...........      ......@@@@@@@@@@@@@@@@@@@@@@@@@@@@@@@@@@...........             ",
".....+@@@@@@@@@@@@@@@@@@@@@@@@@@@@@@@@;...........      ......@@@@@@@@@@@@@@@@@@@@@@@@@@@@@@@@@@...........             ",
".....+@@@@@@@@@@@@@@@@@@@@@@@@@@@@@@@@;...........      ......@@@@@@@@@@@@@@@@@@@@@@@@@@@@@@@@@@...........             ",
".....+@@@@@@@@@@@@@@@@@@@@@@@@@@@@@@@@;...........      ......@@@@@@@@@@@@@@@@@@@@@@@@@@@@@@@@@@...........             ",
".....+@@@@@@@@@@@@@@@@@@@@@@@@@@@@@@@@;...........      ......@@@@@@@@@@@@@@@@@@@@@@@@@@@@@@@@@@...........             ",
".....>,,,,,,,,,,,,,,,,,,,,,'@@@@@@@@@@;...........      ......@@@@@@@@@@@)!!!!!!!!!!~@@@@@@@@@@@...........             ",
"...........................{@@@@@@@@@@;...........      ......@@@@@@@@@@@]..........^@@@@@@@@@@@...........             ",
"...........................{@@@@@@@@@@;...........      ......@@@@@@@@@@@]..........^@@@@@@@@@@@...........             ",
"...........................{@@@@@@@@@@;...........      ......@@@@@@@@@@@]..........^@@@@@@@@@@@...........             ",
"...........................{@@@@@@@@@@;...........      ......@@@@@@@@@@@]..........^@@@@@@@@@@@...........             ",
"...........................{@@@@@@@@@@;...........      ......@@@@@@@@@@@]..........^@@@@@@@@@@@...........             ",
"     .........../@@@@@@@@@@@@@@@@@@@@@;...........      ......(((((_@@@@@:<<<<<<<<<<[@@@@@}(((((...........             ",
"     .........../@@@@@@@@@@@@@@@@@@@@@;...........      ...........&@@@@@@@@@@@@@@@@@@@@@@*................             ",
"     .........../@@@@@@@@@@@@@@@@@@@@@;...........      ...........&@@@@@@@@@@@@@@@@@@@@@@*................             ",
"     .........../@@@@@@@@@@@@@@@@@@@@@;...........      ...........&@@@@@@@@@@@@@@@@@@@@@@*................             ",
"     .........../@@@@@@@@@@@@@@@@@@@@@;...........      ...........&@@@@@@@@@@@@@@@@@@@@@@*................             ",
"           ...../@@@@@@@@@@@@@@@@|||||1...........      ...........&@@@@@@@@@@@@@@@@@@@@@@*................             ",
"           ...../@@@@@@@@@@@@@@@@.................      ......@@@@@@@@@@@@@@@@@@@@@@@@@@@@@@@@@@...........             ",
"           ...../@@@@@@@@@@@@@@@@.................      ......@@@@@@@@@@@@@@@@@@@@@@@@@@@@@@@@@@...........             ",
"           ...../@@@@@@@@@@@@@@@@.................      ......@@@@@@@@@@@@@@@@@@@@@@@@@@@@@@@@@@...........             ",
"           ...../@@@@@@@@@@@@@@@@.................      ......@@@@@@@@@@@@@@@@@@@@@@@@@@@@@@@@@@...........             ",
"           ...../@@@@@@@@@@@@@@@@.................      ......@@@@@@@@@@@@@@@@@@@@@@@@@@@@@@@@@@...........             ",
"...........................{@@@@@@@@@@;...........      ......@@@@@@@@@@@23333333333!@@@@@@@@@@@...........             ",
"...........................{@@@@@@@@@@;...........      ......@@@@@@@@@@@]..........^@@@@@@@@@@@...........             ",
"...........................{@@@@@@@@@@;...........      ......@@@@@@@@@@@]..........^@@@@@@@@@@@...........             ",
"...........................{@@@@@@@@@@;...........      ......@@@@@@@@@@@]..........^@@@@@@@@@@@...........             ",
"...........................{@@@@@@@@@@;...........      ......@@@@@@@@@@@]..........^@@@@@@@@@@@...........             ",
".....45555555555555555555556@@@@@@@@@@;...........      ......@@@@@@@@@@@]..........^@@@@@@@@@@@...........             ",
".....+@@@@@@@@@@@@@@@@@@@@@@@@@@@@@@@@;...........      ......@@@@@@@@@@@78888888888;@@@@@@@@@@@...........             ",
".....+@@@@@@@@@@@@@@@@@@@@@@@@@@@@@@@@;...........      ......@@@@@@@@@@@@@@@@@@@@@@@@@@@@@@@@@@...........             ",
".....+@@@@@@@@@@@@@@@@@@@@@@@@@@@@@@@@;...........      ......@@@@@@@@@@@@@@@@@@@@@@@@@@@@@@@@@@...........             ",
".....+@@@@@@@@@@@@@@@@@@@@@@@@@@@@@@@@;...........      ......@@@@@@@@@@@@@@@@@@@@@@@@@@@@@@@@@@...........             ",
".....+@@@@@@@@@@@@@@@@@@@@@@@@@@@@@@@@;...........      ......@@@@@@@@@@@@@@@@@@@@@@@@@@@@@@@@@@...........             ",
".....+@@@@@@@@@@@@@@@@@@@@@@@@@@@999990...........      ......@@@@@@@@@@@@@@@@@@@@@@@@@@@@@@@@@@...........             ",
".....+@@@@@@@@@@@@@@@@@@@@@@@@@@@.................      ...........&@@@@@@@@@@@@@@@@@@@@@@*................             ",
".....+@@@@@@@@@@@@@@@@@@@@@@@@@@@.................      ...........&@@@@@@@@@@@@@@@@@@@@@@*................             ",
".....+@@@@@@@@@@@@@@@@@@@@@@@@@@@.................      ...........&@@@@@@@@@@@@@@@@@@@@@@*................             ",
".....+@@@@@@@@@@@@@@@@@@@@@@@@@@@.................      ...........&@@@@@@@@@@@@@@@@@@@@@@*................             ",
".....+@@@@@@@@@@@@@@@@@@@@@@@@@@@.................      ...........&@@@@@@@@@@@@@@@@@@@@@@*................             ",
"..................................................       ..........abbbbbbbbbbbbbbbbbbbbbb5................             ",
"..................................................            .............................................             ",
"..................................................            .............................................             ",
"..................................................            .............................................             ",
"..................................................            .............................................             ",
"..................................................            .............................................             ",
"     .......................................                        ..................................                  ",
"     .......................................                        ..................................                  ",
"     .......................................                        ..................................                  ",
"     .......................................                        ..................................                  ",
"     .......................................                        ..................................                  ",
"                                                                    ..................................                  ",
"                                                                                                                        "};
