/* XPM */
static xpm_row_t const time_29_xpm[] = {
"120 68 27 1",
" 	c None",
".	c #000000",
"+	c #CCCCCC",
"@	c #FFFFFF",
"#	c #C1C1C1",
"$	c #555555",
"%	c #DDDDDD",
"&	c #797979",
"*	c #F3F3F3",
"=	c #9D9D9D",
"-	c #B8B8B8",
";	c #D3D3D3",
">	c #EDEDED",
",	c #808080",
"'	c #9B9B9B",
")	c #2C2C2C",
"!	c #8F8F8F",
"~	c #D6D6D6",
"{	c #AAAAAA",
"]	c #E8E8E8",
"^	c #CBCBCB",
"/	c #999999",
"(	c #676767",
"_	c #DCDCDC",
":	c #323232",
"<	c #6C6C6C",
"[	c #5C5C5C",
"                                                                                                                        ",
"                                                                                                                        ",
"                                                                                                                        ",
"                                                                                                                        ",
"                                                             .................................                          ",
"      ................................                       .................................                          ",
"      ................................                       .................................                          ",
"      ................................                       .................................                          ",
"      ................................                       .................................                          ",
"      ................................                 ...........++++++++++++++++++++++...........                     ",
"      ................................                 ...........@@@@@@@@@@@@@@@@@@@@@@...........                     ",
"...........@@@@@@@@@@@@@@@@@@@@@#..........            ...........@@@@@@@@@@@@@@@@@@@@@@...........                     ",
"...........@@@@@@@@@@@@@@@@@@@@@#..........            ...........@@@@@@@@@@@@@@@@@@@@@@...........                     ",
"...........@@@@@@@@@@@@@@@@@@@@@#..........            ...........@@@@@@@@@@@@@@@@@@@@@@...........                     ",
"...........@@@@@@@@@@@@@@@@@@@@@#..........            ...........@@@@@@@@@@@@@@@@@@@@@@...........                     ",
"...........@@@@@@@@@@@@@@@@@@@@@#..........            .....$@@@@@@@@@@@@@@@@@@@@@@@@@@@@@@@@%...........               ",
".....&@@@@@@@@@@@@@@@@@@@@@@@@@@@@@@@@...........      .....$@@@@@@@@@@@@@@@@@@@@@@@@@@@@@@@@%...........               ",
".....&@@@@@@@@@@@@@@@@@@@@@@@@@@@@@@@@...........      .....$@@@@@@@@@@@@@@@@@@@@@@@@@@@@@@@@%...........               ",
".....&@@@@@@@@@@@@@@@@@@@@@@@@@@@@@@@@...........      .....$@@@@@@@@@@@@@@@@@@@@@@@@@@@@@@@@%...........               ",
".....&@@@@@@@@@@@@@@@@@@@@@@@@@@@@@@@@...........      .....$@@@@@@@@@@@@@@@@@@@@@@@@@@@@@@@@%...........               ",
".....&@@@@@@@@@@@@@@@@@@@@@@@@@@@@@@@@...........      .....$@@@@@@@@@@*==========-@@@@@@@@@@%...........               ",
".....&@@@@@@@@@@;----------@@@@@@@@@@@...........      .....$@@@@@@@@@@>..........,@@@@@@@@@@%...........               ",
".....&@@@@@@@@@@'..........@@@@@@@@@@@...........      .....$@@@@@@@@@@>..........,@@@@@@@@@@%...........               ",
".....&@@@@@@@@@@'..........@@@@@@@@@@@...........      .....$@@@@@@@@@@>..........,@@@@@@@@@@%...........               ",
".....&@@@@@@@@@@'..........@@@@@@@@@@@...........      .....$@@@@@@@@@@>..........,@@@@@@@@@@%...........               ",
".....&@@@@@@@@@@'..........@@@@@@@@@@@...........      .....$@@@@@@@@@@>..........,@@@@@@@@@@%...........               ",
".....&@@@@@@@@@@'..........@@@@@@@@@@@...........      .....$@@@@@@@@@@@@@@@@@@@@@@@@@@@@@@@@%...........               ",
".....&@@@@@@@@@@'.....@@@@@@@@@@@@@@@@...........      .....$@@@@@@@@@@@@@@@@@@@@@@@@@@@@@@@@%...........               ",
".....&@@@@@@@@@@'.....@@@@@@@@@@@@@@@@...........      .....$@@@@@@@@@@@@@@@@@@@@@@@@@@@@@@@@%...........               ",
".....&@@@@@@@@@@'.....@@@@@@@@@@@@@@@@...........      .....$@@@@@@@@@@@@@@@@@@@@@@@@@@@@@@@@%...........               ",
".....&@@@@@@@@@@'.....@@@@@@@@@@@@@@@@...........      .....$@@@@@@@@@@@@@@@@@@@@@@@@@@@@@@@@%...........               ",
".....&@@@@@@@@@@'.....@@@@@@@@@@@@@@@@...........      .....)!!!!!@@@@@@@@@@@@@@@@@@@@@@@@@@@%...........               ",
"................~@@@@@@@@@@@@@@@#................      ...........@@@@@@@@@@@@@@@@@@@@@@@@@@@%...........               ",
"................~@@@@@@@@@@@@@@@#................      ...........@@@@@@@@@@@@@@@@@@@@@@@@@@@%...........               ",
"................~@@@@@@@@@@@@@@@#................      ...........@@@@@@@@@@@@@@@@@@@@@@@@@@@%...........               ",
"................~@@@@@@@@@@@@@@@#................      ...........@@@@@@@@@@@@@@@@@@@@@@@@@@@%...........               ",
"................~@@@@@@@@@@@@@@@#................      ...........@@@@@@@@@@@@@@@@@@@@@@@@@@@%...........               ",
"...........{{{{{]@@@@@@@@@@^^^^^/................            .....................,@@@@@@@@@@%...........               ",
"...........@@@@@@@@@@@@@@@@......................            .....................,@@@@@@@@@@%...........               ",
"...........@@@@@@@@@@@@@@@@......................            .....................,@@@@@@@@@@%...........               ",
"...........@@@@@@@@@@@@@@@@......................            .....................,@@@@@@@@@@%...........               ",
"...........@@@@@@@@@@@@@@@@......................            .....................,@@@@@@@@@@%...........               ",
"...........@@@@@@@@@@@@@@@@......................                 ................,@@@@@@@@@@%...........               ",
".....&@@@@@@@@@@@@@@@@@@@@@@@@@@@@@@@@...........                 ................,@@@@@@@@@@%...........               ",
".....&@@@@@@@@@@@@@@@@@@@@@@@@@@@@@@@@...........                 ................,@@@@@@@@@@%...........               ",
".....&@@@@@@@@@@@@@@@@@@@@@@@@@@@@@@@@...........                 ................,@@@@@@@@@@%...........               ",
".....&@@@@@@@@@@@@@@@@@@@@@@@@@@@@@@@@...........                 ................,@@@@@@@@@@%...........               ",
".....&@@@@@@@@@@@@@@@@@@@@@@@@@@@@@@@@...........                 ................,@@@@@@@@@@%...........               ",
".....&@@@@@@@@@@@@@@@@@@@@@@@@@@@@@@@@...........                            .....,@@@@@@@@@@%...........               ",
".....&@@@@@@@@@@@@@@@@@@@@@@@@@@@@@@@@...........                            .....,@@@@@@@@@@%...........               ",
".....&@@@@@@@@@@@@@@@@@@@@@@@@@@@@@@@@...........                            .....,@@@@@@@@@@%...........               ",
".....&@@@@@@@@@@@@@@@@@@@@@@@@@@@@@@@@...........                            .....,@@@@@@@@@@%...........               ",
".....&@@@@@@@@@@@@@@@@@@@@@@@@@@@@@@@@...........                            .....,@@@@@@@@@@%...........               ",
".....(________________________________...........                            .....:<<<<<<<<<<[...........               ",
".................................................                            ............................               ",
".................................................                            ............................               ",
".................................................                            ............................               ",
".................................................                            ............................               ",
".................................................                            ............................               ",
"      ...........................................                                  ......................               ",
"      ...........................................                                  ......................               ",
"      ...........................................                                  ......................               ",
"      ...........................................                                  ......................               ",
"      ...........................................                                  ......................               ",
"                                                                                                                        ",
"                                                                                                                        ",
"                                                                                                                        ",
"                                                                                                                        "};
