/* XPM */
static xpm_row_t const time_17_xpm[] = {
"120 68 22 1",
" 	c None",
".	c #000000",
"+	c #FEFEFE",
"@	c #DEDEDE",
"#	c #FFFFFF",
"$	c #DFDFDF",
"%	c #CDCDCD",
"&	c #888888",
"*	c #AAAAAA",
"=	c #F1F1F1",
"-	c #F6F6F6",
";	c #727272",
">	c #BABABA",
",	c #9E9E9E",
"'	c #161616",
")	c #7A7A7A",
"!	c #BEBEBE",
"~	c #3A3A3A",
"{	c #383838",
"]	c #F9F9F9",
"^	c #747474",
"/	c #656565",
"                                                                                                                        ",
"                                                       .............................................                    ",
"                                                      ..............................................                    ",
"                                                      ..............................................                    ",
"           ............................               ..............................................                    ",
"           ............................               ..............................................                    ",
"           ............................               ..............................................                    ",
"           ............................               ......++++++++++++++++++++++++++++++++++@...........              ",
"           ............................               ......##################################$...........              ",
"      ...........%%%%%%%%%%%%%%%%&..........          ......##################################$...........              ",
"      ...........################*...........         ......##################################$...........              ",
"      ...........################*...........         ......##################################$...........              ",
"      ...........################*...........         ......##################################$...........              ",
"      ...........################*...........         ......##################################$...........              ",
"      ...........################*...........         ......##################################$...........              ",
"      .....=#####################*...........         ......##################################$...........              ",
"      .....=#####################*...........         ......##################################$...........              ",
"      .....=#####################*...........         ......##################################$...........              ",
"      .....=#####################*...........         ......-----------------------###########$...........              ",
"      .....=#####################*...........         .............................###########$...........              ",
"      .....=#####################*...........         .............................###########$...........              ",
"      .....=#####################*...........         .............................###########$...........              ",
"      .....=#####################*...........         .............................###########$...........              ",
"      .....=#####################*...........         .............................###########$...........              ",
"      .....=#####################*...........          ................;>>>>>>>>>>>###########$...........              ",
"      .....=#####################*...........               ...........,######################$...........              ",
"      ...........################*...........               ...........,######################$...........              ",
"      ...........################*...........               ...........,######################$...........              ",
"      ...........################*...........               ...........,######################$...........              ",
"      ...........################*...........               ...........,######################$...........              ",
"      ...........################*...........                     .....,######################$...........              ",
"      ...........################*...........                     .....,######################$...........              ",
"           ......################*...........                     .....,######################$...........              ",
"           ......################*...........                     .....,######################$...........              ",
"           ......################*...........                     .....,######################$...........              ",
"           ......################*...........                     .....,######################$...........              ",
"           ......################*...........                     .................###########$...........              ",
".................################*................                .................###########$...........              ",
".................################*................                .................###########$...........              ",
".................################*................                .................###########$...........              ",
".................################*................                .................###########$...........              ",
".................################*................                .................###########$...........              ",
".....')))))))))))################!)))))...........                      ...........###########$...........              ",
".....~#################################...........                      ...........###########$...........              ",
".....~#################################...........                      ...........###########$...........              ",
".....~#################################...........                      ...........###########$...........              ",
".....~#################################...........                      ...........###########$...........              ",
".....~#################################...........                      ...........###########$...........              ",
".....~#################################...........                           ......###########$...........              ",
".....~#################################...........                           ......###########$...........              ",
".....~#################################...........                           ......###########$...........              ",
".....~#################################...........                           ......###########$...........              ",
".....~#################################...........                           ......###########$...........              ",
".....{]]]]]]]]]]]]]]]]]]]]]]]]]]]]]]]]]...........                           ......^^^^^^^^^^^/...........              ",
"..................................................                           .............................              ",
"..................................................                           .............................              ",
"..................................................                           .............................              ",
"..................................................                           .............................              ",
"..................................................                           .............................              ",
"      ............................................                                       .................              ",
"      ............................................                                       .................              ",
"      ............................................                                       .................              ",
"      ............................................                                       .................              ",
"      ............................................                                       .................              ",
"      ............................................                                       .................              ",
"                                                                                                                        ",
"                                                                                                                        ",
"                                                                                                                        "};
