/* XPM */
static xpm_row_t const time_28_xpm[] = {
"120 68 38 1",
" 	c None",
".	c #000000",
"+	c #5C5C5C",
"@	c #E2E2E2",
"#	c #6A6A6A",
"$	c #696969",
"%	c #FFFFFF",
"&	c #797979",
"*	c #C1C1C1",
"=	c #ECECEC",
"-	c #E5E5E5",
";	c #EBEBEB",
">	c #D3D3D3",
",	c #B8B8B8",
"'	c #898989",
")	c #7C7C7C",
"!	c #9B9B9B",
"~	c #757575",
"{	c #939393",
"]	c #EFEFEF",
"^	c #EAEAEA",
"/	c #EEEEEE",
"(	c #9C9C9C",
"_	c #D6D6D6",
":	c #AAAAAA",
"<	c #E8E8E8",
"[	c #CBCBCB",
"}	c #999999",
"|	c #E6E6E6",
"1	c #DDDDDD",
"2	c #F5F5F5",
"3	c #F1F1F1",
"4	c #F4F4F4",
"5	c #676767",
"6	c #DCDCDC",
"7	c #565656",
"8	c #D5D5D5",
"9	c #636363",
"                                                                                                                        ",
"                                                                                                                        ",
"                                                                                                                        ",
"                                                                                                                        ",
"                                                             ..................................                         ",
"      ................................                       ..................................                         ",
"      ................................                       ..................................                         ",
"      ................................                       ..................................                         ",
"      ................................                       ..................................                         ",
"      ................................                 ...........+@@@@@@@@@@@@@@@@@@@@@@#...........                   ",
"      ................................                 ...........$%%%%%%%%%%%%%%%%%%%%%%&...........                   ",
"...........%%%%%%%%%%%%%%%%%%%%%*..........            ...........$%%%%%%%%%%%%%%%%%%%%%%&...........                   ",
"...........%%%%%%%%%%%%%%%%%%%%%*..........            ...........$%%%%%%%%%%%%%%%%%%%%%%&...........                   ",
"...........%%%%%%%%%%%%%%%%%%%%%*..........            ...........$%%%%%%%%%%%%%%%%%%%%%%&...........                   ",
"...........%%%%%%%%%%%%%%%%%%%%%*..........            ...........$%%%%%%%%%%%%%%%%%%%%%%&...........                   ",
"...........%%%%%%%%%%%%%%%%%%%%%*..........            ......%%%%%%%%%%%%%%%%%%%%%%%%%%%%%%%%%%...........              ",
".....&%%%%%%%%%%%%%%%%%%%%%%%%%%%%%%%%...........      ......%%%%%%%%%%%%%%%%%%%%%%%%%%%%%%%%%%...........              ",
".....&%%%%%%%%%%%%%%%%%%%%%%%%%%%%%%%%...........      ......%%%%%%%%%%%%%%%%%%%%%%%%%%%%%%%%%%...........              ",
".....&%%%%%%%%%%%%%%%%%%%%%%%%%%%%%%%%...........      ......%%%%%%%%%%%%%%%%%%%%%%%%%%%%%%%%%%...........              ",
".....&%%%%%%%%%%%%%%%%%%%%%%%%%%%%%%%%...........      ......%%%%%%%%%%%%%%%%%%%%%%%%%%%%%%%%%%...........              ",
".....&%%%%%%%%%%%%%%%%%%%%%%%%%%%%%%%%...........      ......%%%%%%%%%%%=----------;%%%%%%%%%%%...........              ",
".....&%%%%%%%%%%>,,,,,,,,,,%%%%%%%%%%%...........      ......%%%%%%%%%%%'..........)%%%%%%%%%%%...........              ",
".....&%%%%%%%%%%!..........%%%%%%%%%%%...........      ......%%%%%%%%%%%'..........)%%%%%%%%%%%...........              ",
".....&%%%%%%%%%%!..........%%%%%%%%%%%...........      ......%%%%%%%%%%%'..........)%%%%%%%%%%%...........              ",
".....&%%%%%%%%%%!..........%%%%%%%%%%%...........      ......%%%%%%%%%%%'..........)%%%%%%%%%%%...........              ",
".....&%%%%%%%%%%!..........%%%%%%%%%%%...........      ......%%%%%%%%%%%'..........)%%%%%%%%%%%...........              ",
".....&%%%%%%%%%%!..........%%%%%%%%%%%...........      ......~~~~~{%%%%%]^^^^^^^^^^/%%%%%(~~~~~...........              ",
".....&%%%%%%%%%%!.....%%%%%%%%%%%%%%%%...........      ...........$%%%%%%%%%%%%%%%%%%%%%%&................              ",
".....&%%%%%%%%%%!.....%%%%%%%%%%%%%%%%...........      ...........$%%%%%%%%%%%%%%%%%%%%%%&................              ",
".....&%%%%%%%%%%!.....%%%%%%%%%%%%%%%%...........      ...........$%%%%%%%%%%%%%%%%%%%%%%&................              ",
".....&%%%%%%%%%%!.....%%%%%%%%%%%%%%%%...........      ...........$%%%%%%%%%%%%%%%%%%%%%%&................              ",
".....&%%%%%%%%%%!.....%%%%%%%%%%%%%%%%...........      ...........$%%%%%%%%%%%%%%%%%%%%%%&................              ",
"................_%%%%%%%%%%%%%%%*................      ......%%%%%%%%%%%%%%%%%%%%%%%%%%%%%%%%%%...........              ",
"................_%%%%%%%%%%%%%%%*................      ......%%%%%%%%%%%%%%%%%%%%%%%%%%%%%%%%%%...........              ",
"................_%%%%%%%%%%%%%%%*................      ......%%%%%%%%%%%%%%%%%%%%%%%%%%%%%%%%%%...........              ",
"................_%%%%%%%%%%%%%%%*................      ......%%%%%%%%%%%%%%%%%%%%%%%%%%%%%%%%%%...........              ",
"................_%%%%%%%%%%%%%%%*................      ......%%%%%%%%%%%%%%%%%%%%%%%%%%%%%%%%%%...........              ",
"...........:::::<%%%%%%%%%%[[[[[}................      ......%%%%%%%%%%%|1111111111-%%%%%%%%%%%...........              ",
"...........%%%%%%%%%%%%%%%%......................      ......%%%%%%%%%%%'..........)%%%%%%%%%%%...........              ",
"...........%%%%%%%%%%%%%%%%......................      ......%%%%%%%%%%%'..........)%%%%%%%%%%%...........              ",
"...........%%%%%%%%%%%%%%%%......................      ......%%%%%%%%%%%'..........)%%%%%%%%%%%...........              ",
"...........%%%%%%%%%%%%%%%%......................      ......%%%%%%%%%%%'..........)%%%%%%%%%%%...........              ",
"...........%%%%%%%%%%%%%%%%......................      ......%%%%%%%%%%%'..........)%%%%%%%%%%%...........              ",
".....&%%%%%%%%%%%%%%%%%%%%%%%%%%%%%%%%...........      ......%%%%%%%%%%%233333333334%%%%%%%%%%%...........              ",
".....&%%%%%%%%%%%%%%%%%%%%%%%%%%%%%%%%...........      ......%%%%%%%%%%%%%%%%%%%%%%%%%%%%%%%%%%...........              ",
".....&%%%%%%%%%%%%%%%%%%%%%%%%%%%%%%%%...........      ......%%%%%%%%%%%%%%%%%%%%%%%%%%%%%%%%%%...........              ",
".....&%%%%%%%%%%%%%%%%%%%%%%%%%%%%%%%%...........      ......%%%%%%%%%%%%%%%%%%%%%%%%%%%%%%%%%%...........              ",
".....&%%%%%%%%%%%%%%%%%%%%%%%%%%%%%%%%...........      ......%%%%%%%%%%%%%%%%%%%%%%%%%%%%%%%%%%...........              ",
".....&%%%%%%%%%%%%%%%%%%%%%%%%%%%%%%%%...........      ......%%%%%%%%%%%%%%%%%%%%%%%%%%%%%%%%%%...........              ",
".....&%%%%%%%%%%%%%%%%%%%%%%%%%%%%%%%%...........      ...........$%%%%%%%%%%%%%%%%%%%%%%&................              ",
".....&%%%%%%%%%%%%%%%%%%%%%%%%%%%%%%%%...........      ...........$%%%%%%%%%%%%%%%%%%%%%%&................              ",
".....&%%%%%%%%%%%%%%%%%%%%%%%%%%%%%%%%...........      ...........$%%%%%%%%%%%%%%%%%%%%%%&................              ",
".....&%%%%%%%%%%%%%%%%%%%%%%%%%%%%%%%%...........      ...........$%%%%%%%%%%%%%%%%%%%%%%&................              ",
".....566666666666666666666666666666666...........      ...........$%%%%%%%%%%%%%%%%%%%%%%&................              ",
".................................................       ..........788888888888888888888889................              ",
".................................................            .............................................              ",
".................................................            .............................................              ",
".................................................            .............................................              ",
".................................................            .............................................              ",
"      ...........................................            .............................................              ",
"      ...........................................                  ..................................                   ",
"      ...........................................                  ..................................                   ",
"      ...........................................                  ..................................                   ",
"      ...........................................                  ..................................                   ",
"                                                                   ..................................                   ",
"                                                                   ..................................                   ",
"                                                                                                                        ",
"                                                                                                                        "};
