/* XPM */
static xpm_row_t const time_43_xpm[] = {
"120 68 29 1",
" 	c None",
".	c #000000",
"+	c #171717",
"@	c #7C7C7C",
"#	c #1D1D1D",
"$	c #565656",
"%	c #3B3B3B",
"&	c #FFFFFF",
"*	c #454545",
"=	c #B4B4B4",
"-	c #F9F9F9",
";	c #959595",
">	c #8F8F8F",
",	c #F4F4F4",
"'	c #282828",
")	c #292929",
"!	c #A8A8A8",
"~	c #A5A5A5",
"{	c #D4D4D4",
"]	c #B3B3B3",
"^	c #ABABAB",
"/	c #2E2E2E",
"(	c #D1D1D1",
"_	c #E7E7E7",
":	c #111111",
"<	c #606060",
"[	c #636363",
"}	c #7B7B7B",
"|	c #767676",
"                                                                                                                        ",
"                                                                                                                        ",
"                                                                                                                        ",
"........................................                                                                                ",
"........................................                .......................................                         ",
"........................................                .......................................                         ",
"........................................                .......................................                         ",
"........................................                .......................................                         ",
".....+@@@@@@@@@@@#.....@@@@@@@@@@@$.....                .......................................                         ",
".....%&&&&&&&&&&&*.....&&&&&&&&&&&=.....                .......................................                         ",
".....%&&&&&&&&&&&*.....&&&&&&&&&&&=.....                .....-&&&&&&&&&&&&&&&&&&&&&&&&&&&...........                    ",
".....%&&&&&&&&&&&*.....&&&&&&&&&&&=.....                .....-&&&&&&&&&&&&&&&&&&&&&&&&&&&...........                    ",
".....%&&&&&&&&&&&*.....&&&&&&&&&&&=.....                .....-&&&&&&&&&&&&&&&&&&&&&&&&&&&...........                    ",
".....%&&&&&&&&&&&*.....&&&&&&&&&&&=.....                .....-&&&&&&&&&&&&&&&&&&&&&&&&&&&...........                    ",
".....%&&&&&&&&&&&*.....&&&&&&&&&&&=.....                .....-&&&&&&&&&&&&&&&&&&&&&&&&&&&...........                    ",
".....%&&&&&&&&&&&*.....&&&&&&&&&&&=.....                .....-&&&&&&&&&&&&&&&&&&&&&&&&&&&;;;;;>.....                    ",
".....%&&&&&&&&&&&*.....&&&&&&&&&&&=.....                .....-&&&&&&&&&&&&&&&&&&&&&&&&&&&&&&&&,...........              ",
".....%&&&&&&&&&&&*.....&&&&&&&&&&&=.....                .....-&&&&&&&&&&&&&&&&&&&&&&&&&&&&&&&&,...........              ",
".....%&&&&&&&&&&&*.....&&&&&&&&&&&=.....                .....-&&&&&&&&&&&&&&&&&&&&&&&&&&&&&&&&,...........              ",
".....%&&&&&&&&&&&*.....&&&&&&&&&&&=.....                .....-&&&&&&&&&&&&&&&&&&&&&&&&&&&&&&&&,...........              ",
".....%&&&&&&&&&&&*.....&&&&&&&&&&&=...........          .....-&&&&&&&&&&&&&&&&&&&&&&&&&&&&&&&&,...........              ",
".....%&&&&&&&&&&&*.....&&&&&&&&&&&=...........          .....')))))))))))))))))))))!&&&&&&&&&&,...........              ",
".....%&&&&&&&&&&&*.....&&&&&&&&&&&=...........          ...........................~&&&&&&&&&&,...........              ",
".....%&&&&&&&&&&&*.....&&&&&&&&&&&=...........          ...........................~&&&&&&&&&&,...........              ",
".....%&&&&&&&&&&&*.....&&&&&&&&&&&=...........          ...........................~&&&&&&&&&&,...........              ",
".....%&&&&&&&&&&&*.....&&&&&&&&&&&=...........          ...........................~&&&&&&&&&&,...........              ",
".....%&&&&&&&&&&&&&&&&&&&&&&&&&&&&&&&&&&+...........    ...........................~&&&&&&&&&&,...........              ",
".....%&&&&&&&&&&&&&&&&&&&&&&&&&&&&&&&&&&+...........         ...........{&&&&&&&&&&&&&&&&&&&&&,...........              ",
".....%&&&&&&&&&&&&&&&&&&&&&&&&&&&&&&&&&&+...........         ...........{&&&&&&&&&&&&&&&&&&&&&,...........              ",
".....%&&&&&&&&&&&&&&&&&&&&&&&&&&&&&&&&&&+...........         ...........{&&&&&&&&&&&&&&&&&&&&&,...........              ",
".....%&&&&&&&&&&&&&&&&&&&&&&&&&&&&&&&&&&+...........         ...........{&&&&&&&&&&&&&&&&&&&&&,...........              ",
".....%&&&&&&&&&&&&&&&&&&&&&&&&&&&&&&&&&&+...........         ...........{&&&&&&&&&&&&&&&&&&&&&,...........              ",
".....%&&&&&&&&&&&&&&&&&&&&&&&&&&&&&&&&&&+...........               .....{&&&&&&&&&&&&&&&&]]]]]^...........              ",
".....%&&&&&&&&&&&&&&&&&&&&&&&&&&&&&&&&&&+...........               .....{&&&&&&&&&&&&&&&&.................              ",
".....%&&&&&&&&&&&&&&&&&&&&&&&&&&&&&&&&&&+...........               .....{&&&&&&&&&&&&&&&&.................              ",
".....%&&&&&&&&&&&&&&&&&&&&&&&&&&&&&&&&&&+...........               .....{&&&&&&&&&&&&&&&&.................              ",
".....%&&&&&&&&&&&&&&&&&&&&&&&&&&&&&&&&&&+...........               .....{&&&&&&&&&&&&&&&&.................              ",
"...../(((((((((((((((((&&&&&&&&&&&_(((((:...........               .....{&&&&&&&&&&&&&&&&.................              ",
".......................&&&&&&&&&&&=.................    ...........................~&&&&&&&&&&,...........              ",
".......................&&&&&&&&&&&=.................    ...........................~&&&&&&&&&&,...........              ",
".......................&&&&&&&&&&&=.................    ...........................~&&&&&&&&&&,...........              ",
".......................&&&&&&&&&&&=.................    ...........................~&&&&&&&&&&,...........              ",
".......................&&&&&&&&&&&=.................    ...........................~&&&&&&&&&&,...........              ",
"      .................&&&&&&&&&&&=.................    .....<[[[[[[[[[[[[[[[[[[[[[=&&&&&&&&&&,...........              ",
"      .................&&&&&&&&&&&=.................    .....-&&&&&&&&&&&&&&&&&&&&&&&&&&&&&&&&,...........              ",
"      .................&&&&&&&&&&&=.................    .....-&&&&&&&&&&&&&&&&&&&&&&&&&&&&&&&&,...........              ",
"      .................&&&&&&&&&&&=.................    .....-&&&&&&&&&&&&&&&&&&&&&&&&&&&&&&&&,...........              ",
"      .................&&&&&&&&&&&=.................    .....-&&&&&&&&&&&&&&&&&&&&&&&&&&&&&&&&,...........              ",
"      .................&&&&&&&&&&&=.................    .....-&&&&&&&&&&&&&&&&&&&&&&&&&&&&&&&&,...........              ",
"            ...........&&&&&&&&&&&=.....                .....-&&&&&&&&&&&&&&&&&&&&&&&&&&&}}}}}|...........              ",
"            ...........&&&&&&&&&&&=.....                .....-&&&&&&&&&&&&&&&&&&&&&&&&&&&.................              ",
"            ...........&&&&&&&&&&&=.....                .....-&&&&&&&&&&&&&&&&&&&&&&&&&&&.................              ",
"            ...........&&&&&&&&&&&=.....                .....-&&&&&&&&&&&&&&&&&&&&&&&&&&&.................              ",
"            ...........&&&&&&&&&&&=.....                .....-&&&&&&&&&&&&&&&&&&&&&&&&&&&.................              ",
"            ...........&&&&&&&&&&&=.....                .....-&&&&&&&&&&&&&&&&&&&&&&&&&&&.................              ",
"            ............................                ..................................................              ",
"            ............................                ..................................................              ",
"            ............................                ..................................................              ",
"            ............................                ..................................................              ",
"            ............................                ..................................................              ",
"            ............................                ..................................................              ",
"                 .......................                     .......................................                    ",
"                 .......................                     .......................................                    ",
"                 .......................                     .......................................                    ",
"                 .......................                     .......................................                    ",
"                 .......................                     .......................................                    ",
"                                                                                                                        ",
"                                                                                                                        "};
