/* XPM */
static xpm_row_t const time_37_xpm[] = {
"120 68 28 1",
" 	c None",
".	c #000000",
"+	c #F9F9F9",
"@	c #FFFFFF",
"#	c #FEFEFE",
"$	c #DEDEDE",
"%	c #DFDFDF",
"&	c #959595",
"*	c #8F8F8F",
"=	c #F4F4F4",
"-	c #282828",
";	c #292929",
">	c #A8A8A8",
",	c #F6F6F6",
"'	c #A5A5A5",
")	c #D4D4D4",
"!	c #727272",
"~	c #BABABA",
"{	c #9E9E9E",
"]	c #B3B3B3",
"^	c #ABABAB",
"/	c #606060",
"(	c #636363",
"_	c #B4B4B4",
":	c #7B7B7B",
"<	c #767676",
"[	c #747474",
"}	c #656565",
"                                                                                                                        ",
"                                                                                                                        ",
"                                                                                                                        ",
"                                                                                                                        ",
".......................................                  .............................................                  ",
".......................................                 ..............................................                  ",
".......................................                 ..............................................                  ",
".......................................                 ..............................................                  ",
".......................................                 ..............................................                  ",
".......................................                 ..............................................                  ",
".....+@@@@@@@@@@@@@@@@@@@@@@@@@@@...........            ......##################################$...........            ",
".....+@@@@@@@@@@@@@@@@@@@@@@@@@@@...........            ......@@@@@@@@@@@@@@@@@@@@@@@@@@@@@@@@@@%...........            ",
".....+@@@@@@@@@@@@@@@@@@@@@@@@@@@...........            ......@@@@@@@@@@@@@@@@@@@@@@@@@@@@@@@@@@%...........            ",
".....+@@@@@@@@@@@@@@@@@@@@@@@@@@@...........            ......@@@@@@@@@@@@@@@@@@@@@@@@@@@@@@@@@@%...........            ",
".....+@@@@@@@@@@@@@@@@@@@@@@@@@@@...........            ......@@@@@@@@@@@@@@@@@@@@@@@@@@@@@@@@@@%...........            ",
".....+@@@@@@@@@@@@@@@@@@@@@@@@@@@&&&&&*.....            ......@@@@@@@@@@@@@@@@@@@@@@@@@@@@@@@@@@%...........            ",
".....+@@@@@@@@@@@@@@@@@@@@@@@@@@@@@@@@=...........      ......@@@@@@@@@@@@@@@@@@@@@@@@@@@@@@@@@@%...........            ",
".....+@@@@@@@@@@@@@@@@@@@@@@@@@@@@@@@@=...........      ......@@@@@@@@@@@@@@@@@@@@@@@@@@@@@@@@@@%...........            ",
".....+@@@@@@@@@@@@@@@@@@@@@@@@@@@@@@@@=...........      ......@@@@@@@@@@@@@@@@@@@@@@@@@@@@@@@@@@%...........            ",
".....+@@@@@@@@@@@@@@@@@@@@@@@@@@@@@@@@=...........      ......@@@@@@@@@@@@@@@@@@@@@@@@@@@@@@@@@@%...........            ",
".....+@@@@@@@@@@@@@@@@@@@@@@@@@@@@@@@@=...........      ......@@@@@@@@@@@@@@@@@@@@@@@@@@@@@@@@@@%...........            ",
".....-;;;;;;;;;;;;;;;;;;;;;>@@@@@@@@@@=...........      ......,,,,,,,,,,,,,,,,,,,,,,,@@@@@@@@@@@%...........            ",
"...........................'@@@@@@@@@@=...........      .............................@@@@@@@@@@@%...........            ",
"...........................'@@@@@@@@@@=...........      .............................@@@@@@@@@@@%...........            ",
"...........................'@@@@@@@@@@=...........      .............................@@@@@@@@@@@%...........            ",
"...........................'@@@@@@@@@@=...........      .............................@@@@@@@@@@@%...........            ",
"...........................'@@@@@@@@@@=...........      .............................@@@@@@@@@@@%...........            ",
"     ...........)@@@@@@@@@@@@@@@@@@@@@=...........       ................!~~~~~~~~~~~@@@@@@@@@@@%...........            ",
"     ...........)@@@@@@@@@@@@@@@@@@@@@=...........            ...........{@@@@@@@@@@@@@@@@@@@@@@%...........            ",
"     ...........)@@@@@@@@@@@@@@@@@@@@@=...........            ...........{@@@@@@@@@@@@@@@@@@@@@@%...........            ",
"     ...........)@@@@@@@@@@@@@@@@@@@@@=...........            ...........{@@@@@@@@@@@@@@@@@@@@@@%...........            ",
"     ...........)@@@@@@@@@@@@@@@@@@@@@=...........            ...........{@@@@@@@@@@@@@@@@@@@@@@%...........            ",
"           .....)@@@@@@@@@@@@@@@@]]]]]^...........            ...........{@@@@@@@@@@@@@@@@@@@@@@%...........            ",
"           .....)@@@@@@@@@@@@@@@@.................                  .....{@@@@@@@@@@@@@@@@@@@@@@%...........            ",
"           .....)@@@@@@@@@@@@@@@@.................                  .....{@@@@@@@@@@@@@@@@@@@@@@%...........            ",
"           .....)@@@@@@@@@@@@@@@@.................                  .....{@@@@@@@@@@@@@@@@@@@@@@%...........            ",
"           .....)@@@@@@@@@@@@@@@@.................                  .....{@@@@@@@@@@@@@@@@@@@@@@%...........            ",
"           .....)@@@@@@@@@@@@@@@@.................                  .....{@@@@@@@@@@@@@@@@@@@@@@%...........            ",
"...........................'@@@@@@@@@@=...........                  .....{@@@@@@@@@@@@@@@@@@@@@@%...........            ",
"...........................'@@@@@@@@@@=...........                  .................@@@@@@@@@@@%...........            ",
"...........................'@@@@@@@@@@=...........                  .................@@@@@@@@@@@%...........            ",
"...........................'@@@@@@@@@@=...........                  .................@@@@@@@@@@@%...........            ",
"...........................'@@@@@@@@@@=...........                  .................@@@@@@@@@@@%...........            ",
"...../(((((((((((((((((((((_@@@@@@@@@@=...........                  .................@@@@@@@@@@@%...........            ",
".....+@@@@@@@@@@@@@@@@@@@@@@@@@@@@@@@@=...........                  .................@@@@@@@@@@@%...........            ",
".....+@@@@@@@@@@@@@@@@@@@@@@@@@@@@@@@@=...........                        ...........@@@@@@@@@@@%...........            ",
".....+@@@@@@@@@@@@@@@@@@@@@@@@@@@@@@@@=...........                        ...........@@@@@@@@@@@%...........            ",
".....+@@@@@@@@@@@@@@@@@@@@@@@@@@@@@@@@=...........                        ...........@@@@@@@@@@@%...........            ",
".....+@@@@@@@@@@@@@@@@@@@@@@@@@@@@@@@@=...........                        ...........@@@@@@@@@@@%...........            ",
".....+@@@@@@@@@@@@@@@@@@@@@@@@@@@:::::<...........                        ...........@@@@@@@@@@@%...........            ",
".....+@@@@@@@@@@@@@@@@@@@@@@@@@@@.................                        ...........@@@@@@@@@@@%...........            ",
".....+@@@@@@@@@@@@@@@@@@@@@@@@@@@.................                             ......@@@@@@@@@@@%...........            ",
".....+@@@@@@@@@@@@@@@@@@@@@@@@@@@.................                             ......@@@@@@@@@@@%...........            ",
".....+@@@@@@@@@@@@@@@@@@@@@@@@@@@.................                             ......@@@@@@@@@@@%...........            ",
".....+@@@@@@@@@@@@@@@@@@@@@@@@@@@.................                             ......@@@@@@@@@@@%...........            ",
"..................................................                             ......@@@@@@@@@@@%...........            ",
"..................................................                             ......[[[[[[[[[[[}...........            ",
"..................................................                             .............................            ",
"..................................................                             .............................            ",
"..................................................                             .............................            ",
"..................................................                             .............................            ",
"     .......................................                                   .............................            ",
"     .......................................                                               .................            ",
"     .......................................                                               .................            ",
"     .......................................                                               .................            ",
"     .......................................                                               .................            ",
"                                                                                           .................            ",
"                                                                                           .................            "};
