/* XPM */
static xpm_row_t const time_56_xpm[] = {
"120 68 23 1",
" 	c None",
".	c #000000",
"+	c #B9B9B9",
"@	c #FFFFFF",
"#	c #A4A4A4",
"$	c #B5B5B5",
"%	c #D7D7D7",
"&	c #939393",
"*	c #7B7B7B",
"=	c #6D6D6D",
"-	c #4D4D4D",
";	c #404040",
">	c #505050",
",	c #727272",
"'	c #A2A2A2",
")	c #FCFCFC",
"!	c #FAFAFA",
"~	c #E4E4E4",
"{	c #C5C5C5",
"]	c #7C7C7C",
"^	c #B0B0B0",
"/	c #C2C2C2",
"(	c #4F4F4F",
"                                                                                                                        ",
"                                                                                                                        ",
"                                                                                                                        ",
"                                                         .......................                                        ",
".............................................            .......................                                        ",
".............................................            .......................                                        ",
".............................................            .......................                                        ",
".............................................            .......................                                        ",
".............................................            .......................                                        ",
".............................................            .....+@@@@@@@@@@@#...........                                  ",
".....$@@@@@@@@@@@@@@@@@@@@@@@@@@@@@@@@@%...........      .....+@@@@@@@@@@@#...........                                  ",
".....$@@@@@@@@@@@@@@@@@@@@@@@@@@@@@@@@@%...........      .....+@@@@@@@@@@@#...........                                  ",
".....$@@@@@@@@@@@@@@@@@@@@@@@@@@@@@@@@@%...........      .....+@@@@@@@@@@@#...........                                  ",
".....$@@@@@@@@@@@@@@@@@@@@@@@@@@@@@@@@@%...........      .....+@@@@@@@@@@@#...........                                  ",
".....$@@@@@@@@@@@@@@@@@@@@@@@@@@@@@@@@@%...........      .....+@@@@@@@@@@@#...........                                  ",
".....$@@@@@@@@@@@@@@@@@@@@@@@@@@@@@@@@@%...........      .....+@@@@@@@@@@@#...........                                  ",
".....$@@@@@@@@@@@@@@@@@@@@@@@@@@@@@@@@@%...........      .....+@@@@@@@@@@@#...........                                  ",
".....$@@@@@@@@@@@@@@@@@@@@@@@@@@@@@@@@@%...........      .....+@@@@@@@@@@@#...........                                  ",
".....$@@@@@@@@@@@@@@@@@@@@@@@@@@@@@@@@@%...........      .....+@@@@@@@@@@@#...........                                  ",
".....$@@@@@@@@@@@@@@@@@@@@@@@@@@@@@@@@@%...........      .....+@@@@@@@@@@@#...........                                  ",
".....$@@@@@@@@@@@@@@@@@@@@@@@@@@@@@@@@@%...........      .....+@@@@@@@@@@@#...........                                  ",
".....$@@@@@@@@@@@&&&&&&&&&&&&&&&&&&&&&&*...........      .....+@@@@@@@@@@@#.......................                      ",
".....$@@@@@@@@@@@..................................      .....+@@@@@@@@@@@#.......................                      ",
".....$@@@@@@@@@@@..................................      .....+@@@@@@@@@@@#.......................                      ",
".....$@@@@@@@@@@@..................................      .....+@@@@@@@@@@@#.......................                      ",
".....$@@@@@@@@@@@..................................      .....+@@@@@@@@@@@#.......................                      ",
".....$@@@@@@@@@@@..................................      .....+@@@@@@@@@@@#.......................                      ",
".....$@@@@@@@@@@@@@@@@@@@@@@@@@@@@.................      .....+@@@@@@@@@@@@@@@@@@@@@@@@@@@@@=...........                ",
".....$@@@@@@@@@@@@@@@@@@@@@@@@@@@@.................      .....+@@@@@@@@@@@@@@@@@@@@@@@@@@@@@=...........                ",
".....$@@@@@@@@@@@@@@@@@@@@@@@@@@@@.................      .....+@@@@@@@@@@@@@@@@@@@@@@@@@@@@@=...........                ",
".....$@@@@@@@@@@@@@@@@@@@@@@@@@@@@.................      .....+@@@@@@@@@@@@@@@@@@@@@@@@@@@@@=...........                ",
".....$@@@@@@@@@@@@@@@@@@@@@@@@@@@@.................      .....+@@@@@@@@@@@@@@@@@@@@@@@@@@@@@=...........                ",
".....$@@@@@@@@@@@@@@@@@@@@@@@@@@@@-----;...........      .....+@@@@@@@@@@@@@@@@@@@@@@@@@@@@@=...........                ",
".....$@@@@@@@@@@@@@@@@@@@@@@@@@@@@@@@@@%...........      .....+@@@@@@@@@@@@@@@@@@@@@@@@@@@@@@@@@@@>...........          ",
".....$@@@@@@@@@@@@@@@@@@@@@@@@@@@@@@@@@%...........      .....+@@@@@@@@@@@@@@@@@@@@@@@@@@@@@@@@@@@>...........          ",
".....$@@@@@@@@@@@@@@@@@@@@@@@@@@@@@@@@@%...........      .....+@@@@@@@@@@@@@@@@@@@@@@@@@@@@@@@@@@@>...........          ",
".....$@@@@@@@@@@@@@@@@@@@@@@@@@@@@@@@@@%...........      .....+@@@@@@@@@@@@@@@@@@@@@@@@@@@@@@@@@@@>...........          ",
".....$@@@@@@@@@@@@@@@@@@@@@@@@@@@@@@@@@%...........      .....+@@@@@@@@@@@@@@@@@@@@@@@@@@@@@@@@@@@>...........          ",
".....,'''''''''''''''''''''')@@@@@@@@@@%...........      .....+@@@@@@@@@@@@@@@@@@@@@@@@@@@@@@@@@@@>...........          ",
"............................!@@@@@@@@@@%...........      .....+@@@@@@@@@@@#...........~@@@@@@@@@@@>...........          ",
"............................!@@@@@@@@@@%...........      .....+@@@@@@@@@@@#...........~@@@@@@@@@@@>...........          ",
"............................!@@@@@@@@@@%...........      .....+@@@@@@@@@@@#...........~@@@@@@@@@@@>...........          ",
"............................!@@@@@@@@@@%...........      .....+@@@@@@@@@@@#...........~@@@@@@@@@@@>...........          ",
"............................!@@@@@@@@@@%...........      .....+@@@@@@@@@@@#...........~@@@@@@@@@@@>...........          ",
".....$@@@@@@@@@@@@@@@@@@@@@@@@@@@@@@@@@%...........      .....+@@@@@@@@@@@#...........~@@@@@@@@@@@>...........          ",
".....$@@@@@@@@@@@@@@@@@@@@@@@@@@@@@@@@@%...........      .....+@@@@@@@@@@@@@@@@@@@@@@@@@@@@@@@@@@@>...........          ",
".....$@@@@@@@@@@@@@@@@@@@@@@@@@@@@@@@@@%...........      .....+@@@@@@@@@@@@@@@@@@@@@@@@@@@@@@@@@@@>...........          ",
".....$@@@@@@@@@@@@@@@@@@@@@@@@@@@@@@@@@%...........      .....+@@@@@@@@@@@@@@@@@@@@@@@@@@@@@@@@@@@>...........          ",
".....$@@@@@@@@@@@@@@@@@@@@@@@@@@@@@@@@@%...........      .....+@@@@@@@@@@@@@@@@@@@@@@@@@@@@@@@@@@@>...........          ",
".....$@@@@@@@@@@@@@@@@@@@@@@@@@@@@@@@@@%...........      .....+@@@@@@@@@@@@@@@@@@@@@@@@@@@@@@@@@@@>...........          ",
".....$@@@@@@@@@@@@@@@@@@@@@@@@@@@@.................      .....+@@@@@@@@@@@@@@@@@@@@@@@@@@@@@@@@@@@>...........          ",
".....$@@@@@@@@@@@@@@@@@@@@@@@@@@@@.................      ...........{@@@@@@@@@@@@@@@@@@@@@@@@@@@@@>...........          ",
".....$@@@@@@@@@@@@@@@@@@@@@@@@@@@@.................      ...........{@@@@@@@@@@@@@@@@@@@@@@@@@@@@@>...........          ",
".....$@@@@@@@@@@@@@@@@@@@@@@@@@@@@.................      ...........{@@@@@@@@@@@@@@@@@@@@@@@@@@@@@>...........          ",
".....$@@@@@@@@@@@@@@@@@@@@@@@@@@@@.................      ...........{@@@@@@@@@@@@@@@@@@@@@@@@@@@@@>...........          ",
".....]^^^^^^^^^^^^^^^^^^^^^^^^^^^^.................      ...........{@@@@@@@@@@@@@@@@@@@@@@@@@@@@@>...........          ",
"...................................................      .........../)))))))))))))))))))))))))))))(...........          ",
"...................................................            ...............................................          ",
"...................................................            ...............................................          ",
"...................................................            ...............................................          ",
"...................................................            ...............................................          ",
"      .......................................                  ...............................................          ",
"      .......................................                  ...............................................          ",
"      .......................................                       ....................................                ",
"      .......................................                       ....................................                ",
"      .......................................                       ....................................                ",
"                                                                    ....................................                ",
"                                                                    ....................................                "};
