/* XPM */
static xpm_row_t const time_48_xpm[] = {
"120 68 36 1",
" 	c None",
".	c #000000",
"+	c #171717",
"@	c #7C7C7C",
"#	c #1D1D1D",
"$	c #565656",
"%	c #3B3B3B",
"&	c #FFFFFF",
"*	c #454545",
"=	c #B4B4B4",
"-	c #5C5C5C",
";	c #E2E2E2",
">	c #6A6A6A",
",	c #696969",
"'	c #797979",
")	c #ECECEC",
"!	c #E5E5E5",
"~	c #EBEBEB",
"{	c #898989",
"]	c #757575",
"^	c #939393",
"/	c #EFEFEF",
"(	c #EAEAEA",
"_	c #EEEEEE",
":	c #9C9C9C",
"<	c #2E2E2E",
"[	c #D1D1D1",
"}	c #E7E7E7",
"|	c #111111",
"1	c #E6E6E6",
"2	c #DDDDDD",
"3	c #F5F5F5",
"4	c #F1F1F1",
"5	c #F4F4F4",
"6	c #D5D5D5",
"7	c #636363",
"                                                                                                                        ",
"                                                                                                                        ",
"                                                                                                                        ",
"........................................                                                                                ",
"........................................                      ..................................                        ",
"........................................                      ..................................                        ",
"........................................                      ..................................                        ",
"........................................                      ..................................                        ",
".....+@@@@@@@@@@@#.....@@@@@@@@@@@$.....                      ..................................                        ",
".....%&&&&&&&&&&&*.....&&&&&&&&&&&=.....                ...........-;;;;;;;;;;;;;;;;;;;;;;>...........                  ",
".....%&&&&&&&&&&&*.....&&&&&&&&&&&=.....                ...........,&&&&&&&&&&&&&&&&&&&&&&'...........                  ",
".....%&&&&&&&&&&&*.....&&&&&&&&&&&=.....                ...........,&&&&&&&&&&&&&&&&&&&&&&'...........                  ",
".....%&&&&&&&&&&&*.....&&&&&&&&&&&=.....                ...........,&&&&&&&&&&&&&&&&&&&&&&'...........                  ",
".....%&&&&&&&&&&&*.....&&&&&&&&&&&=.....                ...........,&&&&&&&&&&&&&&&&&&&&&&'...........                  ",
".....%&&&&&&&&&&&*.....&&&&&&&&&&&=.....                ...........,&&&&&&&&&&&&&&&&&&&&&&'...........                  ",
".....%&&&&&&&&&&&*.....&&&&&&&&&&&=.....                ......&&&&&&&&&&&&&&&&&&&&&&&&&&&&&&&&&&...........             ",
".....%&&&&&&&&&&&*.....&&&&&&&&&&&=.....                ......&&&&&&&&&&&&&&&&&&&&&&&&&&&&&&&&&&...........             ",
".....%&&&&&&&&&&&*.....&&&&&&&&&&&=.....                ......&&&&&&&&&&&&&&&&&&&&&&&&&&&&&&&&&&...........             ",
".....%&&&&&&&&&&&*.....&&&&&&&&&&&=.....                ......&&&&&&&&&&&&&&&&&&&&&&&&&&&&&&&&&&...........             ",
".....%&&&&&&&&&&&*.....&&&&&&&&&&&=.....                ......&&&&&&&&&&&&&&&&&&&&&&&&&&&&&&&&&&...........             ",
".....%&&&&&&&&&&&*.....&&&&&&&&&&&=...........          ......&&&&&&&&&&&)!!!!!!!!!!~&&&&&&&&&&&...........             ",
".....%&&&&&&&&&&&*.....&&&&&&&&&&&=...........          ......&&&&&&&&&&&{..........@&&&&&&&&&&&...........             ",
".....%&&&&&&&&&&&*.....&&&&&&&&&&&=...........          ......&&&&&&&&&&&{..........@&&&&&&&&&&&...........             ",
".....%&&&&&&&&&&&*.....&&&&&&&&&&&=...........          ......&&&&&&&&&&&{..........@&&&&&&&&&&&...........             ",
".....%&&&&&&&&&&&*.....&&&&&&&&&&&=...........          ......&&&&&&&&&&&{..........@&&&&&&&&&&&...........             ",
".....%&&&&&&&&&&&*.....&&&&&&&&&&&=...........          ......&&&&&&&&&&&{..........@&&&&&&&&&&&...........             ",
".....%&&&&&&&&&&&&&&&&&&&&&&&&&&&&&&&&&&+...........    ......]]]]]^&&&&&/((((((((((_&&&&&:]]]]]...........             ",
".....%&&&&&&&&&&&&&&&&&&&&&&&&&&&&&&&&&&+...........    ...........,&&&&&&&&&&&&&&&&&&&&&&'................             ",
".....%&&&&&&&&&&&&&&&&&&&&&&&&&&&&&&&&&&+...........    ...........,&&&&&&&&&&&&&&&&&&&&&&'................             ",
".....%&&&&&&&&&&&&&&&&&&&&&&&&&&&&&&&&&&+...........    ...........,&&&&&&&&&&&&&&&&&&&&&&'................             ",
".....%&&&&&&&&&&&&&&&&&&&&&&&&&&&&&&&&&&+...........    ...........,&&&&&&&&&&&&&&&&&&&&&&'................             ",
".....%&&&&&&&&&&&&&&&&&&&&&&&&&&&&&&&&&&+...........    ...........,&&&&&&&&&&&&&&&&&&&&&&'................             ",
".....%&&&&&&&&&&&&&&&&&&&&&&&&&&&&&&&&&&+...........    ......&&&&&&&&&&&&&&&&&&&&&&&&&&&&&&&&&&...........             ",
".....%&&&&&&&&&&&&&&&&&&&&&&&&&&&&&&&&&&+...........    ......&&&&&&&&&&&&&&&&&&&&&&&&&&&&&&&&&&...........             ",
".....%&&&&&&&&&&&&&&&&&&&&&&&&&&&&&&&&&&+...........    ......&&&&&&&&&&&&&&&&&&&&&&&&&&&&&&&&&&...........             ",
".....%&&&&&&&&&&&&&&&&&&&&&&&&&&&&&&&&&&+...........    ......&&&&&&&&&&&&&&&&&&&&&&&&&&&&&&&&&&...........             ",
".....%&&&&&&&&&&&&&&&&&&&&&&&&&&&&&&&&&&+...........    ......&&&&&&&&&&&&&&&&&&&&&&&&&&&&&&&&&&...........             ",
".....<[[[[[[[[[[[[[[[[[&&&&&&&&&&&}[[[[[|...........    ......&&&&&&&&&&&12222222222!&&&&&&&&&&&...........             ",
".......................&&&&&&&&&&&=.................    ......&&&&&&&&&&&{..........@&&&&&&&&&&&...........             ",
".......................&&&&&&&&&&&=.................    ......&&&&&&&&&&&{..........@&&&&&&&&&&&...........             ",
".......................&&&&&&&&&&&=.................    ......&&&&&&&&&&&{..........@&&&&&&&&&&&...........             ",
".......................&&&&&&&&&&&=.................    ......&&&&&&&&&&&{..........@&&&&&&&&&&&...........             ",
".......................&&&&&&&&&&&=.................    ......&&&&&&&&&&&{..........@&&&&&&&&&&&...........             ",
"      .................&&&&&&&&&&&=.................    ......&&&&&&&&&&&344444444445&&&&&&&&&&&...........             ",
"      .................&&&&&&&&&&&=.................    ......&&&&&&&&&&&&&&&&&&&&&&&&&&&&&&&&&&...........             ",
"      .................&&&&&&&&&&&=.................    ......&&&&&&&&&&&&&&&&&&&&&&&&&&&&&&&&&&...........             ",
"      .................&&&&&&&&&&&=.................    ......&&&&&&&&&&&&&&&&&&&&&&&&&&&&&&&&&&...........             ",
"      .................&&&&&&&&&&&=.................    ......&&&&&&&&&&&&&&&&&&&&&&&&&&&&&&&&&&...........             ",
"      .................&&&&&&&&&&&=.................    ......&&&&&&&&&&&&&&&&&&&&&&&&&&&&&&&&&&...........             ",
"            ...........&&&&&&&&&&&=.....                ...........,&&&&&&&&&&&&&&&&&&&&&&'................             ",
"            ...........&&&&&&&&&&&=.....                ...........,&&&&&&&&&&&&&&&&&&&&&&'................             ",
"            ...........&&&&&&&&&&&=.....                ...........,&&&&&&&&&&&&&&&&&&&&&&'................             ",
"            ...........&&&&&&&&&&&=.....                ...........,&&&&&&&&&&&&&&&&&&&&&&'................             ",
"            ...........&&&&&&&&&&&=.....                ...........,&&&&&&&&&&&&&&&&&&&&&&'................             ",
"            ...........&&&&&&&&&&&=.....                 ..........$66666666666666666666667................             ",
"            ............................                      .............................................             ",
"            ............................                      .............................................             ",
"            ............................                      .............................................             ",
"            ............................                      .............................................             ",
"            ............................                      .............................................             ",
"            ............................                            ..................................                  ",
"                 .......................                            ..................................                  ",
"                 .......................                            ..................................                  ",
"                 .......................                            ..................................                  ",
"                 .......................                            ..................................                  ",
"                 .......................                            ..................................                  ",
"                                                                                                                        ",
"                                                                                                                        "};
