/* XPM */
static xpm_row_t const time_09_xpm[] = {
"120 68 30 1",
" 	c None",
".	c #000000",
"+	c #494949",
"@	c #FFFFFF",
"#	c #CCCCCC",
"$	c #717171",
"%	c #818181",
"&	c #474747",
"*	c #A6A6A6",
"=	c #555555",
"-	c #DDDDDD",
";	c #5B5B5B",
">	c #0B0B0B",
",	c #E2E2E2",
"'	c #595959",
")	c #F3F3F3",
"!	c #9D9D9D",
"~	c #B8B8B8",
"{	c #EDEDED",
"]	c #808080",
"^	c #2C2C2C",
"/	c #8F8F8F",
"(	c #E0E0E0",
"_	c #DCDCDC",
":	c #F7F7F7",
"<	c #2F2F2F",
"[	c #AFAFAF",
"}	c #323232",
"|	c #6C6C6C",
"1	c #5C5C5C",
"                                                                                                                        ",
"                                                                                                                        ",
"                                                                                                                        ",
"                                                                                                                        ",
"     .................................                                                                                  ",
"     .................................                                                                                  ",
"     .................................                        .................................                         ",
"     .................................                        .................................                         ",
"     .................................                        .................................                         ",
"..........+@@@@@@@@@@@@@@@@@@@@@@...........                  .................................                         ",
"..........+@@@@@@@@@@@@@@@@@@@@@@...........                  .................................                         ",
"..........+@@@@@@@@@@@@@@@@@@@@@@...........            ...........######################...........                    ",
"..........+@@@@@@@@@@@@@@@@@@@@@@...........            ...........@@@@@@@@@@@@@@@@@@@@@@...........                    ",
"..........+@@@@@@@@@@@@@@@@@@@@@@...........            ...........@@@@@@@@@@@@@@@@@@@@@@...........                    ",
".....$$$$$%@@@@@@@@@@@@@@@@@@@@@@$$$$$&.....            ...........@@@@@@@@@@@@@@@@@@@@@@...........                    ",
".....@@@@@@@@@@@@@@@@@@@@@@@@@@@@@@@@@*...........      ...........@@@@@@@@@@@@@@@@@@@@@@...........                    ",
".....@@@@@@@@@@@@@@@@@@@@@@@@@@@@@@@@@*...........      ...........@@@@@@@@@@@@@@@@@@@@@@...........                    ",
".....@@@@@@@@@@@@@@@@@@@@@@@@@@@@@@@@@*...........      .....=@@@@@@@@@@@@@@@@@@@@@@@@@@@@@@@@-...........              ",
".....@@@@@@@@@@@@@@@@@@@@@@@@@@@@@@@@@*...........      .....=@@@@@@@@@@@@@@@@@@@@@@@@@@@@@@@@-...........              ",
".....@@@@@@@@@@@@@@@@@@@@@@@@@@@@@@@@@*...........      .....=@@@@@@@@@@@@@@@@@@@@@@@@@@@@@@@@-...........              ",
".....@@@@@@@@@@@;>>>>>>>>>>,@@@@@@@@@@*...........      .....=@@@@@@@@@@@@@@@@@@@@@@@@@@@@@@@@-...........              ",
".....@@@@@@@@@@@'..........,@@@@@@@@@@*...........      .....=@@@@@@@@@@@@@@@@@@@@@@@@@@@@@@@@-...........              ",
".....@@@@@@@@@@@'..........,@@@@@@@@@@*...........      .....=@@@@@@@@@@)!!!!!!!!!!~@@@@@@@@@@-...........              ",
".....@@@@@@@@@@@'..........,@@@@@@@@@@*...........      .....=@@@@@@@@@@{..........]@@@@@@@@@@-...........              ",
".....@@@@@@@@@@@'..........,@@@@@@@@@@*...........      .....=@@@@@@@@@@{..........]@@@@@@@@@@-...........              ",
".....@@@@@@@@@@@'..........,@@@@@@@@@@*...........      .....=@@@@@@@@@@{..........]@@@@@@@@@@-...........              ",
".....@@@@@@@@@@@'..........,@@@@@@@@@@*...........      .....=@@@@@@@@@@{..........]@@@@@@@@@@-...........              ",
".....@@@@@@@@@@@'..........,@@@@@@@@@@*...........      .....=@@@@@@@@@@{..........]@@@@@@@@@@-...........              ",
".....@@@@@@@@@@@'..........,@@@@@@@@@@*...........      .....=@@@@@@@@@@@@@@@@@@@@@@@@@@@@@@@@-...........              ",
".....@@@@@@@@@@@'..........,@@@@@@@@@@*...........      .....=@@@@@@@@@@@@@@@@@@@@@@@@@@@@@@@@-...........              ",
".....@@@@@@@@@@@'..........,@@@@@@@@@@*...........      .....=@@@@@@@@@@@@@@@@@@@@@@@@@@@@@@@@-...........              ",
".....@@@@@@@@@@@'..........,@@@@@@@@@@*...........      .....=@@@@@@@@@@@@@@@@@@@@@@@@@@@@@@@@-...........              ",
".....@@@@@@@@@@@'..........,@@@@@@@@@@*...........      .....=@@@@@@@@@@@@@@@@@@@@@@@@@@@@@@@@-...........              ",
".....@@@@@@@@@@@'..........,@@@@@@@@@@*...........      .....^/////@@@@@@@@@@@@@@@@@@@@@@@@@@@-...........              ",
".....@@@@@@@@@@@'..........,@@@@@@@@@@*...........      ...........@@@@@@@@@@@@@@@@@@@@@@@@@@@-...........              ",
".....@@@@@@@@@@@'..........,@@@@@@@@@@*...........      ...........@@@@@@@@@@@@@@@@@@@@@@@@@@@-...........              ",
".....@@@@@@@@@@@'..........,@@@@@@@@@@*...........      ...........@@@@@@@@@@@@@@@@@@@@@@@@@@@-...........              ",
".....@@@@@@@@@@@'..........,@@@@@@@@@@*...........      ...........@@@@@@@@@@@@@@@@@@@@@@@@@@@-...........              ",
".....@@@@@@@@@@@'..........,@@@@@@@@@@*...........      ...........@@@@@@@@@@@@@@@@@@@@@@@@@@@-...........              ",
".....@@@@@@@@@@@'..........,@@@@@@@@@@*...........            .....................]@@@@@@@@@@-...........              ",
".....@@@@@@@@@@@'..........,@@@@@@@@@@*...........            .....................]@@@@@@@@@@-...........              ",
".....@@@@@@@@@@@'..........,@@@@@@@@@@*...........            .....................]@@@@@@@@@@-...........              ",
".....@@@@@@@@@@@(__________:@@@@@@@@@@*...........            .....................]@@@@@@@@@@-...........              ",
".....@@@@@@@@@@@@@@@@@@@@@@@@@@@@@@@@@*...........            .....................]@@@@@@@@@@-...........              ",
".....@@@@@@@@@@@@@@@@@@@@@@@@@@@@@@@@@*...........                 ................]@@@@@@@@@@-...........              ",
".....@@@@@@@@@@@@@@@@@@@@@@@@@@@@@@@@@*...........                 ................]@@@@@@@@@@-...........              ",
".....@@@@@@@@@@@@@@@@@@@@@@@@@@@@@@@@@*...........                 ................]@@@@@@@@@@-...........              ",
".....@@@@@@@@@@@@@@@@@@@@@@@@@@@@@@@@@*...........                 ................]@@@@@@@@@@-...........              ",
"..........+@@@@@@@@@@@@@@@@@@@@@@.................                 ................]@@@@@@@@@@-...........              ",
"..........+@@@@@@@@@@@@@@@@@@@@@@.................                 ................]@@@@@@@@@@-...........              ",
"..........+@@@@@@@@@@@@@@@@@@@@@@.................                            .....]@@@@@@@@@@-...........              ",
"..........+@@@@@@@@@@@@@@@@@@@@@@.................                            .....]@@@@@@@@@@-...........              ",
"..........+@@@@@@@@@@@@@@@@@@@@@@.................                            .....]@@@@@@@@@@-...........              ",
"     .....<[[[[[[[[[[[[[[[[[[[[[[.................                            .....]@@@@@@@@@@-...........              ",
"     .............................................                            .....]@@@@@@@@@@-...........              ",
"     .............................................                            .....}||||||||||1...........              ",
"     .............................................                            ............................              ",
"     .............................................                            ............................              ",
"     .............................................                            ............................              ",
"           .................................                                  ............................              ",
"           .................................                                  ............................              ",
"           .................................                                        ......................              ",
"           .................................                                        ......................              ",
"           .................................                                        ......................              ",
"           .................................                                        ......................              ",
"                                                                                    ......................              ",
"                                                                                                                        ",
"                                                                                                                        "};
